<svg width="12" height="12" viewBox="0 0 12 12" fill="none" xmlns="http://www.w3.org/2000/svg">
<path d="M6.85619 3.56982H1.24463C0.625671 3.56982 0.122314 4.07318 0.122314 4.69214V10.3037C0.122314 10.9227 0.625671 11.426 1.24463 11.426H6.85619C7.47514 11.426 7.9785 10.9227 7.9785 10.3037V4.69214C7.9785 4.07318 7.47514 3.56982 6.85619 3.56982Z" fill="#8500E2"/>
<path d="M10.2231 0.202881H4.61157C4.31391 0.202881 4.02845 0.321124 3.81798 0.531598C3.6075 0.742073 3.48926 1.02754 3.48926 1.32519V2.4475H7.97851C8.27616 2.4475 8.56163 2.56575 8.7721 2.77622C8.98257 2.9867 9.10082 3.27216 9.10082 3.56982V8.05906H10.2231C10.5208 8.05906 10.8062 7.94082 11.0167 7.73035C11.2272 7.51987 11.3454 7.23441 11.3454 6.93675V1.32519C11.3454 1.02754 11.2272 0.742073 11.0167 0.531598C10.8062 0.321124 10.5208 0.202881 10.2231 0.202881Z" fill="#8500E2"/>
</svg>
