<svg width="16" height="16" viewBox="0 0 16 16" fill="none" xmlns="http://www.w3.org/2000/svg">
<rect width="16" height="16" rx="2" fill="url(#paint0_linear_0_1)"/>
<path d="M11.6937 3.92512L11.1 3.1335C11.0884 3.11797 11.0733 3.10537 11.0559 3.09669C11.0385 3.08801 11.0194 3.0835 11 3.0835C10.9806 3.0835 10.9615 3.08801 10.9441 3.09669C10.9267 3.10537 10.9116 3.11797 10.9 3.1335L10.3062 3.92512C10.29 3.94676 10.2812 3.97307 10.2812 4.00012C10.2812 4.02717 10.29 4.05348 10.3062 4.07512L10.9 4.86675C10.9116 4.88227 10.9267 4.89487 10.9441 4.90355C10.9615 4.91223 10.9806 4.91675 11 4.91675C11.0194 4.91675 11.0385 4.91223 11.0559 4.90355C11.0733 4.89487 11.0884 4.88227 11.1 4.86675L11.6937 4.07512C11.71 4.05348 11.7188 4.02717 11.7188 4.00012C11.7188 3.97307 11.71 3.94676 11.6937 3.92512Z" fill="white"/>
<path d="M12.1531 2.53744L12.45 2.93325C12.4558 2.94101 12.4634 2.94731 12.472 2.95165C12.4807 2.95599 12.4903 2.95825 12.5 2.95825C12.5097 2.95825 12.5193 2.95599 12.528 2.95165C12.5366 2.94731 12.5442 2.94101 12.55 2.93325L12.8469 2.53744C12.855 2.52662 12.8594 2.51346 12.8594 2.49994C12.8594 2.48642 12.855 2.47326 12.8469 2.46244L12.55 2.06663C12.5442 2.05886 12.5366 2.05256 12.528 2.04823C12.5193 2.04389 12.5097 2.04163 12.5 2.04163C12.4903 2.04163 12.4807 2.04389 12.472 2.04823C12.4634 2.05256 12.4558 2.05886 12.45 2.06663L12.1531 2.46244C12.145 2.47326 12.1406 2.48642 12.1406 2.49994C12.1406 2.51346 12.145 2.52662 12.1531 2.53744Z" fill="white"/>
<path d="M6.125 5.70825C6.125 6.742 6.96625 7.58325 8 7.58325C9.03375 7.58325 9.875 6.742 9.875 5.70825C9.875 4.6745 9.03375 3.83325 8 3.83325C6.96625 3.83325 6.125 4.6745 6.125 5.70825ZM11.3333 11.7499H11.75V11.3333C11.75 9.72534 10.4412 8.41659 8.83333 8.41659H7.16667C5.55833 8.41659 4.25 9.72534 4.25 11.3333V11.7499H11.3333Z" fill="white"/>
<defs>
<linearGradient id="paint0_linear_0_1" x1="8" y1="0" x2="13.0612" y2="16" gradientUnits="userSpaceOnUse">
<stop stop-color="#FF3269"/>
<stop offset="1" stop-color="#FF794D"/>
</linearGradient>
</defs>
</svg>
