<svg width="17" height="17" viewBox="0 0 17 17" fill="none" xmlns="http://www.w3.org/2000/svg">
<circle cx="8.5" cy="8.5" r="8.5" transform="rotate(180 8.5 8.5)" fill="#910CEE"/>
<path d="M8.17048 9.87375L6.07223 7.47538C5.8246 7.19319 6.02585 6.75 6.40166 6.75L10.5982 6.75C10.6823 6.74993 10.7646 6.7741 10.8353 6.81962C10.9061 6.86515 10.9622 6.93009 10.9969 7.00668C11.0317 7.08326 11.0436 7.16825 11.0313 7.25145C11.019 7.33466 10.983 7.41255 10.9276 7.47581L8.82935 9.87331C8.78829 9.9203 8.73764 9.95797 8.68082 9.98377C8.624 10.0096 8.56232 10.0229 8.49991 10.0229C8.43751 10.0229 8.37582 10.0096 8.319 9.98377C8.26218 9.95797 8.21154 9.9203 8.17048 9.87331L8.17048 9.87375Z" fill="white"/>
</svg>
