<svg width="10" height="10" viewBox="0 0 10 10" fill="none" xmlns="http://www.w3.org/2000/svg">
<path fill-rule="evenodd" clip-rule="evenodd" d="M0.103021 6.51154C0.0630672 6.45938 0.0338371 6.39983 0.0170171 6.33632C-0.0169953 6.20786 0.000991249 6.07116 0.0670782 5.95586C0.408973 5.36498 0.408973 4.63642 0.0670782 4.04553C0.000741939 3.93043 -0.0172752 3.79373 0.0169728 3.66537C0.0512207 3.53701 0.134942 3.42745 0.249801 3.3607C0.839617 3.01978 1.20597 2.38844 1.20597 1.70718C1.20597 1.57441 1.25871 1.44708 1.35259 1.3532C1.44647 1.25931 1.57381 1.20657 1.70658 1.20657C2.38783 1.20657 3.01917 0.84022 3.36009 0.250404C3.42656 0.135513 3.53594 0.0517224 3.66418 0.0174574C3.79241 -0.0168076 3.92901 0.00125781 4.04393 0.0676816C4.63524 0.409646 5.36466 0.409646 5.95626 0.0681822C6.01313 0.0351107 6.076 0.0136564 6.14122 0.00506301C6.20644 -0.00353035 6.27273 0.000908106 6.33622 0.0181211C6.46424 0.0529163 6.5734 0.136724 6.64009 0.251406C6.9809 0.841263 7.61187 1.20707 8.29311 1.20707C8.42588 1.20707 8.55321 1.25981 8.64709 1.3537C8.74097 1.44758 8.79372 1.57491 8.79372 1.70768C8.79372 2.38925 9.1598 3.02062 9.74988 3.3617C9.86477 3.42817 9.94856 3.53755 9.98283 3.66578C10.0171 3.79402 9.99903 3.93061 9.9326 4.04553C9.59068 4.63647 9.59054 5.36521 9.9321 5.95636C9.96507 6.01328 9.9865 6.07615 9.99516 6.14136C10.0038 6.20657 9.99954 6.27284 9.98257 6.3364C9.9656 6.39995 9.93627 6.45954 9.89626 6.51175C9.85625 6.56397 9.80634 6.60778 9.74938 6.6407C9.15957 6.98161 8.79321 7.61296 8.79321 8.29421C8.79321 8.42698 8.74047 8.55431 8.64659 8.64819C8.55271 8.74208 8.42537 8.79482 8.29261 8.79482C7.61139 8.79482 6.98026 9.16107 6.63959 9.75099C6.57303 9.86578 6.46365 9.94948 6.33545 9.98373C6.20726 10.018 6.07071 10 5.95576 9.93371C5.36477 9.59211 4.63539 9.59158 4.04443 9.93321C3.96733 9.97776 3.88073 10.0008 3.79362 10.0008C3.70585 10.0003 3.61972 9.97694 3.54371 9.93306C3.46769 9.88917 3.40441 9.82625 3.36009 9.75049C3.01917 9.16067 2.38783 8.79432 1.70658 8.79432C1.57381 8.79432 1.44647 8.74158 1.35259 8.64769C1.25871 8.55381 1.20597 8.42648 1.20597 8.29371C1.20597 7.61245 0.839617 6.98111 0.249801 6.64019C0.192861 6.60742 0.142975 6.56369 0.103021 6.51154Z" fill="url(#paint0_linear_0_1)"/>
<path d="M3.16 4.355C3.16 4.23833 3.18167 4.12833 3.225 4.025C3.27167 3.92167 3.33333 3.83167 3.41 3.755C3.49 3.675 3.58167 3.61333 3.685 3.57C3.79167 3.52333 3.90667 3.5 4.03 3.5C4.15 3.5 4.26333 3.52333 4.37 3.57C4.47667 3.61333 4.56833 3.675 4.645 3.755C4.72167 3.83167 4.78167 3.92167 4.825 4.025C4.87167 4.12833 4.895 4.23833 4.895 4.355C4.895 4.47167 4.87167 4.58167 4.825 4.685C4.78167 4.78833 4.72167 4.88 4.645 4.96C4.56833 5.03667 4.47667 5.09833 4.37 5.145C4.26333 5.18833 4.15 5.21 4.03 5.21C3.90667 5.21 3.79167 5.18833 3.685 5.145C3.58167 5.09833 3.49 5.03667 3.41 4.96C3.33333 4.88 3.27167 4.78833 3.225 4.685C3.18167 4.58167 3.16 4.47167 3.16 4.355ZM3.615 4.355C3.615 4.48167 3.655 4.58667 3.735 4.67C3.815 4.75333 3.91333 4.795 4.03 4.795C4.14667 4.795 4.245 4.75333 4.325 4.67C4.405 4.58667 4.445 4.48167 4.445 4.355C4.445 4.225 4.405 4.12 4.325 4.04C4.245 3.95667 4.14667 3.915 4.03 3.915C3.91333 3.915 3.815 3.95667 3.735 4.04C3.655 4.12 3.615 4.225 3.615 4.355ZM3.785 6.835L6.01 3.52L6.345 3.75L4.125 7.06L3.785 6.835ZM5.24 6.225C5.24 6.10833 5.26167 5.99833 5.305 5.895C5.35167 5.79167 5.41333 5.70167 5.49 5.625C5.57 5.545 5.66167 5.48333 5.765 5.44C5.87167 5.39333 5.98667 5.37 6.11 5.37C6.23 5.37 6.34333 5.39333 6.45 5.44C6.55667 5.48333 6.64833 5.545 6.725 5.625C6.80167 5.70167 6.86167 5.79167 6.905 5.895C6.95167 5.99833 6.975 6.10833 6.975 6.225C6.975 6.34167 6.95167 6.45167 6.905 6.555C6.86167 6.65833 6.80167 6.75 6.725 6.83C6.64833 6.90667 6.55667 6.96667 6.45 7.01C6.34333 7.05667 6.23 7.08 6.11 7.08C5.98667 7.08 5.87167 7.05667 5.765 7.01C5.66167 6.96667 5.57 6.90667 5.49 6.83C5.41333 6.75 5.35167 6.65833 5.305 6.555C5.26167 6.45167 5.24 6.34167 5.24 6.225ZM5.695 6.225C5.695 6.35167 5.735 6.45667 5.815 6.54C5.895 6.62333 5.99333 6.665 6.11 6.665C6.22667 6.665 6.325 6.62333 6.405 6.54C6.485 6.45667 6.525 6.35167 6.525 6.225C6.525 6.095 6.485 5.99 6.405 5.91C6.325 5.82667 6.22667 5.785 6.11 5.785C5.99333 5.785 5.895 5.82667 5.815 5.91C5.735 5.99 5.695 6.095 5.695 6.225Z" fill="white"/>
<defs>
<linearGradient id="paint0_linear_0_1" x1="4.9999" y1="0.000488281" x2="8.16339" y2="10.0007" gradientUnits="userSpaceOnUse">
<stop stop-color="#FF3269"/>
<stop offset="1" stop-color="#FF794D"/>
</linearGradient>
</defs>
</svg>
