<svg width="11" height="10" viewBox="0 0 11 10" fill="none" xmlns="http://www.w3.org/2000/svg">
<path d="M7.79207 8.75V7.91667C7.79207 7.47464 7.59892 7.05072 7.2551 6.73816C6.91129 6.4256 6.44497 6.25 5.95874 6.25H2.29207C1.80584 6.25 1.33953 6.4256 0.995711 6.73816C0.651894 7.05072 0.45874 7.47464 0.45874 7.91667V8.75" stroke="#8500E2" stroke-linecap="round" stroke-linejoin="round"/>
<path d="M4.12459 4.58333C5.13712 4.58333 5.95793 3.83714 5.95793 2.91667C5.95793 1.99619 5.13712 1.25 4.12459 1.25C3.11207 1.25 2.29126 1.99619 2.29126 2.91667C2.29126 3.83714 3.11207 4.58333 4.12459 4.58333Z" stroke="#8500E2" stroke-linecap="round" stroke-linejoin="round"/>
<path d="M10.5413 8.75003V7.9167C10.541 7.54742 10.4058 7.18869 10.1569 6.89683C9.90802 6.60497 9.55957 6.39652 9.16626 6.3042" stroke="#8500E2" stroke-linecap="round" stroke-linejoin="round"/>
<path d="M7.33374 1.3042C7.7281 1.39599 8.07763 1.60449 8.32724 1.89683C8.57685 2.18917 8.71233 2.54871 8.71233 2.91878C8.71233 3.28885 8.57685 3.6484 8.32724 3.94074C8.07763 4.23307 7.7281 4.44157 7.33374 4.53337" stroke="#8500E2" stroke-linecap="round" stroke-linejoin="round"/>
</svg>
