<svg width="14" height="14" viewBox="0 0 14 14" fill="none" xmlns="http://www.w3.org/2000/svg">
<path d="M9.47739 4.7086L6.51838 8.85083C6.48438 8.89847 6.46351 8.95421 6.45788 9.01247C6.45226 9.07073 6.46207 9.12944 6.48633 9.1827L8.54212 13.687C8.72692 14.1056 9.32984 14.0778 9.47409 13.6431L13.7167 0.915209C13.746 0.827168 13.7502 0.732723 13.7288 0.642439C13.7074 0.552157 13.6614 0.469597 13.5958 0.403995C13.5302 0.338393 13.4476 0.292337 13.3573 0.270979C13.2671 0.249621 13.1726 0.253802 13.0846 0.283056L0.356657 4.5257C-0.0775069 4.67042 -0.10532 5.27334 0.312816 5.45766L4.81756 7.51299C4.87082 7.53725 4.92953 7.54706 4.98779 7.54143C5.04604 7.53581 5.10179 7.51494 5.14943 7.48093L9.29166 4.52192C9.31734 4.50331 9.34882 4.49446 9.38044 4.49697C9.41206 4.49948 9.44175 4.51318 9.46418 4.53561C9.48661 4.55804 9.50031 4.58773 9.50282 4.61935C9.50532 4.65097 9.49648 4.68245 9.47786 4.70813L9.47739 4.7086Z" fill="black"/>
</svg>
