<svg width="605" height="363" viewBox="0 0 605 363" fill="none" xmlns="http://www.w3.org/2000/svg">
<rect x="63" y="362" width="90" height="12" transform="rotate(-90 63 362)" fill="#FFA1B5"/>
<rect x="51" y="362" width="134" height="12" transform="rotate(-90 51 362)" fill="#86C7F3"/>
<rect x="119" y="362" width="148" height="12" transform="rotate(-90 119 362)" fill="#FFA1B5"/>
<rect x="107" y="362" width="220" height="12" transform="rotate(-90 107 362)" fill="#86C7F3"/>
<rect x="175" y="362" width="40" height="12" transform="rotate(-90 175 362)" fill="#FFA1B5"/>
<rect x="343" y="362" width="70" height="12" transform="rotate(-90 343 362)" fill="#FFA1B5"/>
<rect x="399" y="362" width="57" height="12" transform="rotate(-90 399 362)" fill="#FFA1B5"/>
<rect x="455" y="362" width="100" height="12" transform="rotate(-90 455 362)" fill="#FFA1B5"/>
<rect x="511" y="362" width="130" height="12" transform="rotate(-90 511 362)" fill="#FFA1B5"/>
<rect x="567" y="362" width="70" height="12" transform="rotate(-90 567 362)" fill="#FFA1B5"/>
<rect x="231" y="362" width="57" height="12" transform="rotate(-90 231 362)" fill="#FFA1B5"/>
<rect x="287" y="362" width="83" height="12" transform="rotate(-90 287 362)" fill="#FFA1B5"/>
<rect x="163" y="362" width="134" height="12" transform="rotate(-90 163 362)" fill="#86C7F3"/>
<rect x="219" y="362" width="190" height="12" transform="rotate(-90 219 362)" fill="#86C7F3"/>
<rect x="387" y="362" width="220" height="12" transform="rotate(-90 387 362)" fill="#86C7F3"/>
<rect x="443" y="362" width="250" height="12" transform="rotate(-90 443 362)" fill="#86C7F3"/>
<rect x="499" y="362" width="190" height="12" transform="rotate(-90 499 362)" fill="#86C7F3"/>
<rect x="331" y="362" width="118" height="12" transform="rotate(-90 331 362)" fill="#86C7F3"/>
<rect x="555" y="362" width="226" height="12" transform="rotate(-90 555 362)" fill="#86C7F3"/>
<rect x="275" y="362" width="275" height="12" transform="rotate(-90 275 362)" fill="#86C7F3"/>
<line opacity="0.5" x1="25.25" y1="121.75" x2="604.75" y2="121.75" stroke="#BDBDBD" stroke-width="0.5" stroke-linecap="square"/>
<line opacity="0.5" x1="25.25" y1="91.75" x2="604.75" y2="91.75" stroke="#BDBDBD" stroke-width="0.5" stroke-linecap="square"/>
<line opacity="0.5" x1="25.25" y1="61.75" x2="604.75" y2="61.75" stroke="#BDBDBD" stroke-width="0.5" stroke-linecap="square"/>
<line opacity="0.5" x1="32.75" y1="361.75" x2="32.75" y2="62.25" stroke="#BDBDBD" stroke-width="0.5" stroke-linecap="square"/>
<line opacity="0.5" x1="25.25" y1="151.75" x2="604.75" y2="151.75" stroke="#BDBDBD" stroke-width="0.5" stroke-linecap="square"/>
<line opacity="0.5" x1="25.25" y1="181.75" x2="604.75" y2="181.75" stroke="#BDBDBD" stroke-width="0.5" stroke-linecap="square"/>
<line opacity="0.5" x1="25.25" y1="211.75" x2="604.75" y2="211.75" stroke="#BDBDBD" stroke-width="0.5" stroke-linecap="square"/>
<line opacity="0.5" x1="25.25" y1="241.75" x2="604.75" y2="241.75" stroke="#BDBDBD" stroke-width="0.5" stroke-linecap="square"/>
<line opacity="0.5" x1="25.25" y1="271.75" x2="604.75" y2="271.75" stroke="#BDBDBD" stroke-width="0.5" stroke-linecap="square"/>
<line opacity="0.5" x1="25.25" y1="301.75" x2="604.75" y2="301.75" stroke="#BDBDBD" stroke-width="0.5" stroke-linecap="square"/>
<line opacity="0.5" x1="25.25" y1="331.75" x2="604.75" y2="331.75" stroke="#BDBDBD" stroke-width="0.5" stroke-linecap="square"/>
<line opacity="0.5" x1="25.25" y1="361.75" x2="604.75" y2="361.75" stroke="#BDBDBD" stroke-width="0.5" stroke-linecap="square"/>
<path d="M1.29938 118.58C1.29938 117.54 1.55604 116.683 2.06938 116.01C2.58271 115.337 3.24271 115 4.04938 115C4.85604 115 5.51604 115.34 6.02938 116.02C6.54271 116.693 6.79938 117.547 6.79938 118.58C6.79938 119.607 6.54271 120.463 6.02938 121.15C5.51604 121.823 4.85604 122.16 4.04938 122.16C3.24271 122.16 2.58271 121.823 2.06938 121.15C1.55604 120.463 1.29938 119.607 1.29938 118.58ZM5.85938 118.58C5.85938 117.793 5.69271 117.147 5.35938 116.64C5.03271 116.133 4.59604 115.88 4.04938 115.88C3.50271 115.88 3.06604 116.133 2.73938 116.64C2.40604 117.147 2.23938 117.793 2.23938 118.58C2.23938 119.367 2.40604 120.017 2.73938 120.53C3.06604 121.03 3.50271 121.28 4.04938 121.28C4.59604 121.28 5.03271 121.027 5.35938 120.52C5.69271 120.007 5.85938 119.36 5.85938 118.58ZM9.07633 121.38C9.07633 121.567 9.00966 121.727 8.87633 121.86C8.74966 121.993 8.58966 122.06 8.39633 122.06C8.20966 122.06 8.04966 121.993 7.91633 121.86C7.78299 121.727 7.71633 121.567 7.71633 121.38C7.71633 121.187 7.78299 121.027 7.91633 120.9C8.04966 120.767 8.20966 120.7 8.39633 120.7C8.58966 120.7 8.74966 120.767 8.87633 120.9C9.00966 121.027 9.07633 121.187 9.07633 121.38ZM14.6005 120.11C14.6005 120.697 14.3772 121.183 13.9305 121.57C13.4772 121.963 12.9272 122.16 12.2805 122.16C11.6339 122.16 11.0839 121.963 10.6305 121.57C10.1839 121.183 9.96055 120.697 9.96055 120.11C9.96055 119.75 10.0572 119.423 10.2505 119.13C10.4439 118.83 10.7205 118.593 11.0805 118.42V118.38C10.8139 118.207 10.5972 117.993 10.4305 117.74C10.2705 117.487 10.1905 117.22 10.1905 116.94C10.1905 116.387 10.3872 115.923 10.7805 115.55C11.1672 115.183 11.6672 115 12.2805 115C12.8939 115 13.3939 115.183 13.7805 115.55C14.1739 115.923 14.3705 116.387 14.3705 116.94C14.3705 117.22 14.2872 117.487 14.1205 117.74C13.9605 117.993 13.7472 118.207 13.4805 118.38V118.42C13.8405 118.593 14.1172 118.83 14.3105 119.13C14.5039 119.423 14.6005 119.75 14.6005 120.11ZM11.1305 116.92C11.1305 117.24 11.2372 117.5 11.4505 117.7C11.6639 117.893 11.9405 117.99 12.2805 117.99C12.6205 117.99 12.8972 117.893 13.1105 117.7C13.3239 117.5 13.4305 117.24 13.4305 116.92C13.4305 116.6 13.3239 116.347 13.1105 116.16C12.8972 115.973 12.6205 115.88 12.2805 115.88C11.9405 115.88 11.6639 115.973 11.4505 116.16C11.2372 116.347 11.1305 116.6 11.1305 116.92ZM10.9005 120.06C10.9005 120.24 10.9339 120.403 11.0005 120.55C11.0739 120.697 11.1705 120.827 11.2905 120.94C11.4172 121.047 11.5639 121.13 11.7305 121.19C11.8972 121.25 12.0805 121.28 12.2805 121.28C12.4805 121.28 12.6639 121.25 12.8305 121.19C12.9972 121.13 13.1405 121.047 13.2605 120.94C13.3872 120.827 13.4839 120.697 13.5505 120.55C13.6239 120.403 13.6605 120.24 13.6605 120.06C13.6605 119.713 13.5272 119.427 13.2605 119.2C12.9939 118.967 12.6672 118.85 12.2805 118.85C11.8939 118.85 11.5639 118.967 11.2905 119.2C11.0305 119.433 10.9005 119.72 10.9005 120.06Z" fill="#828282"/>
<path d="M1.25055 88.58C1.25055 87.54 1.50721 86.6833 2.02055 86.01C2.53388 85.3367 3.19388 85 4.00055 85C4.80721 85 5.46721 85.34 5.98055 86.02C6.49388 86.6933 6.75055 87.5467 6.75055 88.58C6.75055 89.6067 6.49388 90.4633 5.98055 91.15C5.46721 91.8233 4.80721 92.16 4.00055 92.16C3.19388 92.16 2.53388 91.8233 2.02055 91.15C1.50721 90.4633 1.25055 89.6067 1.25055 88.58ZM5.81055 88.58C5.81055 87.7933 5.64388 87.1467 5.31055 86.64C4.98388 86.1333 4.54721 85.88 4.00055 85.88C3.45388 85.88 3.01721 86.1333 2.69055 86.64C2.35721 87.1467 2.19055 87.7933 2.19055 88.58C2.19055 89.3667 2.35721 90.0167 2.69055 90.53C3.01721 91.03 3.45388 91.28 4.00055 91.28C4.54721 91.28 4.98388 91.0267 5.31055 90.52C5.64388 90.0067 5.81055 89.36 5.81055 88.58ZM9.0275 91.38C9.0275 91.5667 8.96083 91.7267 8.8275 91.86C8.70083 91.9933 8.54083 92.06 8.3475 92.06C8.16083 92.06 8.00083 91.9933 7.8675 91.86C7.73417 91.7267 7.6675 91.5667 7.6675 91.38C7.6675 91.1867 7.73417 91.0267 7.8675 90.9C8.00083 90.7667 8.16083 90.7 8.3475 90.7C8.54083 90.7 8.70083 90.7667 8.8275 90.9C8.96083 91.0267 9.0275 91.1867 9.0275 91.38ZM12.0517 89.5C11.5051 89.5 11.0084 89.2833 10.5617 88.85C10.1284 88.4033 9.91172 87.8833 9.91172 87.29C9.91172 86.67 10.1451 86.1367 10.6117 85.69C11.0784 85.23 11.6251 85 12.2517 85C12.9117 85 13.4684 85.2267 13.9217 85.68C14.3751 86.1333 14.6017 86.67 14.6017 87.29C14.6017 87.8433 14.3784 88.4733 13.9317 89.18L11.9417 92.16L11.2017 91.65L12.8917 89.31L12.8717 89.29C12.6584 89.43 12.3851 89.5 12.0517 89.5ZM13.6717 87.28C13.6717 86.8933 13.5317 86.5633 13.2517 86.29C12.9784 86.0167 12.6451 85.88 12.2517 85.88C11.8584 85.88 11.5251 86.0167 11.2517 86.29C10.9784 86.5633 10.8417 86.8933 10.8417 87.28C10.8417 87.6667 10.9784 87.9967 11.2517 88.27C11.5384 88.5433 11.8717 88.68 12.2517 88.68C12.6317 88.68 12.9651 88.5433 13.2517 88.27C13.5317 88.0033 13.6717 87.6733 13.6717 87.28Z" fill="#828282"/>
<path d="M5.46094 55.16V62H4.54094V56.3L3.21094 56.88L2.86094 56.1L4.87094 55.16H5.46094ZM8.13883 61.38C8.13883 61.5667 8.07216 61.7267 7.93883 61.86C7.81216 61.9933 7.65216 62.06 7.45883 62.06C7.27216 62.06 7.11216 61.9933 6.97883 61.86C6.84549 61.7267 6.77883 61.5667 6.77883 61.38C6.77883 61.1867 6.84549 61.0267 6.97883 60.9C7.11216 60.7667 7.27216 60.7 7.45883 60.7C7.65216 60.7 7.81216 60.7667 7.93883 60.9C8.07216 61.0267 8.13883 61.1867 8.13883 61.38ZM9.06305 58.58C9.06305 57.54 9.31971 56.6833 9.83305 56.01C10.3464 55.3367 11.0064 55 11.813 55C12.6197 55 13.2797 55.34 13.793 56.02C14.3064 56.6933 14.563 57.5467 14.563 58.58C14.563 59.6067 14.3064 60.4633 13.793 61.15C13.2797 61.8233 12.6197 62.16 11.813 62.16C11.0064 62.16 10.3464 61.8233 9.83305 61.15C9.31971 60.4633 9.06305 59.6067 9.06305 58.58ZM13.623 58.58C13.623 57.7933 13.4564 57.1467 13.123 56.64C12.7964 56.1333 12.3597 55.88 11.813 55.88C11.2664 55.88 10.8297 56.1333 10.503 56.64C10.1697 57.1467 10.003 57.7933 10.003 58.58C10.003 59.3667 10.1697 60.0167 10.503 60.53C10.8297 61.03 11.2664 61.28 11.813 61.28C12.3597 61.28 12.7964 61.0267 13.123 60.52C13.4564 60.0067 13.623 59.36 13.623 58.58Z" fill="#828282"/>
<path d="M74.9 5.84V6.72H71.64V8.99H74.58V9.85H71.64V12.12H74.9V13H70.72V5.84H74.9ZM78.2123 10.51L79.9623 13H78.8823L77.6723 11.19L76.4823 13H75.4023L77.1323 10.51L75.4423 8.1H76.4823L77.6923 9.83L78.8423 8.1H79.9223L78.2123 10.51ZM82.9991 12.32C83.4391 12.32 83.8091 12.1533 84.1091 11.82C84.4091 11.4933 84.5591 11.07 84.5591 10.55C84.5591 10.0367 84.4091 9.61333 84.1091 9.28C83.8091 8.94667 83.4391 8.78 82.9991 8.78C82.5524 8.78 82.1791 8.94667 81.8791 9.28C81.5857 9.61333 81.4391 10.0367 81.4391 10.55C81.4391 11.07 81.5857 11.4967 81.8791 11.83C82.1791 12.1567 82.5524 12.32 82.9991 12.32ZM83.1491 13.16C82.7891 13.16 82.4591 13.0833 82.1591 12.93C81.8657 12.7767 81.6391 12.5733 81.4791 12.32H81.4391L81.4791 13V15.16H80.5591V8.1H81.4391V8.78H81.4791C81.6391 8.52667 81.8657 8.32333 82.1591 8.17C82.4591 8.01667 82.7891 7.94 83.1491 7.94C83.7957 7.94 84.3424 8.19333 84.7891 8.7C85.2491 9.21333 85.4791 9.83 85.4791 10.55C85.4791 11.2767 85.2491 11.8933 84.7891 12.4C84.3424 12.9067 83.7957 13.16 83.1491 13.16ZM88.5217 13.16C87.8017 13.16 87.2084 12.9133 86.7417 12.42C86.2751 11.9267 86.0417 11.3033 86.0417 10.55C86.0417 9.80333 86.2684 9.18333 86.7217 8.69C87.1751 8.19 87.7551 7.94 88.4617 7.94C89.1884 7.94 89.7651 8.17667 90.1917 8.65C90.6251 9.11667 90.8417 9.77333 90.8417 10.62L90.8317 10.72H86.9817C86.9951 11.2 87.1551 11.5867 87.4617 11.88C87.7684 12.1733 88.1351 12.32 88.5617 12.32C89.1484 12.32 89.6084 12.0267 89.9417 11.44L90.7617 11.84C90.5417 12.2533 90.2351 12.5767 89.8417 12.81C89.4551 13.0433 89.0151 13.16 88.5217 13.16ZM87.0517 9.96H89.8617C89.8351 9.62 89.6951 9.34 89.4417 9.12C89.1951 8.89333 88.8617 8.78 88.4417 8.78C88.0951 8.78 87.7951 8.88667 87.5417 9.1C87.2951 9.31333 87.1317 9.6 87.0517 9.96ZM91.683 8.1H92.563V8.78H92.603C92.743 8.54 92.9564 8.34 93.243 8.18C93.5364 8.02 93.8397 7.94 94.153 7.94C94.753 7.94 95.213 8.11333 95.533 8.46C95.8597 8.8 96.023 9.28667 96.023 9.92V13H95.103V9.98C95.083 9.18 94.6797 8.78 93.893 8.78C93.5264 8.78 93.2197 8.93 92.973 9.23C92.7264 9.52333 92.603 9.87667 92.603 10.29V13H91.683V8.1ZM100.804 11.64C100.804 12.0667 100.617 12.4267 100.244 12.72C99.8708 13.0133 99.4008 13.16 98.8341 13.16C98.3408 13.16 97.9075 13.0333 97.5341 12.78C97.1608 12.52 96.8941 12.18 96.7341 11.76L97.5541 11.41C97.6741 11.7033 97.8475 11.9333 98.0741 12.1C98.3075 12.26 98.5608 12.34 98.8341 12.34C99.1275 12.34 99.3708 12.2767 99.5641 12.15C99.7641 12.0233 99.8641 11.8733 99.8641 11.7C99.8641 11.3867 99.6241 11.1567 99.1441 11.01L98.3041 10.8C97.3508 10.56 96.8741 10.1 96.8741 9.42C96.8741 8.97333 97.0541 8.61667 97.4141 8.35C97.7808 8.07667 98.2475 7.94 98.8141 7.94C99.2475 7.94 99.6375 8.04333 99.9841 8.25C100.337 8.45667 100.584 8.73333 100.724 9.08L99.9041 9.42C99.8108 9.21333 99.6575 9.05333 99.4441 8.94C99.2375 8.82 99.0041 8.76 98.7441 8.76C98.5041 8.76 98.2875 8.82 98.0941 8.94C97.9075 9.06 97.8141 9.20667 97.8141 9.38C97.8141 9.66 98.0775 9.86 98.6041 9.98L99.3441 10.17C100.317 10.41 100.804 10.9 100.804 11.64ZM103.854 13.16C103.134 13.16 102.54 12.9133 102.074 12.42C101.607 11.9267 101.374 11.3033 101.374 10.55C101.374 9.80333 101.6 9.18333 102.054 8.69C102.507 8.19 103.087 7.94 103.794 7.94C104.52 7.94 105.097 8.17667 105.524 8.65C105.957 9.11667 106.174 9.77333 106.174 10.62L106.164 10.72H102.314C102.327 11.2 102.487 11.5867 102.794 11.88C103.1 12.1733 103.467 12.32 103.894 12.32C104.48 12.32 104.94 12.0267 105.274 11.44L106.094 11.84C105.874 12.2533 105.567 12.5767 105.174 12.81C104.787 13.0433 104.347 13.16 103.854 13.16ZM102.384 9.96H105.194C105.167 9.62 105.027 9.34 104.774 9.12C104.527 8.89333 104.194 8.78 103.774 8.78C103.427 8.78 103.127 8.88667 102.874 9.1C102.627 9.31333 102.464 9.6 102.384 9.96Z" fill="#828282"/>
<path d="M208.64 13H207.72V5.84H208.64V13ZM209.923 8.1H210.803V8.78H210.843C210.983 8.54 211.197 8.34 211.483 8.18C211.777 8.02 212.08 7.94 212.393 7.94C212.993 7.94 213.453 8.11333 213.773 8.46C214.1 8.8 214.263 9.28667 214.263 9.92V13H213.343V9.98C213.323 9.18 212.92 8.78 212.133 8.78C211.767 8.78 211.46 8.93 211.213 9.23C210.967 9.52333 210.843 9.87667 210.843 10.29V13H209.923V8.1ZM217.583 13.16C216.857 13.16 216.253 12.9133 215.773 12.42C215.3 11.9133 215.063 11.29 215.063 10.55C215.063 9.79667 215.3 9.17333 215.773 8.68C216.253 8.18667 216.857 7.94 217.583 7.94C218.083 7.94 218.52 8.06667 218.893 8.32C219.267 8.56667 219.547 8.91 219.733 9.35L218.893 9.7C218.633 9.08667 218.177 8.78 217.523 8.78C217.103 8.78 216.74 8.95 216.433 9.29C216.133 9.63 215.983 10.05 215.983 10.55C215.983 11.05 216.133 11.47 216.433 11.81C216.74 12.15 217.103 12.32 217.523 12.32C218.197 12.32 218.67 12.0133 218.943 11.4L219.763 11.75C219.583 12.19 219.3 12.5367 218.913 12.79C218.533 13.0367 218.09 13.16 217.583 13.16ZM220.239 10.55C220.239 9.79667 220.476 9.17333 220.949 8.68C221.429 8.18667 222.032 7.94 222.759 7.94C223.486 7.94 224.086 8.18667 224.559 8.68C225.039 9.17333 225.279 9.79667 225.279 10.55C225.279 11.31 225.039 11.9333 224.559 12.42C224.086 12.9133 223.486 13.16 222.759 13.16C222.032 13.16 221.429 12.9133 220.949 12.42C220.476 11.9267 220.239 11.3033 220.239 10.55ZM221.159 10.55C221.159 11.0767 221.312 11.5033 221.619 11.83C221.926 12.1567 222.306 12.32 222.759 12.32C223.212 12.32 223.592 12.1567 223.899 11.83C224.206 11.5033 224.359 11.0767 224.359 10.55C224.359 10.03 224.206 9.60667 223.899 9.28C223.586 8.94667 223.206 8.78 222.759 8.78C222.312 8.78 221.932 8.94667 221.619 9.28C221.312 9.60667 221.159 10.03 221.159 10.55ZM226.937 13H226.017V8.1H226.897V8.78H226.937C227.077 8.54 227.29 8.34 227.577 8.18C227.87 8.02 228.16 7.94 228.447 7.94C228.807 7.94 229.124 8.02333 229.397 8.19C229.67 8.35667 229.87 8.58667 229.997 8.88C230.404 8.25333 230.967 7.94 231.687 7.94C232.254 7.94 232.69 8.11333 232.997 8.46C233.304 8.80667 233.457 9.3 233.457 9.94V13H232.537V10.08C232.537 9.62 232.454 9.29 232.287 9.09C232.12 8.88333 231.84 8.78 231.447 8.78C231.094 8.78 230.797 8.93 230.557 9.23C230.317 9.53 230.197 9.88333 230.197 10.29V13H229.277V10.08C229.277 9.62 229.194 9.29 229.027 9.09C228.86 8.88333 228.58 8.78 228.187 8.78C227.834 8.78 227.537 8.93 227.297 9.23C227.057 9.53 226.937 9.88333 226.937 10.29V13ZM236.733 13.16C236.013 13.16 235.419 12.9133 234.953 12.42C234.486 11.9267 234.253 11.3033 234.253 10.55C234.253 9.80333 234.479 9.18333 234.933 8.69C235.386 8.19 235.966 7.94 236.673 7.94C237.399 7.94 237.976 8.17667 238.403 8.65C238.836 9.11667 239.053 9.77333 239.053 10.62L239.043 10.72H235.193C235.206 11.2 235.366 11.5867 235.673 11.88C235.979 12.1733 236.346 12.32 236.773 12.32C237.359 12.32 237.819 12.0267 238.153 11.44L238.973 11.84C238.753 12.2533 238.446 12.5767 238.053 12.81C237.666 13.0433 237.226 13.16 236.733 13.16ZM235.263 9.96H238.073C238.046 9.62 237.906 9.34 237.653 9.12C237.406 8.89333 237.073 8.78 236.653 8.78C236.306 8.78 236.006 8.88667 235.753 9.1C235.506 9.31333 235.343 9.6 235.263 9.96Z" fill="#828282"/>
<path d="M1.50445 148.58C1.50445 147.54 1.76112 146.683 2.27445 146.01C2.78779 145.337 3.44779 145 4.25445 145C5.06112 145 5.72112 145.34 6.23445 146.02C6.74779 146.693 7.00445 147.547 7.00445 148.58C7.00445 149.607 6.74779 150.463 6.23445 151.15C5.72112 151.823 5.06112 152.16 4.25445 152.16C3.44779 152.16 2.78779 151.823 2.27445 151.15C1.76112 150.463 1.50445 149.607 1.50445 148.58ZM6.06445 148.58C6.06445 147.793 5.89779 147.147 5.56445 146.64C5.23779 146.133 4.80112 145.88 4.25445 145.88C3.70779 145.88 3.27112 146.133 2.94445 146.64C2.61112 147.147 2.44445 147.793 2.44445 148.58C2.44445 149.367 2.61112 150.017 2.94445 150.53C3.27112 151.03 3.70779 151.28 4.25445 151.28C4.80112 151.28 5.23779 151.027 5.56445 150.52C5.89779 150.007 6.06445 149.36 6.06445 148.58ZM9.28141 151.38C9.28141 151.567 9.21474 151.727 9.08141 151.86C8.95474 151.993 8.79474 152.06 8.60141 152.06C8.41474 152.06 8.25474 151.993 8.12141 151.86C7.98807 151.727 7.92141 151.567 7.92141 151.38C7.92141 151.187 7.98807 151.027 8.12141 150.9C8.25474 150.767 8.41474 150.7 8.60141 150.7C8.79474 150.7 8.95474 150.767 9.08141 150.9C9.21474 151.027 9.28141 151.187 9.28141 151.38ZM14.5956 146.1L11.2756 152.16L10.4556 151.74L13.6256 146.04H10.1656L10.1856 145.16H14.5956V146.1Z" fill="#828282"/>
<path d="M1.25055 178.58C1.25055 177.54 1.50721 176.683 2.02055 176.01C2.53388 175.337 3.19388 175 4.00055 175C4.80721 175 5.46721 175.34 5.98055 176.02C6.49388 176.693 6.75055 177.547 6.75055 178.58C6.75055 179.607 6.49388 180.463 5.98055 181.15C5.46721 181.823 4.80721 182.16 4.00055 182.16C3.19388 182.16 2.53388 181.823 2.02055 181.15C1.50721 180.463 1.25055 179.607 1.25055 178.58ZM5.81055 178.58C5.81055 177.793 5.64388 177.147 5.31055 176.64C4.98388 176.133 4.54721 175.88 4.00055 175.88C3.45388 175.88 3.01721 176.133 2.69055 176.64C2.35721 177.147 2.19055 177.793 2.19055 178.58C2.19055 179.367 2.35721 180.017 2.69055 180.53C3.01721 181.03 3.45388 181.28 4.00055 181.28C4.54721 181.28 4.98388 181.027 5.31055 180.52C5.64388 180.007 5.81055 179.36 5.81055 178.58ZM9.0275 181.38C9.0275 181.567 8.96083 181.727 8.8275 181.86C8.70083 181.993 8.54083 182.06 8.3475 182.06C8.16083 182.06 8.00083 181.993 7.8675 181.86C7.73417 181.727 7.6675 181.567 7.6675 181.38C7.6675 181.187 7.73417 181.027 7.8675 180.9C8.00083 180.767 8.16083 180.7 8.3475 180.7C8.54083 180.7 8.70083 180.767 8.8275 180.9C8.96083 181.027 9.0275 181.187 9.0275 181.38ZM12.4617 177.66C13.0151 177.66 13.5084 177.88 13.9417 178.32C14.3817 178.753 14.6017 179.27 14.6017 179.87C14.6017 180.483 14.3684 181.02 13.9017 181.48C13.4284 181.933 12.8817 182.16 12.2617 182.16C11.6017 182.16 11.0451 181.933 10.5917 181.48C10.1384 181.027 9.91172 180.49 9.91172 179.87C9.91172 179.317 10.1351 178.687 10.5817 177.98L12.5717 175L13.3117 175.51L11.6217 177.85L11.6417 177.87C11.8484 177.73 12.1217 177.66 12.4617 177.66ZM10.8417 179.88C10.8417 180.273 10.9784 180.607 11.2517 180.88C11.5251 181.147 11.8617 181.28 12.2617 181.28C12.6617 181.28 12.9951 181.147 13.2617 180.88C13.5351 180.607 13.6717 180.273 13.6717 179.88C13.6717 179.493 13.5317 179.163 13.2517 178.89C12.9784 178.617 12.6484 178.48 12.2617 178.48C11.8817 178.48 11.5484 178.617 11.2617 178.89C10.9817 179.163 10.8417 179.493 10.8417 179.88Z" fill="#828282"/>
<path d="M1.19195 208.58C1.19195 207.54 1.44862 206.683 1.96195 206.01C2.47529 205.337 3.13529 205 3.94195 205C4.74862 205 5.40862 205.34 5.92195 206.02C6.43529 206.693 6.69195 207.547 6.69195 208.58C6.69195 209.607 6.43529 210.463 5.92195 211.15C5.40862 211.823 4.74862 212.16 3.94195 212.16C3.13529 212.16 2.47529 211.823 1.96195 211.15C1.44862 210.463 1.19195 209.607 1.19195 208.58ZM5.75195 208.58C5.75195 207.793 5.58529 207.147 5.25195 206.64C4.92529 206.133 4.48862 205.88 3.94195 205.88C3.39529 205.88 2.95862 206.133 2.63195 206.64C2.29862 207.147 2.13195 207.793 2.13195 208.58C2.13195 209.367 2.29862 210.017 2.63195 210.53C2.95862 211.03 3.39529 211.28 3.94195 211.28C4.48862 211.28 4.92529 211.027 5.25195 210.52C5.58529 210.007 5.75195 209.36 5.75195 208.58ZM8.96891 211.38C8.96891 211.567 8.90224 211.727 8.76891 211.86C8.64224 211.993 8.48224 212.06 8.28891 212.06C8.10224 212.06 7.94224 211.993 7.80891 211.86C7.67557 211.727 7.60891 211.567 7.60891 211.38C7.60891 211.187 7.67557 211.027 7.80891 210.9C7.94224 210.767 8.10224 210.7 8.28891 210.7C8.48224 210.7 8.64224 210.767 8.76891 210.9C8.90224 211.027 8.96891 211.187 8.96891 211.38ZM14.5231 209.86C14.5231 210.513 14.2965 211.06 13.8431 211.5C13.3898 211.94 12.8298 212.16 12.1631 212.16C11.6298 212.16 11.1465 211.993 10.7131 211.66C10.2798 211.327 9.99313 210.877 9.85313 210.31L10.6731 209.98C10.7731 210.38 10.9531 210.697 11.2131 210.93C11.4798 211.163 11.7898 211.28 12.1431 211.28C12.5698 211.28 12.9165 211.15 13.1831 210.89C13.4565 210.623 13.5931 210.283 13.5931 209.87C13.5931 209.45 13.4565 209.107 13.1831 208.84C12.9165 208.573 12.5731 208.44 12.1531 208.44C11.6665 208.44 11.2831 208.637 11.0031 209.03L10.0731 208.63L10.5131 205.16H14.1031V206.04H11.2831L11.0331 208L11.0731 208.01C11.4131 207.737 11.8265 207.6 12.3131 207.6C12.9265 207.6 13.4465 207.817 13.8731 208.25C14.3065 208.683 14.5231 209.22 14.5231 209.86Z" fill="#828282"/>
<path d="M0.850156 238.58C0.850156 237.54 1.10682 236.683 1.62016 236.01C2.13349 235.337 2.79349 235 3.60016 235C4.40682 235 5.06682 235.34 5.58016 236.02C6.09349 236.693 6.35016 237.547 6.35016 238.58C6.35016 239.607 6.09349 240.463 5.58016 241.15C5.06682 241.823 4.40682 242.16 3.60016 242.16C2.79349 242.16 2.13349 241.823 1.62016 241.15C1.10682 240.463 0.850156 239.607 0.850156 238.58ZM5.41016 238.58C5.41016 237.793 5.24349 237.147 4.91016 236.64C4.58349 236.133 4.14682 235.88 3.60016 235.88C3.05349 235.88 2.61682 236.133 2.29016 236.64C1.95682 237.147 1.79016 237.793 1.79016 238.58C1.79016 239.367 1.95682 240.017 2.29016 240.53C2.61682 241.03 3.05349 241.28 3.60016 241.28C4.14682 241.28 4.58349 241.027 4.91016 240.52C5.24349 240.007 5.41016 239.36 5.41016 238.58ZM8.62711 241.38C8.62711 241.567 8.56044 241.727 8.42711 241.86C8.30044 241.993 8.14044 242.06 7.94711 242.06C7.76044 242.06 7.60044 241.993 7.46711 241.86C7.33378 241.727 7.26711 241.567 7.26711 241.38C7.26711 241.187 7.33378 241.027 7.46711 240.9C7.60044 240.767 7.76044 240.7 7.94711 240.7C8.14044 240.7 8.30044 240.767 8.42711 240.9C8.56044 241.027 8.62711 241.187 8.62711 241.38ZM13.6813 240.56V242H12.7613V240.56H9.51133V239.86L12.6813 235.16H13.6813V239.7H14.5613V240.56H13.6813ZM10.5513 239.7H12.7613V236.51H12.7213L10.5513 239.7Z" fill="#828282"/>
<path d="M1.42633 268.58C1.42633 267.54 1.68299 266.683 2.19633 266.01C2.70966 265.337 3.36966 265 4.17633 265C4.98299 265 5.643 265.34 6.15633 266.02C6.66966 266.693 6.92633 267.547 6.92633 268.58C6.92633 269.607 6.66966 270.463 6.15633 271.15C5.643 271.823 4.98299 272.16 4.17633 272.16C3.36966 272.16 2.70966 271.823 2.19633 271.15C1.68299 270.463 1.42633 269.607 1.42633 268.58ZM5.98633 268.58C5.98633 267.793 5.81966 267.147 5.48633 266.64C5.15966 266.133 4.72299 265.88 4.17633 265.88C3.62966 265.88 3.19299 266.133 2.86633 266.64C2.53299 267.147 2.36633 267.793 2.36633 268.58C2.36633 269.367 2.53299 270.017 2.86633 270.53C3.19299 271.03 3.62966 271.28 4.17633 271.28C4.72299 271.28 5.15966 271.027 5.48633 270.52C5.81966 270.007 5.98633 269.36 5.98633 268.58ZM9.20328 271.38C9.20328 271.567 9.13661 271.727 9.00328 271.86C8.87661 271.993 8.71661 272.06 8.52328 272.06C8.33661 272.06 8.17661 271.993 8.04328 271.86C7.90995 271.727 7.84328 271.567 7.84328 271.38C7.84328 271.187 7.90995 271.027 8.04328 270.9C8.17661 270.767 8.33661 270.7 8.52328 270.7C8.71661 270.7 8.87661 270.767 9.00328 270.9C9.13661 271.027 9.20328 271.187 9.20328 271.38ZM14.5975 270.06C14.5975 270.66 14.3742 271.16 13.9275 271.56C13.4875 271.96 12.9408 272.16 12.2875 272.16C11.7742 272.16 11.3108 272.007 10.8975 271.7C10.4775 271.38 10.1942 270.963 10.0475 270.45L10.8875 270.1C10.9942 270.48 11.1675 270.773 11.4075 270.98C11.6542 271.18 11.9475 271.28 12.2875 271.28C12.6608 271.28 12.9842 271.163 13.2575 270.93C13.5242 270.69 13.6575 270.4 13.6575 270.06C13.6575 269.72 13.5175 269.433 13.2375 269.2C12.9642 268.967 12.6342 268.85 12.2475 268.85H11.6575V267.99H12.1775C12.5442 267.99 12.8442 267.89 13.0775 267.69C13.3108 267.483 13.4275 267.217 13.4275 266.89C13.4275 266.59 13.3175 266.347 13.0975 266.16C12.8775 265.973 12.5875 265.88 12.2275 265.88C11.6475 265.88 11.2508 266.177 11.0375 266.77L10.1875 266.41C10.3408 265.99 10.5975 265.65 10.9575 265.39C11.3175 265.13 11.7408 265 12.2275 265C12.8342 265 13.3442 265.18 13.7575 265.54C14.1642 265.887 14.3675 266.337 14.3675 266.89C14.3675 267.55 14.0608 268.04 13.4475 268.36V268.4C13.8075 268.553 14.0875 268.777 14.2875 269.07C14.4942 269.363 14.5975 269.693 14.5975 270.06Z" fill="#828282"/>
<path d="M1.54352 298.58C1.54352 297.54 1.80018 296.683 2.31352 296.01C2.82685 295.337 3.48685 295 4.29352 295C5.10018 295 5.76018 295.34 6.27352 296.02C6.78685 296.693 7.04352 297.547 7.04352 298.58C7.04352 299.607 6.78685 300.463 6.27352 301.15C5.76018 301.823 5.10018 302.16 4.29352 302.16C3.48685 302.16 2.82685 301.823 2.31352 301.15C1.80018 300.463 1.54352 299.607 1.54352 298.58ZM6.10352 298.58C6.10352 297.793 5.93685 297.147 5.60352 296.64C5.27685 296.133 4.84018 295.88 4.29352 295.88C3.74685 295.88 3.31018 296.133 2.98352 296.64C2.65018 297.147 2.48352 297.793 2.48352 298.58C2.48352 299.367 2.65018 300.017 2.98352 300.53C3.31018 301.03 3.74685 301.28 4.29352 301.28C4.84018 301.28 5.27685 301.027 5.60352 300.52C5.93685 300.007 6.10352 299.36 6.10352 298.58ZM9.32047 301.38C9.32047 301.567 9.2538 301.727 9.12047 301.86C8.9938 301.993 8.8338 302.06 8.64047 302.06C8.4538 302.06 8.2938 301.993 8.16047 301.86C8.02714 301.727 7.96047 301.567 7.96047 301.38C7.96047 301.187 8.02714 301.027 8.16047 300.9C8.2938 300.767 8.4538 300.7 8.64047 300.7C8.8338 300.7 8.9938 300.767 9.12047 300.9C9.2538 301.027 9.32047 301.187 9.32047 301.38ZM14.5647 301.12V302H10.2047V301.08L11.9747 299.29C12.568 298.683 12.978 298.23 13.2047 297.93C13.4314 297.623 13.5447 297.303 13.5447 296.97C13.5447 296.67 13.428 296.413 13.1947 296.2C12.9614 295.987 12.6614 295.88 12.2947 295.88C11.9814 295.88 11.7114 295.973 11.4847 296.16C11.258 296.347 11.1114 296.573 11.0447 296.84L10.2047 296.5C10.338 296.08 10.5947 295.727 10.9747 295.44C11.3547 295.147 11.8014 295 12.3147 295C12.9347 295 13.4514 295.19 13.8647 295.57C14.278 295.95 14.4847 296.417 14.4847 296.97C14.4847 297.63 14.1214 298.343 13.3947 299.11L11.3947 301.12H14.5647Z" fill="#828282"/>
<path d="M3.30133 328.58C3.30133 327.54 3.55799 326.683 4.07133 326.01C4.58466 325.337 5.24466 325 6.05133 325C6.85799 325 7.518 325.34 8.03133 326.02C8.54466 326.693 8.80133 327.547 8.80133 328.58C8.80133 329.607 8.54466 330.463 8.03133 331.15C7.518 331.823 6.85799 332.16 6.05133 332.16C5.24466 332.16 4.58466 331.823 4.07133 331.15C3.55799 330.463 3.30133 329.607 3.30133 328.58ZM7.86133 328.58C7.86133 327.793 7.69466 327.147 7.36133 326.64C7.03466 326.133 6.59799 325.88 6.05133 325.88C5.50466 325.88 5.06799 326.133 4.74133 326.64C4.40799 327.147 4.24133 327.793 4.24133 328.58C4.24133 329.367 4.40799 330.017 4.74133 330.53C5.06799 331.03 5.50466 331.28 6.05133 331.28C6.59799 331.28 7.03466 331.027 7.36133 330.52C7.69466 330.007 7.86133 329.36 7.86133 328.58ZM11.0783 331.38C11.0783 331.567 11.0116 331.727 10.8783 331.86C10.7516 331.993 10.5916 332.06 10.3983 332.06C10.2116 332.06 10.0516 331.993 9.91828 331.86C9.78495 331.727 9.71828 331.567 9.71828 331.38C9.71828 331.187 9.78495 331.027 9.91828 330.9C10.0516 330.767 10.2116 330.7 10.3983 330.7C10.5916 330.7 10.7516 330.767 10.8783 330.9C11.0116 331.027 11.0783 331.187 11.0783 331.38ZM14.1621 325.16V332H13.2421V326.3L11.9121 326.88L11.5621 326.1L13.5721 325.16H14.1621Z" fill="#828282"/>
<path d="M9.06305 358.58C9.06305 357.54 9.31971 356.683 9.83305 356.01C10.3464 355.337 11.0064 355 11.813 355C12.6197 355 13.2797 355.34 13.793 356.02C14.3064 356.693 14.563 357.547 14.563 358.58C14.563 359.607 14.3064 360.463 13.793 361.15C13.2797 361.823 12.6197 362.16 11.813 362.16C11.0064 362.16 10.3464 361.823 9.83305 361.15C9.31971 360.463 9.06305 359.607 9.06305 358.58ZM13.623 358.58C13.623 357.793 13.4564 357.147 13.123 356.64C12.7964 356.133 12.3597 355.88 11.813 355.88C11.2664 355.88 10.8297 356.133 10.503 356.64C10.1697 357.147 10.003 357.793 10.003 358.58C10.003 359.367 10.1697 360.017 10.503 360.53C10.8297 361.03 11.2664 361.28 11.813 361.28C12.3597 361.28 12.7964 361.027 13.123 360.52C13.4564 360.007 13.623 359.36 13.623 358.58Z" fill="#828282"/>
<rect width="55" height="18" rx="4" fill="#FFA1B5"/>
<rect x="137" width="55" height="18" rx="4" fill="#86C7F3"/>
</svg>
