<svg width="19" height="19" viewBox="0 0 19 19" fill="none" xmlns="http://www.w3.org/2000/svg">
<path d="M1.05556 10.5556H7.38889C7.66884 10.5556 7.93732 10.4443 8.13528 10.2464C8.33323 10.0484 8.44444 9.77995 8.44444 9.5V1.05556C8.44444 0.775605 8.33323 0.50712 8.13528 0.309165C7.93732 0.11121 7.66884 0 7.38889 0H1.05556C0.775605 0 0.50712 0.11121 0.309165 0.309165C0.11121 0.50712 0 0.775605 0 1.05556V9.5C0 9.77995 0.11121 10.0484 0.309165 10.2464C0.50712 10.4443 0.775605 10.5556 1.05556 10.5556ZM0 17.9444C0 18.2244 0.11121 18.4929 0.309165 18.6908C0.50712 18.8888 0.775605 19 1.05556 19H7.38889C7.66884 19 7.93732 18.8888 8.13528 18.6908C8.33323 18.4929 8.44444 18.2244 8.44444 17.9444V13.7222C8.44444 13.4423 8.33323 13.1738 8.13528 12.9758C7.93732 12.7779 7.66884 12.6667 7.38889 12.6667H1.05556C0.775605 12.6667 0.50712 12.7779 0.309165 12.9758C0.11121 13.1738 0 13.4423 0 13.7222V17.9444ZM10.5556 17.9444C10.5556 18.2244 10.6668 18.4929 10.8647 18.6908C11.0627 18.8888 11.3312 19 11.6111 19H17.9444C18.2244 19 18.4929 18.8888 18.6908 18.6908C18.8888 18.4929 19 18.2244 19 17.9444V10.5556C19 10.2756 18.8888 10.0071 18.6908 9.80917C18.4929 9.61121 18.2244 9.5 17.9444 9.5H11.6111C11.3312 9.5 11.0627 9.61121 10.8647 9.80917C10.6668 10.0071 10.5556 10.2756 10.5556 10.5556V17.9444ZM11.6111 7.38889H17.9444C18.2244 7.38889 18.4929 7.27768 18.6908 7.07972C18.8888 6.88177 19 6.61328 19 6.33333V1.05556C19 0.775605 18.8888 0.50712 18.6908 0.309165C18.4929 0.11121 18.2244 0 17.9444 0H11.6111C11.3312 0 11.0627 0.11121 10.8647 0.309165C10.6668 0.50712 10.5556 0.775605 10.5556 1.05556V6.33333C10.5556 6.61328 10.6668 6.88177 10.8647 7.07972C11.0627 7.27768 11.3312 7.38889 11.6111 7.38889Z" fill="#F178B6"/>
</svg>
