<svg width="45" height="45" viewBox="0 0 45 45" fill="none" xmlns="http://www.w3.org/2000/svg">
<rect width="45" height="45" rx="6" fill="#6FCF97"/>
<path d="M22.1677 11.8597V9.67195C22.1677 9.48133 22.3222 9.32678 22.5129 9.32678H24.1237C24.3143 9.32678 24.4688 9.48133 24.4688 9.67195V11.8597H25.7937C26.4087 11.8597 26.7167 12.6033 26.2818 13.0382L23.8064 15.5136C23.5368 15.7832 23.0997 15.7832 22.8301 15.5136L20.3547 13.0382C19.9198 12.6033 20.2278 11.8597 20.8429 11.8597H22.1677Z" fill="white"/>
<path d="M36.1637 17.8636H9.65461C8.84139 17.8636 8.18188 18.5048 8.18188 19.2955V33.6136C8.18188 34.4043 8.84139 35.0455 9.65461 35.0455H36.1637C36.9769 35.0455 37.6364 34.4043 37.6364 33.6136V19.2955C37.6364 18.5048 36.9769 17.8636 36.1637 17.8636ZM10.391 32.8977V30.0341C12.0179 30.0341 13.3364 31.316 13.3364 32.8977H10.391ZM10.391 22.875V20.0114H13.3364C13.3364 21.5931 12.0179 22.875 10.391 22.875ZM22.9092 30.75C20.8754 30.75 19.2273 28.8265 19.2273 26.4546C19.2273 24.0822 20.8759 22.1591 22.9092 22.1591C24.9424 22.1591 26.591 24.0822 26.591 26.4546C26.591 28.8273 24.942 30.75 22.9092 30.75ZM35.4273 32.8977H32.4819C32.4819 31.316 33.8004 30.0341 35.4273 30.0341V32.8977ZM35.4273 22.875C33.8004 22.875 32.4819 21.5931 32.4819 20.0114H35.4273V22.875Z" fill="white"/>
</svg>
