<svg width="42" height="69" viewBox="0 0 42 69" fill="none" xmlns="http://www.w3.org/2000/svg">
            <path  d="M34.4126 4.42171L25.7644 3.34286L23.3365 8.83587L3.48876 53.74L1.06083 59.233L7.58751 65.1116L16.2357 66.1904L18.6636 60.6974L38.5114 15.7933L40.9393 10.3003L34.4126 4.42171Z" fill="url(#paint0_linear_0_1)"/>
            <path d="M5.44136 56.4798C6.39957 56.666 7.33282 56.8632 8.28359 57.0684L11.1109 57.6947L13.2539 59.3282C13.9682 59.8727 14.6825 60.4172 15.3894 60.9806C14.6676 60.455 13.9459 59.9295 13.2241 59.404L11.0663 57.8084L11.0838 57.8163L8.24638 57.1631C7.32802 56.928 6.38469 56.7039 5.44136 56.4798Z" fill="white"/>
            <path d="M6.87873 53.2264C7.83695 53.4126 8.7702 53.6098 9.72097 53.8149L12.5483 54.4413L14.6913 56.0747C15.4056 56.6192 16.1199 57.1637 16.8268 57.7271C16.105 57.2016 15.3833 56.676 14.6615 56.1505L12.5037 54.555L12.5212 54.5628L9.68376 53.9096C8.7654 53.6745 7.82207 53.4505 6.87873 53.2264Z" fill="white"/>
            <path d="M8.30952 49.9914C9.26773 50.1776 10.201 50.3748 11.1518 50.58L13.9791 51.2063L16.1221 52.8398C16.8364 53.3843 17.5507 53.9287 18.2576 54.4922C17.5358 53.9666 16.8141 53.4411 16.0923 52.9156L13.9345 51.32L13.952 51.3279L11.1145 50.6747C10.1962 50.4396 9.25285 50.2155 8.30952 49.9914Z" fill="white"/>
            <path d="M9.748 46.7381C10.7062 46.9243 11.6395 47.1215 12.5902 47.3266L15.4176 47.953L17.5605 49.5865C18.2749 50.131 18.9892 50.6754 19.696 51.2389C18.9743 50.7133 18.2525 50.1878 17.5308 49.6622L15.3979 48.0556L15.4154 48.0635L12.578 47.4103C11.6347 47.1863 10.6913 46.9622 9.748 46.7381Z" fill="white"/>
            <path d="M11.1766 43.5027C12.1348 43.6888 13.068 43.8861 14.0188 44.0912L16.8462 44.7176L18.9891 46.351C19.7034 46.8955 20.4178 47.44 21.1246 48.0034C20.4029 47.4778 19.6811 46.9523 18.9594 46.4268L16.8015 44.8312L16.8191 44.8391L13.9816 44.1859C13.0633 43.9508 12.1199 43.7267 11.1766 43.5027Z" fill="white"/>
            <path d="M12.6152 40.2499C13.5734 40.436 14.5066 40.6333 15.4574 40.8384L18.2848 41.4648L20.4277 43.0982C21.142 43.6427 21.8564 44.1872 22.5632 44.7506C21.8415 44.225 21.1197 43.6995 20.398 43.174L18.2401 41.5784L18.2577 41.5863L15.4202 40.9331C14.5018 40.698 13.5585 40.4739 12.6152 40.2499Z" fill="white"/>
            <path d="M14.0457 37.0144C15.0039 37.2006 15.9372 37.3978 16.888 37.6029L19.7153 38.2293L21.8583 39.8627C22.5726 40.4072 23.2869 40.9517 23.9938 41.5151C23.272 40.9896 22.5503 40.464 21.8285 39.9385L19.6707 38.3429L19.6882 38.3508L16.8508 37.6976C15.9324 37.4625 14.9891 37.2385 14.0457 37.0144Z" fill="white"/>
            <path d="M15.4824 33.7611C16.4406 33.9473 17.3738 34.1445 18.3246 34.3496L21.152 34.976L23.2949 36.6094C24.0092 37.1539 24.7235 37.6984 25.4304 38.2618C24.7087 37.7363 23.9869 37.2107 23.2651 36.6852L21.1323 35.0786L21.1498 35.0865L18.3124 34.4332C17.369 34.2092 16.4257 33.9851 15.4824 33.7611Z" fill="white"/>
            <path d="M16.9218 30.5078C17.88 30.694 18.8133 30.8912 19.7641 31.0963L22.5914 31.7227L24.7344 33.3561C25.4487 33.9006 26.163 34.4451 26.8699 35.0085C26.1481 34.483 25.4264 33.9574 24.7046 33.4319L22.5468 31.8363L22.5643 31.8442L19.7269 31.191C18.801 30.9749 17.8577 30.7508 16.9218 30.5078Z" fill="white"/>
            <path d="M18.3515 27.2728C19.3097 27.459 20.243 27.6562 21.1937 27.8613L24.0211 28.4877L26.1641 30.1211C26.8784 30.6656 27.5927 31.2101 28.2996 31.7735C27.5778 31.248 26.856 30.7224 26.1343 30.1969L23.9765 28.6013L23.994 28.6092L21.1565 27.956C20.2382 27.7209 19.2948 27.4969 18.3515 27.2728Z" fill="white"/>
            <path d="M19.7879 24.0194C20.7461 24.2056 21.6794 24.4028 22.6301 24.6079L25.4575 25.2343L27.6005 26.8677C28.3148 27.4122 29.0291 27.9567 29.736 28.5201C29.0142 27.9946 28.2924 27.469 27.5707 26.9435L25.4129 25.3479L25.4304 25.3558L22.5929 24.7026C21.6671 24.4864 20.7238 24.2624 19.7879 24.0194Z" fill="white"/>
            <path d="M21.2197 20.7839C22.1779 20.9701 23.1111 21.1673 24.0619 21.3724L26.8893 21.9988L29.0322 23.6322C29.7465 24.1767 30.4608 24.7212 31.1677 25.2846C30.446 24.7591 29.7242 24.2335 29.0025 23.708L26.8696 22.1014L26.8871 22.1093L24.0497 21.4561C23.1063 21.232 22.163 21.008 21.2197 20.7839Z" fill="white"/>
            <path d="M22.6572 17.5311C23.6154 17.7173 24.5486 17.9145 25.4994 18.1196L28.3268 18.746L30.4697 20.3794C31.184 20.9239 31.8983 21.4684 32.6052 22.0318C31.8835 21.5063 31.1617 20.9808 30.44 20.4552L28.2821 18.8597L28.2996 18.8675L25.4622 18.2143C24.5364 17.9982 23.5931 17.7741 22.6572 17.5311Z" fill="white"/>
            <path d="M24.0867 14.2958C25.045 14.482 25.9782 14.6792 26.929 14.8843L29.7738 15.5186L31.9168 17.1521C32.6311 17.6966 33.3454 18.2411 34.0523 18.8045C33.3305 18.279 32.6088 17.7534 31.887 17.2278L29.7292 15.6322L29.7467 15.6401L26.9093 14.9869C25.9734 14.7439 25.0301 14.5199 24.0867 14.2958Z" fill="white"/>
            <path d="M25.5242 11.0423C26.4825 11.2285 27.4157 11.4257 28.3665 11.6308L31.1938 12.2572L33.3368 13.8907C34.0511 14.4352 34.7654 14.9796 35.4723 15.5431C34.7505 15.0175 34.0288 14.492 33.307 13.9664L31.1492 12.3709L31.1667 12.3788L28.3293 11.7256C27.4035 11.5094 26.4601 11.2853 25.5242 11.0423Z" fill="white"/>
            <path d="M26.9539 7.80688C27.9121 7.99305 28.8454 8.19027 29.7962 8.39539L32.6235 9.02178L34.7665 10.6552C35.4808 11.1997 36.1951 11.7442 36.902 12.3076C36.1802 11.7821 35.4585 11.2565 34.7367 10.731L32.5789 9.13542L32.5964 9.14331L29.759 8.49009C28.8406 8.25499 27.8973 8.03093 26.9539 7.80688Z" fill="white"/>
            <defs>
            <linearGradient id="paint0_linear_0_1" x1="34.4126" y1="4.42171" x2="6.76102" y2="64.7326" gradientUnits="userSpaceOnUse">
            <stop/>
            <stop offset="1" stop-opacity="0.52"/>
            </linearGradient>
            <linearGradient  id="paint1_linear_0_1" x1="14.1493" y1="50.2672" x2="7.38561" y2="65.0195" gradientUnits="userSpaceOnUse">
            <stop stop-color="#67C6F8"/>
            <stop offset="1" stop-color="#007EC0"/>
            </linearGradient>
            </defs>
            </svg>
