<svg width="48" height="68" viewBox="0 0 48 68" fill="none" xmlns="http://www.w3.org/2000/svg">
<path d="M33.341 42.16C33.341 41.904 33.3943 41.6773 33.501 41.48C33.613 41.2773 33.7623 41.12 33.949 41.008C34.141 40.896 34.357 40.84 34.597 40.84C34.837 40.84 35.0503 40.896 35.237 41.008C35.429 41.12 35.5783 41.2773 35.685 41.48C35.797 41.6773 35.853 41.904 35.853 42.16C35.853 42.416 35.797 42.6427 35.685 42.84C35.5783 43.032 35.429 43.184 35.237 43.296C35.0503 43.408 34.837 43.464 34.597 43.464C34.357 43.464 34.141 43.408 33.949 43.296C33.7623 43.184 33.613 43.032 33.501 42.84C33.3943 42.6427 33.341 42.416 33.341 42.16ZM34.933 38.4L33.045 41C32.9383 41.1493 32.853 41.3227 32.789 41.52C32.725 41.7173 32.693 41.9307 32.693 42.16C32.693 42.544 32.7756 42.88 32.941 43.168C33.1116 43.456 33.341 43.68 33.629 43.84C33.917 44 34.2396 44.08 34.597 44.08C34.9596 44.08 35.2823 44 35.565 43.84C35.853 43.68 36.0796 43.456 36.245 43.168C36.4156 42.88 36.501 42.544 36.501 42.16C36.501 41.904 36.4583 41.6667 36.373 41.448C36.2876 41.224 36.1676 41.0293 36.013 40.864C35.8636 40.6987 35.6876 40.5707 35.485 40.48C35.2876 40.3893 35.0743 40.344 34.845 40.344C34.6636 40.344 34.501 40.3653 34.357 40.408C34.2183 40.4507 34.0956 40.5387 33.989 40.672L34.037 40.712L35.789 38.4H34.933ZM37.9023 41.2C37.9023 40.8747 37.9343 40.576 37.9983 40.304C38.0623 40.0267 38.1557 39.7893 38.2783 39.592C38.401 39.3893 38.5477 39.2347 38.7183 39.128C38.8943 39.016 39.089 38.96 39.3023 38.96C39.521 38.96 39.7157 39.016 39.8863 39.128C40.057 39.2347 40.2037 39.3893 40.3263 39.592C40.449 39.7893 40.5423 40.0267 40.6063 40.304C40.6703 40.576 40.7023 40.8747 40.7023 41.2C40.7023 41.5253 40.6703 41.8267 40.6063 42.104C40.5423 42.376 40.449 42.6133 40.3263 42.816C40.2037 43.0133 40.057 43.168 39.8863 43.28C39.7157 43.3867 39.521 43.44 39.3023 43.44C39.089 43.44 38.8943 43.3867 38.7183 43.28C38.5477 43.168 38.401 43.0133 38.2783 42.816C38.1557 42.6133 38.0623 42.376 37.9983 42.104C37.9343 41.8267 37.9023 41.5253 37.9023 41.2ZM37.2223 41.2C37.2223 41.76 37.3103 42.256 37.4863 42.688C37.6623 43.12 37.905 43.4613 38.2143 43.712C38.529 43.9573 38.8917 44.08 39.3023 44.08C39.713 44.08 40.073 43.9573 40.3823 43.712C40.697 43.4613 40.9423 43.12 41.1183 42.688C41.2943 42.256 41.3823 41.76 41.3823 41.2C41.3823 40.64 41.2943 40.144 41.1183 39.712C40.9423 39.28 40.697 38.9413 40.3823 38.696C40.073 38.4453 39.713 38.32 39.3023 38.32C38.8917 38.32 38.529 38.4453 38.2143 38.696C37.905 38.9413 37.6623 39.28 37.4863 39.712C37.3103 40.144 37.2223 40.64 37.2223 41.2ZM41.9792 39.6C41.9792 39.8347 42.0299 40.0507 42.1312 40.248C42.2379 40.44 42.3872 40.5947 42.5792 40.712C42.7712 40.824 42.9926 40.88 43.2432 40.88C43.4992 40.88 43.7206 40.824 43.9072 40.712C44.0992 40.5947 44.2459 40.44 44.3472 40.248C44.4539 40.0507 44.5072 39.8347 44.5072 39.6C44.5072 39.36 44.4539 39.144 44.3472 38.952C44.2459 38.76 44.0992 38.608 43.9072 38.496C43.7206 38.3787 43.4992 38.32 43.2432 38.32C42.9926 38.32 42.7712 38.3787 42.5792 38.496C42.3872 38.608 42.2379 38.76 42.1312 38.952C42.0299 39.144 41.9792 39.36 41.9792 39.6ZM42.5472 39.6C42.5472 39.4613 42.5739 39.336 42.6272 39.224C42.6859 39.1067 42.7659 39.0133 42.8672 38.944C42.9739 38.8747 43.0992 38.84 43.2432 38.84C43.3926 38.84 43.5179 38.8747 43.6192 38.944C43.7206 39.0133 43.7979 39.1067 43.8512 39.224C43.9099 39.336 43.9392 39.4613 43.9392 39.6C43.9392 39.7333 43.9099 39.8587 43.8512 39.976C43.7979 40.0933 43.7206 40.1867 43.6192 40.256C43.5179 40.3253 43.3926 40.36 43.2432 40.36C43.0992 40.36 42.9739 40.3253 42.8672 40.256C42.7659 40.1867 42.6859 40.0933 42.6272 39.976C42.5739 39.8587 42.5472 39.7333 42.5472 39.6ZM44.8992 42.8C44.8992 43.0347 44.9499 43.2507 45.0512 43.448C45.1579 43.64 45.3072 43.7947 45.4992 43.912C45.6912 44.024 45.9126 44.08 46.1632 44.08C46.4192 44.08 46.6406 44.024 46.8272 43.912C47.0192 43.7947 47.1659 43.64 47.2672 43.448C47.3739 43.2507 47.4272 43.0347 47.4272 42.8C47.4272 42.56 47.3739 42.344 47.2672 42.152C47.1659 41.96 47.0192 41.808 46.8272 41.696C46.6406 41.5787 46.4192 41.52 46.1632 41.52C45.9126 41.52 45.6912 41.5787 45.4992 41.696C45.3072 41.808 45.1579 41.96 45.0512 42.152C44.9499 42.344 44.8992 42.56 44.8992 42.8ZM45.4672 42.8C45.4672 42.6613 45.4939 42.536 45.5472 42.424C45.6059 42.3067 45.6859 42.2133 45.7872 42.144C45.8939 42.0747 46.0192 42.04 46.1632 42.04C46.3126 42.04 46.4379 42.0747 46.5392 42.144C46.6406 42.2133 46.7179 42.3067 46.7712 42.424C46.8299 42.536 46.8592 42.6613 46.8592 42.8C46.8592 42.9333 46.8299 43.0587 46.7712 43.176C46.7179 43.2933 46.6406 43.3867 46.5392 43.456C46.4379 43.5253 46.3126 43.56 46.1632 43.56C46.0192 43.56 45.8939 43.5253 45.7872 43.456C45.6859 43.3867 45.6059 43.2933 45.5472 43.176C45.4939 43.0587 45.4672 42.9333 45.4672 42.8ZM46.2032 38.4L42.6032 44H43.2032L46.8032 38.4H46.2032Z" fill="black"/>
<path d="M34.4125 3.6191L25.7643 2.54024L23.3364 8.03326L3.48864 52.9374L1.06071 58.4304L7.58739 64.309L16.2356 65.3878L18.6635 59.8948L38.5113 14.9907L40.9392 9.49768L34.4125 3.6191Z" fill="url(#paint0_linear_0_1)"/>
<path d="M24.5418 25.9514L16.2839 23.9894L14.7494 27.4612L2.20514 55.8417L0.670622 59.3134L7.58763 64.3089L15.8455 66.2709L17.38 62.7991L29.9243 34.4186L31.4588 30.9469L24.5418 25.9514Z" fill="url(#paint1_linear_0_1)"/>

<path d="M5.00898 56.0605C5.9672 56.2467 6.90044 56.4439 7.85122 56.6491L10.6786 57.2754L12.8215 58.9089C13.5359 59.4534 14.2502 59.9979 14.957 60.5613C14.2353 60.0357 13.5135 59.5102 12.7918 58.9847L10.6339 57.3891L10.6515 57.397L7.81401 56.7438C6.89565 56.5087 5.95232 56.2846 5.00898 56.0605Z" fill="white"/>
<path d="M6.44673 52.8074C7.40494 52.9935 8.33819 53.1908 9.28896 53.3959L12.1163 54.0223L14.2593 55.6557C14.9736 56.2002 15.6879 56.7447 16.3948 57.3081C15.673 56.7825 14.9513 56.257 14.2295 55.7315L12.0717 54.1359L12.0892 54.1438L9.25176 53.4906C8.33339 53.2555 7.39006 53.0314 6.44673 52.8074Z" fill="white"/>
<path d="M7.87641 49.572C8.83463 49.7582 9.76787 49.9554 10.7186 50.1605L13.546 50.7869L15.689 52.4203C16.4033 52.9648 17.1176 53.5093 17.8245 54.0727C17.1027 53.5472 16.3809 53.0216 15.6592 52.4961L13.5014 50.9005L13.5189 50.9084L10.6814 50.2552C9.76308 50.0201 8.81975 49.7961 7.87641 49.572Z" fill="white"/>
<path d="M9.31526 46.3191C10.2735 46.5052 11.2067 46.7025 12.1575 46.9076L14.9848 47.534L17.1278 49.1674C17.8421 49.7119 18.5564 50.2564 19.2633 50.8198C18.5416 50.2943 17.8198 49.7687 17.098 49.2432L14.9652 47.6366L14.9827 47.6445L12.1453 46.9912C11.2019 46.7672 10.2586 46.5431 9.31526 46.3191Z" fill="white"/>
<path d="M10.7445 43.0835C11.7027 43.2697 12.6359 43.4669 13.5867 43.672L16.414 44.2984L18.557 45.9318C19.2713 46.4763 19.9856 47.0208 20.6925 47.5842C19.9707 47.0587 19.249 46.5331 18.5272 46.0076L16.3694 44.412L16.3869 44.4199L13.5495 43.7667C12.6311 43.5316 11.6878 43.3075 10.7445 43.0835Z" fill="white"/>
<path d="M12.1824 39.8303C13.1407 40.0165 14.0739 40.2137 15.0247 40.4188L17.852 41.0452L19.995 42.6786C20.7093 43.2231 21.4236 43.7676 22.1305 44.331C21.4087 43.8055 20.687 43.2799 19.9652 42.7544L17.8074 41.1588L17.8249 41.1667L14.9875 40.5135C14.0691 40.2784 13.1258 40.0544 12.1824 39.8303Z" fill="white"/>
<path d="M13.613 36.5951C14.5712 36.7813 15.5044 36.9785 16.4552 37.1836L19.2826 37.81L21.4255 39.4434C22.1398 39.9879 22.8542 40.5324 23.561 41.0958C22.8393 40.5703 22.1175 40.0447 21.3958 39.5192L19.2379 37.9236L19.2555 37.9315L16.418 37.2783C15.4997 37.0432 14.5563 36.8191 13.613 36.5951Z" fill="white"/>
<path d="M15.0499 33.3419C16.0081 33.5281 16.9413 33.7253 17.8921 33.9304L20.7195 34.5568L22.8624 36.1902C23.5767 36.7347 24.291 37.2792 24.9979 37.8426C24.2762 37.3171 23.5544 36.7915 22.8327 36.266L20.6998 34.6594L20.7173 34.6673L17.8799 34.0141C16.9365 33.79 15.9932 33.566 15.0499 33.3419Z" fill="white"/>
<path d="M16.4887 30.0887C17.4469 30.2749 18.3802 30.4721 19.331 30.6772L22.1583 31.3036L24.3013 32.9371C25.0156 33.4815 25.7299 34.026 26.4368 34.5894C25.715 34.0639 24.9932 33.5384 24.2715 33.0128L22.1137 31.4173L22.1312 31.4252L19.2937 30.7719C18.3679 30.5558 17.4246 30.3317 16.4887 30.0887Z" fill="white"/>
<path d="M17.9185 26.8533C18.8767 27.0394 19.81 27.2367 20.7608 27.4418L23.5881 28.0682L25.7311 29.7016C26.4454 30.2461 27.1597 30.7906 27.8666 31.354C27.1448 30.8285 26.4231 30.3029 25.7013 29.7774L23.5435 28.1818L23.561 28.1897L20.7236 27.5365C19.8052 27.3014 18.8619 27.0773 17.9185 26.8533Z" fill="white"/>
<path d="M19.3554 23.6002C20.3136 23.7864 21.2469 23.9836 22.1977 24.1887L25.025 24.8151L27.168 26.4485C27.8823 26.993 28.5966 27.5375 29.3035 28.1009C28.5817 27.5754 27.86 27.0499 27.1382 26.5243L24.9804 24.9288L24.9979 24.9366L22.1604 24.2834C21.2346 24.0673 20.2913 23.8432 19.3554 23.6002Z" fill="white"/>
<path d="M20.7866 20.365C21.7448 20.5511 22.678 20.7484 23.6288 20.9535L26.4562 21.5799L28.5991 23.2133C29.3134 23.7578 30.0277 24.3023 30.7346 24.8657C30.0129 24.3402 29.2911 23.8146 28.5694 23.2891L26.4365 21.6825L26.454 21.6904L23.6166 21.0371C22.6732 20.8131 21.7299 20.589 20.7866 20.365Z" fill="white"/>
<path d="M22.2247 17.1117C23.1829 17.2979 24.1161 17.4951 25.0669 17.7002L27.8943 18.3266L30.0372 19.96C30.7515 20.5045 31.4659 21.049 32.1727 21.6124C31.451 21.0869 30.7292 20.5613 30.0075 20.0358L27.8496 18.4402L27.8672 18.4481L25.0297 17.7949C24.1039 17.5787 23.1606 17.3547 22.2247 17.1117Z" fill="white"/>
<path d="M23.6539 13.8764C24.6121 14.0625 25.5453 14.2598 26.4961 14.4649L29.341 15.0991L31.4839 16.7326C32.1982 17.2771 32.9126 17.8216 33.6194 18.385C32.8977 17.8595 32.1759 17.3339 31.4542 16.8084L29.2963 15.2128L29.3139 15.2207L26.4764 14.5675C25.5405 14.3245 24.5972 14.1004 23.6539 13.8764Z" fill="white"/>
<path d="M25.092 10.6232C26.0502 10.8093 26.9835 11.0066 27.9342 11.2117L30.7616 11.8381L32.9045 13.4715C33.6188 14.016 34.3332 14.5605 35.04 15.1239C34.3183 14.5983 33.5965 14.0728 32.8748 13.5473L30.7169 11.9517L30.7345 11.9596L27.897 11.3064C26.9712 11.0902 26.0279 10.8662 25.092 10.6232Z" fill="white"/>
<path d="M26.5219 7.38792C27.4801 7.57409 28.4134 7.77132 29.3642 7.97643L32.1915 8.60282L34.3345 10.2363C35.0488 10.7807 35.7631 11.3252 36.47 11.8886C35.7482 11.3631 35.0265 10.8376 34.3047 10.312L32.1469 8.71647L32.1644 8.72436L29.327 8.07113C28.4086 7.83603 27.4653 7.61197 26.5219 7.38792Z" fill="white"/>
<defs>
<linearGradient id="paint0_linear_0_1" x1="34.4125" y1="3.6191" x2="6.76089" y2="63.93" gradientUnits="userSpaceOnUse">
<stop/>
<stop offset="1" stop-opacity="0"/>
</linearGradient>
<linearGradient id="paint1_linear_0_1" x1="24.5418" y1="25.9514" x2="7.06523" y2="64.0694" gradientUnits="userSpaceOnUse">
<stop stop-color="#20F987"/>
<stop offset="1" stop-color="#00C75F"/>
</linearGradient>
<linearGradient id="paint2_linear_0_1" x1="24.5418" y1="25.9514" x2="7.06523" y2="64.0694" gradientUnits="userSpaceOnUse">
<stop stop-color="#20F987"/>
<stop offset="1" stop-color="#00C75F"/>
</linearGradient>

</defs>
</svg>
