<svg width="42" height="68" viewBox="0 0 42 68" fill="none" xmlns="http://www.w3.org/2000/svg">
<path d="M25.4256 60.88H29.6896V60.28H28.5456H28.4096H26.5456L28.1296 57.912V60.504V60.592V62H28.8096V56.4H28.5296L25.4256 60.88ZM30.9297 59.2C30.9297 58.8747 30.9617 58.576 31.0257 58.304C31.0897 58.0267 31.183 57.7893 31.3057 57.592C31.4284 57.3893 31.575 57.2347 31.7457 57.128C31.9217 57.016 32.1164 56.96 32.3297 56.96C32.5484 56.96 32.743 57.016 32.9137 57.128C33.0844 57.2347 33.231 57.3893 33.3537 57.592C33.4764 57.7893 33.5697 58.0267 33.6337 58.304C33.6977 58.576 33.7297 58.8747 33.7297 59.2C33.7297 59.5253 33.6977 59.8267 33.6337 60.104C33.5697 60.376 33.4764 60.6133 33.3537 60.816C33.231 61.0133 33.0844 61.168 32.9137 61.28C32.743 61.3867 32.5484 61.44 32.3297 61.44C32.1164 61.44 31.9217 61.3867 31.7457 61.28C31.575 61.168 31.4284 61.0133 31.3057 60.816C31.183 60.6133 31.0897 60.376 31.0257 60.104C30.9617 59.8267 30.9297 59.5253 30.9297 59.2ZM30.2497 59.2C30.2497 59.76 30.3377 60.256 30.5137 60.688C30.6897 61.12 30.9324 61.4613 31.2417 61.712C31.5564 61.9573 31.919 62.08 32.3297 62.08C32.7404 62.08 33.1004 61.9573 33.4097 61.712C33.7244 61.4613 33.9697 61.12 34.1457 60.688C34.3217 60.256 34.4097 59.76 34.4097 59.2C34.4097 58.64 34.3217 58.144 34.1457 57.712C33.9697 57.28 33.7244 56.9413 33.4097 56.696C33.1004 56.4453 32.7404 56.32 32.3297 56.32C31.919 56.32 31.5564 56.4453 31.2417 56.696C30.9324 56.9413 30.6897 57.28 30.5137 57.712C30.3377 58.144 30.2497 58.64 30.2497 59.2ZM35.0066 57.6C35.0066 57.8347 35.0572 58.0507 35.1586 58.248C35.2652 58.44 35.4146 58.5947 35.6066 58.712C35.7986 58.824 36.0199 58.88 36.2706 58.88C36.5266 58.88 36.7479 58.824 36.9346 58.712C37.1266 58.5947 37.2732 58.44 37.3746 58.248C37.4812 58.0507 37.5346 57.8347 37.5346 57.6C37.5346 57.36 37.4812 57.144 37.3746 56.952C37.2732 56.76 37.1266 56.608 36.9346 56.496C36.7479 56.3787 36.5266 56.32 36.2706 56.32C36.0199 56.32 35.7986 56.3787 35.6066 56.496C35.4146 56.608 35.2652 56.76 35.1586 56.952C35.0572 57.144 35.0066 57.36 35.0066 57.6ZM35.5746 57.6C35.5746 57.4613 35.6012 57.336 35.6546 57.224C35.7132 57.1067 35.7932 57.0133 35.8946 56.944C36.0012 56.8747 36.1266 56.84 36.2706 56.84C36.4199 56.84 36.5452 56.8747 36.6466 56.944C36.7479 57.0133 36.8252 57.1067 36.8786 57.224C36.9372 57.336 36.9666 57.4613 36.9666 57.6C36.9666 57.7333 36.9372 57.8587 36.8786 57.976C36.8252 58.0933 36.7479 58.1867 36.6466 58.256C36.5452 58.3253 36.4199 58.36 36.2706 58.36C36.1266 58.36 36.0012 58.3253 35.8946 58.256C35.7932 58.1867 35.7132 58.0933 35.6546 57.976C35.6012 57.8587 35.5746 57.7333 35.5746 57.6ZM37.9266 60.8C37.9266 61.0347 37.9772 61.2507 38.0786 61.448C38.1852 61.64 38.3346 61.7947 38.5266 61.912C38.7186 62.024 38.9399 62.08 39.1906 62.08C39.4466 62.08 39.6679 62.024 39.8546 61.912C40.0466 61.7947 40.1932 61.64 40.2946 61.448C40.4012 61.2507 40.4546 61.0347 40.4546 60.8C40.4546 60.56 40.4012 60.344 40.2946 60.152C40.1932 59.96 40.0466 59.808 39.8546 59.696C39.6679 59.5787 39.4466 59.52 39.1906 59.52C38.9399 59.52 38.7186 59.5787 38.5266 59.696C38.3346 59.808 38.1852 59.96 38.0786 60.152C37.9772 60.344 37.9266 60.56 37.9266 60.8ZM38.4946 60.8C38.4946 60.6613 38.5212 60.536 38.5746 60.424C38.6332 60.3067 38.7132 60.2133 38.8146 60.144C38.9212 60.0747 39.0466 60.04 39.1906 60.04C39.3399 60.04 39.4652 60.0747 39.5666 60.144C39.6679 60.2133 39.7452 60.3067 39.7986 60.424C39.8572 60.536 39.8866 60.6613 39.8866 60.8C39.8866 60.9333 39.8572 61.0587 39.7986 61.176C39.7452 61.2933 39.6679 61.3867 39.5666 61.456C39.4652 61.5253 39.3399 61.56 39.1906 61.56C39.0466 61.56 38.9212 61.5253 38.8146 61.456C38.7132 61.3867 38.6332 61.2933 38.5746 61.176C38.5212 61.0587 38.4946 60.9333 38.4946 60.8ZM39.2306 56.4L35.6306 62H36.2306L39.8306 56.4H39.2306Z" fill="black"/>
<path d="M34.4126 3.6191L25.7644 2.54024L23.3365 8.03326L3.4887 52.9374L1.06077 58.4304L7.58745 64.309L16.2356 65.3878L18.6636 59.8948L38.5113 14.9907L40.9392 9.49768L34.4126 3.6191Z" fill="url(#paint0_linear_0_1)"/>
<path d="M15.909 45.482L7.99247 42.7478L7.23929 44.4518L1.08221 58.3817L0.329025 60.0858L7.5874 64.309L15.5039 67.0432L16.2571 65.3392L22.4142 51.4092L23.1673 49.7052L15.909 45.482Z" fill="url(#paint1_linear_0_1)"/>
<path d="M5.44141 55.677C6.39963 55.8632 7.33288 56.0604 8.28365 56.2655L11.111 56.8919L13.254 58.5253C13.9683 59.0698 14.6826 59.6143 15.3895 60.1777C14.6677 59.6522 13.9459 59.1266 13.2242 58.6011L11.0664 57.0055L11.0839 57.0134L8.24644 56.3602C7.32808 56.1251 6.38475 55.901 5.44141 55.677Z" fill="white"/>
<path d="M6.8791 52.4237C7.83732 52.6099 8.77056 52.8071 9.72134 53.0122L12.5487 53.6386L14.6916 55.272C15.406 55.8165 16.1203 56.361 16.8272 56.9244C16.1054 56.3989 15.3836 55.8733 14.6619 55.3478L12.504 53.7522L12.5216 53.7601L9.68413 53.1069C8.76577 52.8718 7.82243 52.6477 6.8791 52.4237Z" fill="white"/>
<path d="M8.30885 49.1883C9.26706 49.3745 10.2003 49.5717 11.1511 49.7769L13.9784 50.4032L16.1214 52.0367C16.8357 52.5812 17.55 53.1256 18.2569 53.6891C17.5351 53.1635 16.8134 52.638 16.0916 52.1124L13.9338 50.5169L13.9513 50.5248L11.1139 49.8716C10.1955 49.6365 9.25218 49.4124 8.30885 49.1883Z" fill="white"/>
<path d="M9.74763 45.9353C10.7058 46.1215 11.6391 46.3187 12.5899 46.5238L15.4172 47.1502L17.5602 48.7836C18.2745 49.3281 18.9888 49.8726 19.6957 50.436C18.9739 49.9105 18.2522 49.3849 17.5304 48.8594L15.3975 47.2528L15.4151 47.2607L12.5776 46.6074C11.6343 46.3834 10.691 46.1593 9.74763 45.9353Z" fill="white"/>
<path d="M11.1769 42.6998C12.1351 42.886 13.0684 43.0832 14.0191 43.2883L16.8465 43.9147L18.9894 45.5482C19.7037 46.0926 20.4181 46.6371 21.1249 47.2005C20.4032 46.675 19.6814 46.1495 18.9597 45.6239L16.8018 44.0284L16.8194 44.0362L13.9819 43.383C13.0636 43.1479 12.1202 42.9239 11.1769 42.6998Z" fill="white"/>
<path d="M12.6149 39.4468C13.5731 39.6329 14.5063 39.8302 15.4571 40.0353L18.2845 40.6617L20.4274 42.2951C21.1417 42.8396 21.8561 43.3841 22.5629 43.9475C21.8412 43.4219 21.1194 42.8964 20.3977 42.3709L18.2398 40.7753L18.2573 40.7832L15.4199 40.13C14.5015 39.8949 13.5582 39.6708 12.6149 39.4468Z" fill="white"/>
<path d="M14.0454 36.2114C15.0036 36.3976 15.9369 36.5948 16.8877 36.7999L19.715 37.4263L21.858 39.0597C22.5723 39.6042 23.2866 40.1487 23.9935 40.7121C23.2717 40.1866 22.5499 39.661 21.8282 39.1355L19.6704 37.5399L19.6879 37.5478L16.8504 36.8946C15.9321 36.6595 14.9887 36.4355 14.0454 36.2114Z" fill="white"/>
<path d="M15.4824 32.9582C16.4406 33.1444 17.3738 33.3416 18.3246 33.5467L21.152 34.1731L23.2949 35.8066C24.0092 36.351 24.7236 36.8955 25.4304 37.4589C24.7087 36.9334 23.9869 36.4079 23.2652 35.8823L21.1323 34.2757L21.1498 34.2836L18.3124 33.6304C17.369 33.4063 16.4257 33.1823 15.4824 32.9582Z" fill="white"/>
<path d="M16.9211 29.7052C17.8793 29.8914 18.8126 30.0886 19.7633 30.2937L22.5907 30.9201L24.7336 32.5535C25.4479 33.098 26.1623 33.6425 26.8691 34.2059C26.1474 33.6803 25.4256 33.1548 24.7039 32.6293L22.546 31.0337L22.5636 31.0416L19.7261 30.3884C18.8003 30.1722 17.857 29.9482 16.9211 29.7052Z" fill="white"/>
<path d="M18.3509 26.4697C19.3091 26.6559 20.2424 26.8531 21.1931 27.0582L24.0205 27.6846L26.1634 29.318C26.8778 29.8625 27.5921 30.407 28.2989 30.9704C27.5772 30.4449 26.8554 29.9193 26.1337 29.3938L23.9758 27.7983L23.9934 27.8061L21.1559 27.1529C20.2376 26.9178 19.2942 26.6938 18.3509 26.4697Z" fill="white"/>
<path d="M19.7879 23.2166C20.7461 23.4027 21.6794 23.5999 22.6301 23.8051L25.4575 24.4314L27.6004 26.0649C28.3148 26.6094 29.0291 27.1538 29.736 27.7173C29.0142 27.1917 28.2924 26.6662 27.5707 26.1406L25.4129 24.5451L25.4304 24.553L22.5929 23.8998C21.6671 23.6836 20.7238 23.4595 19.7879 23.2166Z" fill="white"/>
<path d="M21.2191 19.9812C22.1773 20.1674 23.1105 20.3646 24.0613 20.5697L26.8887 21.1961L29.0316 22.8295C29.7459 23.374 30.4602 23.9185 31.1671 24.4819C30.4454 23.9564 29.7236 23.4308 29.0018 22.9053L26.869 21.2987L26.8865 21.3066L24.0491 20.6533C23.1057 20.4293 22.1624 20.2052 21.2191 19.9812Z" fill="white"/>
<path d="M22.6571 16.728C23.6153 16.9142 24.5485 17.1114 25.4993 17.3165L28.3266 17.9429L30.4696 19.5763C31.1839 20.1208 31.8982 20.6653 32.6051 21.2287C31.8833 20.7032 31.1616 20.1777 30.4398 19.6521L28.282 18.0566L28.2995 18.0644L25.4621 17.4112C24.5363 17.1951 23.5929 16.971 22.6571 16.728Z" fill="white"/>
<path d="M24.0863 13.4927C25.0445 13.6789 25.9778 13.8761 26.9285 14.0812L29.7734 14.7155L31.9164 16.349C32.6307 16.8935 33.345 17.438 34.0519 18.0014C33.3301 17.4758 32.6083 16.9503 31.8866 16.4247L29.7288 14.8291L29.7463 14.837L26.9089 14.1838C25.973 13.9408 25.0296 13.7168 24.0863 13.4927Z" fill="white"/>
<path d="M25.5244 10.2396C26.4826 10.4258 27.4159 10.623 28.3667 10.8281L31.194 11.4545L33.337 13.0879C34.0513 13.6324 34.7656 14.1769 35.4725 14.7403C34.7507 14.2147 34.029 13.6892 33.3072 13.1637L31.1494 11.5681L31.1669 11.576L28.3295 10.9228C27.4036 10.7066 26.4603 10.4826 25.5244 10.2396Z" fill="white"/>
<path d="M26.9543 7.00425C27.9125 7.19042 28.8458 7.38765 29.7965 7.59276L32.6239 8.21916L34.7668 9.8526C35.4812 10.3971 36.1955 10.9416 36.9024 11.505C36.1806 10.9794 35.4588 10.4539 34.7371 9.92836L32.5792 8.3328L32.5968 8.34069L29.7593 7.68747C28.841 7.45236 27.8976 7.22831 26.9543 7.00425Z" fill="white"/>
<defs>
<linearGradient id="paint0_linear_0_1" x1="34.4126" y1="3.6191" x2="6.76095" y2="63.93" gradientUnits="userSpaceOnUse">
<stop/>
<stop offset="1" stop-opacity="0.45"/>
</linearGradient>
<linearGradient id="paint1_linear_0_1" x1="15.909" y1="45.482" x2="7.331" y2="64.1914" gradientUnits="userSpaceOnUse">
<stop stop-color="#D338F2"/>
<stop offset="1" stop-color="#9500B3"/>
</linearGradient>
</defs>
</svg>
