<svg xmlns="http://www.w3.org/2000/svg" viewBox="0 0 24 24" fill="#000000" height="55px">
<path d="M0 0h24v24H0z" fill="none"/>

<path fill-rule="evenodd" clip-rule="evenodd" fill="#512DA8" d="M9.814,22.322c0.346-1.507,0.668-3.036,0.993-4.564
	c-1.592-0.049-3.102-0.027-4.725-0.027c-0.866,0-1.723,0.104-1.987-0.482c-0.239-0.529-0.081-1.758-0.081-2.523
	c0-2.133,0-4.309,0-6.497c0-0.444-0.057-0.913,0.027-1.261c0.095-0.397,0.656-1.016,0.913-1.37C5.73,4.531,6.519,3.453,7.344,2.322
	c0.205-0.28,0.33-0.564,0.645-0.617c0.465-0.079,1.021,0,1.503,0c2.987,0,5.932,0,9.02,0c0.529,0,1.185-0.072,1.396,0.188
	c0.162,0.199,0.107,0.947,0.107,1.396c0,3.048,0,5.981,0,9.02c0,0.518,0.071,1.086-0.027,1.477c-0.1,0.398-0.691,0.77-0.993,1.047
	c-0.909,0.835-1.721,1.59-2.657,2.442c-0.17,0.154-0.4,0.415-0.564,0.456c-0.311,0.081-0.77,0-1.154,0s-0.881-0.083-1.154,0
	c-0.135,0.042-0.344,0.386-0.482,0.565c-1.014,1.297-1.958,2.542-2.954,3.838C9.978,22.201,9.863,22.367,9.814,22.322z"/>
<path fill-rule="evenodd" clip-rule="evenodd" fill="#FFFFFF" d="M7.932,2.16C7.838,2.431,7.878,3.12,7.878,3.583
	c0,3.433-0.022,6.97,0.027,10.228c1.871,0.143,4.044-0.018,5.96,0.08c-0.283,0.926-0.562,1.855-0.859,2.766
	c0.632-0.682,1.114-1.379,1.718-2.121c0.162-0.197,0.436-0.619,0.617-0.67c0.27-0.078,0.752,0,1.074,0
	c1.102,0,2.167,0.021,3.195-0.027c0.089-3.802,0.089-7.958,0-11.731c-3.813-0.063-7.741-0.009-11.598-0.027
	C7.974,2.094,7.947,2.121,7.932,2.16z"/>
<path fill="none" d="M0,0h24v24H0V0z"/>
<path fill-rule="evenodd" clip-rule="evenodd" fill="#454545" d="M16.365,5.087c0.086,0.25,0.086,0.824,0,1.074
	c-0.316,0.113-0.833,0.027-1.235,0.054c0.284,1.102-0.277,2.136-1.208,2.362c0.248,0.384,0.678,0.732,1.073,1.127
	c0.11,0.11,0.319,0.303,0.322,0.403c0.005,0.132-0.528,0.745-0.725,0.752c-0.205,0.007-0.667-0.559-0.833-0.725
	c-0.509-0.509-1.014-1.014-1.557-1.557c-0.23-0.23-0.701-0.623-0.671-0.832c0.071-0.497,1.521-0.11,2.067-0.269
	c0.191-0.056,0.42-0.252,0.456-0.51c0.179-1.283-2.1-0.519-2.873-0.806c-0.083-0.239-0.091-0.809,0-1.046
	C12.795,5.007,14.709,5.06,16.365,5.087z"/>
</svg>