<?xml version="1.0" encoding="UTF-8" standalone="no"?>
<svg
   xmlns:dc="http://purl.org/dc/elements/1.1/"
   xmlns:cc="http://creativecommons.org/ns#"
   xmlns:rdf="http://www.w3.org/1999/02/22-rdf-syntax-ns#"
   xmlns:svg="http://www.w3.org/2000/svg"
   xmlns="http://www.w3.org/2000/svg"
   xmlns:sodipodi="http://sodipodi.sourceforge.net/DTD/sodipodi-0.dtd"
   xmlns:inkscape="http://www.inkscape.org/namespaces/inkscape"
   version="1.1"
   id="svg2"
   xml:space="preserve"
   width="4946.6665"
   height="4946.6665"
   viewBox="0 0 4946.6665 4946.6665"
   sodipodi:docname="20945204.eps"><metadata
     id="metadata8"><rdf:RDF><cc:Work
         rdf:about=""><dc:format>image/svg+xml</dc:format><dc:type
           rdf:resource="http://purl.org/dc/dcmitype/StillImage" /></cc:Work></rdf:RDF></metadata><defs
     id="defs6"><clipPath
       clipPathUnits="userSpaceOnUse"
       id="clipPath22"><path
         d="m 18903.8,4820 c -1681.9,0 -2966.7,235.1 -3479.1,339.2 -1553.3,315.5 -4317.6,876.8 -6699.96,2836 H 19327 c -5.2,-919.3 -3,-1724.8 11.4,-2261.9 5.6,-207.5 147.8,-374.1 325.2,-380.9 522.2,-20 1873.5,-58.2 3184.3,-71 C 21426.3,4933 20069.8,4820 18903.8,4820 m 6837.1,1507.8 c 2.3,144.6 4.8,302.4 7.2,471.3 51.6,41.8 103.1,84.6 154.6,128.6 3.2,-3.4 6.3,-6.7 9.6,-10.2 60,-63.7 138.7,-93.8 216.8,-93.8 112.7,0 224,62.7 276.1,177.8 81.7,180.3 180.6,419.2 280.1,709.3 130.8,153.7 257.6,316.9 378.7,489.7 1070.2,1527.3 1631.9,3197 1899.8,4855.9 314.5,-1.3 611.1,-1.9 887.7,-1.9 544.1,0 1009.1,2.5 1377.3,7.9 130.9,2 256.8,24.9 374.3,65.7 C 31053.5,11394.7 30218,9870.9 29143,8739.2 28573.6,8139.7 28034.7,7753.1 27609,7447.6 26996.6,7008.2 26370.5,6638.3 25740.9,6327.8 m -19847.34,5264 c -2203.97,4503.6 -1371.09,10358.7 1213.84,14434.4 557.49,879 3502.3,5757.6 9487.5,6540 594.1,77.6 1204.8,116.9 1823.4,116.9 3153,0 6522.6,-1018.5 9078.8,-3160.2 1037.4,-869 1894.9,-1881.1 2585.8,-2986.9 -3932.5,110.2 -14257.5,340.6 -19008.5,340.6 -638.4,0 -1175.47,-4.2 -1583.56,-13.3 -641.71,-14.4 -1154.11,-538.6 -1154.11,-1180.5 v -6678.7 l -1840.52,47.6 c -6.41,0.2 -12.85,0.3 -19.24,0.3 -196.26,0 -384.82,-77.7 -524.12,-216.6 -143.84,-143.4 -222.54,-339.4 -217.74,-542.3 l 158.45,-6701.3"
         id="path20" /></clipPath><linearGradient
       x1="0"
       y1="0"
       x2="1"
       y2="0"
       gradientUnits="userSpaceOnUse"
       gradientTransform="matrix(-24793,30791.3,30791.3,24793,35963.7,-3403.8)"
       spreadMethod="pad"
       id="linearGradient28"><stop
         style="stop-opacity:1;stop-color:#dae3fe"
         offset="0"
         id="stop24" /><stop
         style="stop-opacity:1;stop-color:#e9effd"
         offset="1"
         id="stop26" /></linearGradient><clipPath
       clipPathUnits="userSpaceOnUse"
       id="clipPath38"><path
         d="m 18562.8,14165.4 -506.5,-4542.9 h 5876.8 l -765.5,4542.9 h -4604.8"
         id="path36" /></clipPath><linearGradient
       x1="0"
       y1="0"
       x2="1"
       y2="0"
       gradientUnits="userSpaceOnUse"
       gradientTransform="matrix(-304.984,6038.62,6038.62,304.984,21111.5,7310)"
       spreadMethod="pad"
       id="linearGradient44"><stop
         style="stop-opacity:1;stop-color:#09005d"
         offset="0"
         id="stop40" /><stop
         style="stop-opacity:1;stop-color:#1a0f91"
         offset="1"
         id="stop42" /></linearGradient><clipPath
       clipPathUnits="userSpaceOnUse"
       id="clipPath54"><path
         d="m 29851.5,13054.5 c -276.6,0 -573.2,0.6 -887.7,1.9 50.3,312 90.3,623.7 121.3,933.9 l 2693.4,-45.9 h 0.6 c 18.1,0 33,14.6 33.3,32.8 0.4,18.4 -14.3,33.6 -32.7,34 l -2688.1,45.8 c 10.6,109.7 20,219 28.3,328.3 l 1573.4,-19.4 c 4.6,-0.1 9.4,-0.1 14,-0.1 503.4,-0.1 913.6,407.2 915.5,912.4 l 34.7,10080.8 c 0,0.7 0,1.4 0,2.1 0.3,363.6 -289.7,661.1 -653.4,670 l -21252.22,429.3 c -6.03,0.2 -12.03,0.3 -18.02,0.3 -399.42,0 -725.34,-324.1 -725.34,-725.7 v -6748.3 l -671.79,17.4 v 6678.7 c 0,641.9 512.4,1166.1 1154.11,1180.5 408.09,9.1 945.16,13.3 1583.56,13.3 4751,0 15076,-230.4 19008.5,-340.6 356.7,-10 661,-19 903.5,-26.8 591.5,-18.9 1085.1,-456.2 1175.9,-1040.9 431.5,-2776.7 314.9,-8757.6 243.1,-11244.9 -14.7,-508.7 -345.6,-936.7 -802.3,-1095.3 -117.5,-40.8 -243.4,-63.7 -374.3,-65.7 -368.2,-5.4 -833.2,-7.9 -1377.3,-7.9"
         id="path52" /></clipPath><linearGradient
       x1="0"
       y1="0"
       x2="1"
       y2="0"
       gradientUnits="userSpaceOnUse"
       gradientTransform="matrix(24139,0,0,-24139,8336.73,19965.6)"
       spreadMethod="pad"
       id="linearGradient60"><stop
         style="stop-opacity:1;stop-color:#09005d"
         offset="0"
         id="stop56" /><stop
         style="stop-opacity:1;stop-color:#1a0f91"
         offset="1"
         id="stop58" /></linearGradient><clipPath
       clipPathUnits="userSpaceOnUse"
       id="clipPath70"><path
         d="M 9008.52,25735 V 15563.2 c 0,-514.2 412.78,-933.2 926.94,-940.9 l 20757.84,-256.4 c 509.8,-7.6 927.6,402.5 929.5,912.3 l 34.7,10080.8 c 1.4,364.5 -289,663.2 -653.4,672.1 l -21252.22,429.3 c -407.59,10 -743.36,-317.7 -743.36,-725.4"
         id="path68" /></clipPath><linearGradient
       x1="0"
       y1="0"
       x2="1"
       y2="0"
       gradientUnits="userSpaceOnUse"
       gradientTransform="matrix(-1842.74,-23782,-23782,1842.74,21360.4,33987.6)"
       spreadMethod="pad"
       id="linearGradient76"><stop
         style="stop-opacity:1;stop-color:#53d8ff"
         offset="0"
         id="stop72" /><stop
         style="stop-opacity:1;stop-color:#3840f7"
         offset="1"
         id="stop74" /></linearGradient><clipPath
       clipPathUnits="userSpaceOnUse"
       id="clipPath88"><path
         d="m 25199,8693 h -8601.1 c -233.7,0 -409.2,166.3 -364,345 l 110.4,436.5 c 33.2,131.3 177.6,227.6 349.1,233 l 8291.7,258.7 c 179.2,5.6 337.9,-89.5 377,-225.9 L 25561,9045 c 51.7,-180.6 -124.6,-352 -362,-352"
         id="path86" /></clipPath><linearGradient
       x1="0"
       y1="0"
       x2="1"
       y2="0"
       gradientUnits="userSpaceOnUse"
       gradientTransform="matrix(-2805.83,-6160.62,-6160.62,2805.83,21130.5,9588.6)"
       spreadMethod="pad"
       id="linearGradient94"><stop
         style="stop-opacity:1;stop-color:#09005d"
         offset="0"
         id="stop90" /><stop
         style="stop-opacity:1;stop-color:#1a0f91"
         offset="1"
         id="stop92" /></linearGradient><clipPath
       clipPathUnits="userSpaceOnUse"
       id="clipPath106"><path
         d="m 31653.5,24179.9 4,1181.3 c 1.4,364.6 -289,662.1 -653.4,671 L 9757.31,26461 c -407.59,9.9 -737.93,-318.3 -737.93,-726 v -1555.1 z"
         id="path104" /></clipPath><linearGradient
       x1="0"
       y1="0"
       x2="1"
       y2="0"
       gradientUnits="userSpaceOnUse"
       gradientTransform="matrix(22638.1,0,0,-22638.1,9019.39,25320.6)"
       spreadMethod="pad"
       id="linearGradient112"><stop
         style="stop-opacity:1;stop-color:#4f52ff"
         offset="0"
         id="stop108" /><stop
         style="stop-opacity:1;stop-color:#4042e2"
         offset="1"
         id="stop110" /></linearGradient><clipPath
       clipPathUnits="userSpaceOnUse"
       id="clipPath134"><path
         d="M 19333,8798.9 H 6093.03 c -83.49,52 -139.34,144.6 -139.34,249.7 l -60.13,2543.2 -158.45,6701.3 c -4.8,202.9 73.9,398.9 217.74,542.3 139.3,138.9 327.86,216.6 524.12,216.6 6.39,0 12.83,-0.1 19.24,-0.3 l 1840.52,-47.6 671.79,-17.4 13043.28,-337.5 c 12.5,0.9 24.8,1.3 37,1.3 325.6,0 502.8,-299.1 502.8,-455 l -1,-65.6 -12.6,-868.4 c -92.9,-618.4 -149.7,-1290.1 -144.7,-2001 -95.1,5.8 -189.7,11.4 -284.4,16.8 l 35.5,2357 c -14.3,485.9 -429,669.1 -696,669.1 -7.6,0 -15.1,-0.1 -22.4,-0.4 l -14908.62,400 c -4.65,0.1 -9.32,0.2 -13.96,0.2 -137.72,0 -270.01,-54.7 -367.78,-152.2 -101.07,-100.8 -156.66,-238.8 -153.08,-381.5 l 221.72,-8838.8 c 0,-153.2 125.31,-278.5 278.46,-278.5 H 19335.4 c -0.9,-85 -1.7,-169.2 -2.4,-253.3"
         id="path132" /></clipPath><linearGradient
       x1="0"
       y1="0"
       x2="1"
       y2="0"
       gradientUnits="userSpaceOnUse"
       gradientTransform="matrix(-278.15,-12818.2,-12818.2,278.15,14212.6,19009.3)"
       spreadMethod="pad"
       id="linearGradient140"><stop
         style="stop-opacity:1;stop-color:#09005d"
         offset="0"
         id="stop136" /><stop
         style="stop-opacity:1;stop-color:#1a0f91"
         offset="1"
         id="stop138" /></linearGradient><clipPath
       clipPathUnits="userSpaceOnUse"
       id="clipPath152"><path
         d="M 19327,7995.2 H 4718.99 c -31.09,0 -56.53,25.4 -56.53,56.5 v 690.6 c 0,31.1 25.44,56.6 56.53,56.6 H 6093.03 19333 c -2.5,-274.6 -4.6,-543.8 -6,-803.7"
         id="path150" /></clipPath><linearGradient
       x1="0"
       y1="0"
       x2="1"
       y2="0"
       gradientUnits="userSpaceOnUse"
       gradientTransform="matrix(-203.217,-8585.65,-8585.65,203.217,14288.8,18696.3)"
       spreadMethod="pad"
       id="linearGradient158"><stop
         style="stop-opacity:1;stop-color:#09005d"
         offset="0"
         id="stop154" /><stop
         style="stop-opacity:1;stop-color:#1a0f91"
         offset="1"
         id="stop156" /></linearGradient><clipPath
       clipPathUnits="userSpaceOnUse"
       id="clipPath168"><path
         d="m 22171.9,16797 12.5,832 c -14.7,499.7 -452.8,681.9 -718.4,671.3 l -14908.62,401.3 c -142.7,3.9 -280.67,-50.4 -381.75,-151.3 -101.06,-100.8 -156.64,-243.8 -153.07,-386.5 l 34.17,-1366.8 z"
         id="path166" /></clipPath><linearGradient
       x1="0"
       y1="0"
       x2="1"
       y2="0"
       gradientUnits="userSpaceOnUse"
       gradientTransform="matrix(1981.71,24406.6,24406.6,-1981.71,12459.5,-2671.4)"
       spreadMethod="pad"
       id="linearGradient174"><stop
         style="stop-opacity:1;stop-color:#4f52ff"
         offset="0"
         id="stop170" /><stop
         style="stop-opacity:1;stop-color:#4042e2"
         offset="1"
         id="stop172" /></linearGradient><clipPath
       clipPathUnits="userSpaceOnUse"
       id="clipPath202"><path
         d="m 21503.7,22278.3 c -113.9,0 -219.9,60.4 -278.8,159.8 l -988.6,1666.5 c -92.5,156 -42.6,358.4 111.4,452.1 153.9,93.6 353.8,43.2 446.3,-112.8 l 686.2,-1156.9 907.2,1804.7 c 81.5,162.1 277.4,226.6 437.4,144.1 160.1,-82.6 223.8,-280.9 142.3,-443.1 l -1173.5,-2334.4 c -53.7,-106.8 -160.3,-175.6 -278.5,-179.8 -3.8,-0.1 -7.6,-0.2 -11.4,-0.2 z"
         id="path200" /></clipPath><linearGradient
       x1="0"
       y1="0"
       x2="1"
       y2="0"
       gradientUnits="userSpaceOnUse"
       gradientTransform="matrix(0,-5122.29,-5122.29,0,21596.2,32672.9)"
       spreadMethod="pad"
       id="linearGradient208"><stop
         style="stop-opacity:1;stop-color:#febbba"
         offset="0"
         id="stop204" /><stop
         style="stop-opacity:1;stop-color:#ff928e"
         offset="1"
         id="stop206" /></linearGradient><clipPath
       clipPathUnits="userSpaceOnUse"
       id="clipPath220"><path
         d="m 9704.24,12065.5 c -113.9,0 -219.85,60.4 -278.78,159.7 l -988.55,1666.6 c -92.53,156 -42.68,358.3 111.32,452 153.93,93.7 353.79,43.3 446.32,-112.7 l 686.22,-1156.9 907.13,1804.6 c 81.5,162.2 277.4,226.7 437.5,144.1 160.1,-82.5 223.8,-280.9 142.3,-443 L 9994.16,12245.4 c -53.66,-106.7 -160.32,-175.6 -278.48,-179.7 -3.81,-0.2 -7.63,-0.2 -11.44,-0.2 z"
         id="path218" /></clipPath><linearGradient
       x1="0"
       y1="0"
       x2="1"
       y2="0"
       gradientUnits="userSpaceOnUse"
       gradientTransform="matrix(0,-5122.29,-5122.29,0,9796.79,32672.9)"
       spreadMethod="pad"
       id="linearGradient226"><stop
         style="stop-opacity:1;stop-color:#febbba"
         offset="0"
         id="stop222" /><stop
         style="stop-opacity:1;stop-color:#ff928e"
         offset="1"
         id="stop224" /></linearGradient><clipPath
       clipPathUnits="userSpaceOnUse"
       id="clipPath236"><path
         d="m 9245.7,26165 c 338.86,658.2 969.1,1122.3 1701.2,1205.2 l 50.1,3169.4 c 0.4,27 -21.5,49.3 -48.6,49 -2064.87,-22.3 -3886.87,-1307.5 -4737.19,-3211 -12.37,-27.7 1.3,-60.2 29.66,-71 z"
         id="path234" /></clipPath><linearGradient
       x1="0"
       y1="0"
       x2="1"
       y2="0"
       gradientUnits="userSpaceOnUse"
       gradientTransform="matrix(-6924.84,-12737.7,-12737.7,6924.84,12869.2,35283.3)"
       spreadMethod="pad"
       id="linearGradient242"><stop
         style="stop-opacity:1;stop-color:#febbba"
         offset="0"
         id="stop238" /><stop
         style="stop-opacity:1;stop-color:#ff928e"
         offset="1"
         id="stop240" /></linearGradient><clipPath
       clipPathUnits="userSpaceOnUse"
       id="clipPath252"><path
         d="m 13325.9,24646.5 c -42.4,1.2 -80.4,-25.8 -93,-66.3 -35.5,-113.3 -100.3,-330.7 -110.9,-358.2 -51.6,-133.8 -112.1,-264.2 -182.9,-388.9 -131.4,-231.3 -299.3,-443.2 -506.6,-611 -525.2,-425.3 -1280.2,-504.4 -1910,-293.9 -17.9,6 -35.7,12.5 -53.5,19.1 -32.8,12.3 -69.6,-1.3 -86.4,-32 l -1588.02,-2896 c 771.1,-386.7 1496.72,-487.8 2407.12,-429.5 2645,169.6 4722,2317.2 4952.6,4980.5 z"
         id="path250" /></clipPath><linearGradient
       x1="0"
       y1="0"
       x2="1"
       y2="0"
       gradientUnits="userSpaceOnUse"
       gradientTransform="matrix(1363.78,-3384.65,-3384.65,-1363.78,11123,25648.7)"
       spreadMethod="pad"
       id="linearGradient258"><stop
         style="stop-opacity:1;stop-color:#ff928e"
         offset="0"
         id="stop254" /><stop
         style="stop-opacity:1;stop-color:#fe7062"
         offset="1"
         id="stop256" /></linearGradient><clipPath
       clipPathUnits="userSpaceOnUse"
       id="clipPath268"><path
         d="m 13325.9,24646.5 c -172.2,-1056.8 -953.2,-1882.6 -2014.6,-1918.6 -298.5,-10.1 -654.8,59.2 -916.7,165.3 -27.3,11.1 -58.6,-0.1 -73.4,-25.6 L 8688.96,20059.7 c 771.1,-386.7 1641.84,-576 2552.24,-517.6 2645,169.5 4722,2382.3 4952.6,5045.6 z"
         id="path266" /></clipPath><linearGradient
       x1="0"
       y1="0"
       x2="1"
       y2="0"
       gradientUnits="userSpaceOnUse"
       gradientTransform="matrix(-6924.85,-12737.7,-12737.7,6924.85,18186.3,32392.6)"
       spreadMethod="pad"
       id="linearGradient274"><stop
         style="stop-opacity:1;stop-color:#febbba"
         offset="0"
         id="stop270" /><stop
         style="stop-opacity:1;stop-color:#ff928e"
         offset="1"
         id="stop272" /></linearGradient><clipPath
       clipPathUnits="userSpaceOnUse"
       id="clipPath284"><path
         d="m 8348.74,20503 1580.42,2834.7 c 11.19,20 6.43,45.1 -11.15,59.9 -486.55,409.7 -875.52,959.1 -875.52,1671.5 0,175.7 -77.91,431.5 -42.22,596.3 l -2972.14,1062.8 c -164.99,-536.7 -254.06,-1107.9 -254.06,-1699.7 0,-1913.3 1016.59,-3596 2412.43,-4563.3 54.56,-37.8 129.91,-20.2 162.24,37.8 z"
         id="path282" /></clipPath><linearGradient
       x1="0"
       y1="0"
       x2="1"
       y2="0"
       gradientUnits="userSpaceOnUse"
       gradientTransform="matrix(-3285.68,3791.17,3791.17,3285.68,14571.8,16035.2)"
       spreadMethod="pad"
       id="linearGradient290"><stop
         style="stop-opacity:1;stop-color:#ff928e"
         offset="0"
         id="stop286" /><stop
         style="stop-opacity:1;stop-color:#fe7062"
         offset="1"
         id="stop288" /></linearGradient><clipPath
       clipPathUnits="userSpaceOnUse"
       id="clipPath300"><path
         d="m 8190.71,20583.6 1637.79,2799.6 c 20.8,35.5 13.64,80.9 -17.3,108.1 -469.81,413.2 -768.71,1034.3 -768.71,1735.1 0,175.7 18.97,347 54.66,511.9 l -3024.51,1130.6 c -24.09,9 -50.94,-4.2 -58.29,-28.8 -156.16,-523.5 -240.28,-1079.1 -240.28,-1654.3 0,-1959.8 968.34,-3647.4 2416.64,-4602.2 z"
         id="path298" /></clipPath><linearGradient
       x1="0"
       y1="0"
       x2="1"
       y2="0"
       gradientUnits="userSpaceOnUse"
       gradientTransform="matrix(-6924.85,-12737.7,-12737.7,6924.85,13318,35039.2)"
       spreadMethod="pad"
       id="linearGradient306"><stop
         style="stop-opacity:1;stop-color:#febbba"
         offset="0"
         id="stop302" /><stop
         style="stop-opacity:1;stop-color:#ff928e"
         offset="1"
         id="stop304" /></linearGradient><clipPath
       clipPathUnits="userSpaceOnUse"
       id="clipPath316"><path
         d="m 11526.3,27355.1 c 937.5,-156.8 1664.5,-946.2 1787.6,-1932.6 6.6,-52.8 50.2,-93.1 103.3,-94.9 l 4534.2,-151.9 c 14.1,13.6 21.5,20.8 35.6,34.5 -13.9,3793.1 -2733.7,7042.7 -6377,7472.9 z"
         id="path314" /></clipPath><linearGradient
       x1="0"
       y1="0"
       x2="1"
       y2="0"
       gradientUnits="userSpaceOnUse"
       gradientTransform="matrix(9000.95,-8257.08,-8257.08,-9000.95,11183.5,31096.5)"
       spreadMethod="pad"
       id="linearGradient322"><stop
         style="stop-opacity:1;stop-color:#e1473d"
         offset="0"
         id="stop318" /><stop
         style="stop-opacity:1;stop-color:#e9605a"
         offset="1"
         id="stop320" /></linearGradient><clipPath
       clipPathUnits="userSpaceOnUse"
       id="clipPath332"><path
         d="m 11943.3,6235.2 c 4.1,1.6 2183.7,3818.5 2478.2,4177.7 49.5,60.4 126.2,91.2 203.8,81.9 l 608.4,-72.5 714.6,-1546.1 -1190.6,693.4 C 14875.5,8754.8 13346,7543.9 12821.4,7102 c -53.2,-44.8 -57.6,-125.1 -9.5,-175.4 l 209.4,-219.3 C 12677.5,6358.8 12280.7,6135 11833,6031.5 Z"
         id="path330" /></clipPath><linearGradient
       x1="0"
       y1="0"
       x2="1"
       y2="0"
       gradientUnits="userSpaceOnUse"
       gradientTransform="matrix(3436.23,-1961.35,1961.35,3436.23,11420.9,9432.7)"
       spreadMethod="pad"
       id="linearGradient338"><stop
         style="stop-opacity:1;stop-color:#febbba"
         offset="0"
         id="stop334" /><stop
         style="stop-opacity:1;stop-color:#ff928e"
         offset="1"
         id="stop336" /></linearGradient><clipPath
       clipPathUnits="userSpaceOnUse"
       id="clipPath348"><path
         d="m 12900.2,6825.6 c 0,0 133.6,-43.1 178.9,-162.2 21.6,-56.9 -1.7,-121.4 -51.2,-156.9 -220.1,-157.7 -946.1,-666.8 -1281.1,-766.5 -27.5,-8.1 -53.6,16.7 -47.4,44.7 17.2,77.8 72.8,233.2 251.9,460.7 l -16,-32.5 c -20.4,-41.1 24.4,-84 64.4,-61.4 224.1,126.5 680.5,403.3 900.5,674.1 z"
         id="path346" /></clipPath><linearGradient
       x1="0"
       y1="0"
       x2="1"
       y2="0"
       gradientUnits="userSpaceOnUse"
       gradientTransform="matrix(1547.81,-3746.12,-3746.12,-1547.81,11870.1,7471.6)"
       spreadMethod="pad"
       id="linearGradient354"><stop
         style="stop-opacity:1;stop-color:#4f52ff"
         offset="0"
         id="stop350" /><stop
         style="stop-opacity:1;stop-color:#4042e2"
         offset="1"
         id="stop352" /></linearGradient><clipPath
       clipPathUnits="userSpaceOnUse"
       id="clipPath364"><path
         d="m 12792.3,5298.4 c 3.7,2.4 330.7,790.2 334.3,792.5 299.8,1825.5 1031.4,3388.9 1247.1,3800.3 36.3,69.2 105.2,114.8 183,121.5 l 610.5,52.1 1012.8,-1369.5 -1306.4,438.1 c 280.3,-774.1 -972.5,-2269.5 -1396.8,-2808.4 -43.1,-54.7 -31.1,-134.2 26.1,-173.8 l 249.5,-172.3 c -266.2,-410.9 -609.4,-710.3 -1027,-902.3 z"
         id="path362" /></clipPath><linearGradient
       x1="0"
       y1="0"
       x2="1"
       y2="0"
       gradientUnits="userSpaceOnUse"
       gradientTransform="matrix(-11757.1,7360.11,-7360.11,-11757.1,11753.3,8943.5)"
       spreadMethod="pad"
       id="linearGradient370"><stop
         style="stop-opacity:1;stop-color:#febbba"
         offset="0"
         id="stop366" /><stop
         style="stop-opacity:1;stop-color:#ff928e"
         offset="1"
         id="stop368" /></linearGradient><clipPath
       clipPathUnits="userSpaceOnUse"
       id="clipPath380"><path
         d="m 13609.8,6070.3 c 0,0 139.7,-15.3 208.1,-122.7 32.7,-51.4 22.9,-119.3 -18.4,-164.1 -183.7,-198.9 -791.6,-844.4 -1099.5,-1009.8 -25.2,-13.6 -55.8,5.5 -55.4,34.1 1,79.7 24,243.2 153.5,502.2 l -9.2,-35.1 c -11.6,-44.4 40.9,-77.3 75.5,-47.1 193.9,169.3 584.8,532.7 745.4,842.5 z"
         id="path378" /></clipPath><linearGradient
       x1="0"
       y1="0"
       x2="1"
       y2="0"
       gradientUnits="userSpaceOnUse"
       gradientTransform="matrix(2273.84,-3354.97,-3354.97,-2273.84,12470.4,6494.2)"
       spreadMethod="pad"
       id="linearGradient386"><stop
         style="stop-opacity:1;stop-color:#4f52ff"
         offset="0"
         id="stop382" /><stop
         style="stop-opacity:1;stop-color:#4042e2"
         offset="1"
         id="stop384" /></linearGradient><clipPath
       clipPathUnits="userSpaceOnUse"
       id="clipPath396"><path
         d="m 18024.5,10353.2 c 0,0 552.2,-821.4 597.6,-1196 45.3,-374.7 -152.7,-504.3 -730.7,-552 -1720,-142.2 -2567.9,373.3 -2567.9,373.3 -117.7,750.2 -201.4,941 -1184.1,1348.9 0,0 1242.9,-98.7 1493.1,-1.6 250.1,97.1 2392,27.4 2392,27.4 z"
         id="path394" /></clipPath><linearGradient
       x1="0"
       y1="0"
       x2="1"
       y2="0"
       gradientUnits="userSpaceOnUse"
       gradientTransform="matrix(2826.17,-3097.17,3097.17,2826.17,14639.6,11895.3)"
       spreadMethod="pad"
       id="linearGradient402"><stop
         style="stop-opacity:1;stop-color:#e1473d"
         offset="0"
         id="stop398" /><stop
         style="stop-opacity:1;stop-color:#e9605a"
         offset="1"
         id="stop400" /></linearGradient><clipPath
       clipPathUnits="userSpaceOnUse"
       id="clipPath412"><path
         d="m 15822.5,14955 c 0,0 384.6,455 793.5,-103.3 74,-101.1 358.5,-17.7 462.8,-229.4 53.8,-109.3 170.1,-171.3 289.9,-149.2 298.4,55 786.1,59.6 1026.9,-407.9 183.8,-356.9 41.9,-565.8 -141.9,-684.9 -134.9,-87.5 -183.1,-265 -101.5,-403.6 78.3,-132.9 93,-312.9 -109.1,-529.5 -452.9,-485.4 -1349.4,308.1 -1349.4,308.1 l -711.8,1682 z"
         id="path410" /></clipPath><linearGradient
       x1="0"
       y1="0"
       x2="1"
       y2="0"
       gradientUnits="userSpaceOnUse"
       gradientTransform="matrix(1494.03,-1724.78,-1724.78,-1494.03,15233.6,16097)"
       spreadMethod="pad"
       id="linearGradient418"><stop
         style="stop-opacity:1;stop-color:#09005d"
         offset="0"
         id="stop414" /><stop
         style="stop-opacity:1;stop-color:#1a0f91"
         offset="1"
         id="stop416" /></linearGradient><clipPath
       clipPathUnits="userSpaceOnUse"
       id="clipPath428"><path
         d="m 16531.1,10461.9 c 0,0 -643.1,612.4 -959.6,1017.9 -171.1,219.3 -224.8,507.9 -145.7,774.5 144.5,486.9 401.3,991.1 424.8,1069.6 35.9,120.3 756.9,115.3 756.9,115.3 0,0 1418.9,-920.8 1976.3,-2480.7 l -626,-194.9 c 0,0 -370.5,621.5 -736.5,1016.7 0,0 633.3,-836.7 655.6,-1179.3 z"
         id="path426" /></clipPath><linearGradient
       x1="0"
       y1="0"
       x2="1"
       y2="0"
       gradientUnits="userSpaceOnUse"
       gradientTransform="matrix(-741.386,-1415.37,-1415.37,741.386,19362.5,16237.4)"
       spreadMethod="pad"
       id="linearGradient434"><stop
         style="stop-opacity:1;stop-color:#ff928e"
         offset="0"
         id="stop430" /><stop
         style="stop-opacity:1;stop-color:#fe7062"
         offset="1"
         id="stop432" /></linearGradient><clipPath
       clipPathUnits="userSpaceOnUse"
       id="clipPath444"><path
         d="m 15305.9,10220.3 483.2,525.7 558,-150.2 c 0,0 650.6,-100.8 1022.9,0 372.4,100.8 372.4,100.8 372.4,100.8 l 841.4,261.9 132.2,-373.5 c 33.6,-94.8 -0.2,-200.1 -82.2,-258.3 -72.7,-51.8 -158.1,-108.6 -212.5,-132.4 -110.8,-48.5 -2552.6,-15.3 -2552.6,-15.3 z"
         id="path442" /></clipPath><linearGradient
       x1="0"
       y1="0"
       x2="1"
       y2="0"
       gradientUnits="userSpaceOnUse"
       gradientTransform="matrix(3423,0,0,-3423,17439.3,10563.2)"
       spreadMethod="pad"
       id="linearGradient450"><stop
         style="stop-opacity:1;stop-color:#febbba"
         offset="0"
         id="stop446" /><stop
         style="stop-opacity:1;stop-color:#ff928e"
         offset="1"
         id="stop448" /></linearGradient><clipPath
       clipPathUnits="userSpaceOnUse"
       id="clipPath460"><path
         d="m 16112,14306.2 484.6,-901.2 c -32,-196.7 -527.5,-202.2 -604,-84.8 -7.8,12 -12.3,25.8 -15.2,39.8 l -289.9,602.1 c -12.5,58.7 148.5,256.5 201.5,284.7 l 192.6,102.6 c 74.2,39.4 -235.3,42.6 30.4,-43.2 z"
         id="path458" /></clipPath><linearGradient
       x1="0"
       y1="0"
       x2="1"
       y2="0"
       gradientUnits="userSpaceOnUse"
       gradientTransform="matrix(79.1238,1232.96,1232.96,-79.1238,16046.2,12199.2)"
       spreadMethod="pad"
       id="linearGradient466"><stop
         style="stop-opacity:1;stop-color:#febbba"
         offset="0"
         id="stop462" /><stop
         style="stop-opacity:1;stop-color:#ff928e"
         offset="1"
         id="stop464" /></linearGradient><clipPath
       clipPathUnits="userSpaceOnUse"
       id="clipPath476"><path
         d="m 15131.2,14517.7 c 0,0 -54.7,-304.5 184.6,-691.6 239.3,-387.1 477.6,-369.6 598.6,-231.6 121.1,138.1 266.1,368 200.1,754.1 -66,386.1 -900.7,557.3 -983.3,169.1 z"
         id="path474" /></clipPath><linearGradient
       x1="0"
       y1="0"
       x2="1"
       y2="0"
       gradientUnits="userSpaceOnUse"
       gradientTransform="matrix(-1489.46,2850.48,2850.48,1489.46,16162.7,13242.4)"
       spreadMethod="pad"
       id="linearGradient482"><stop
         style="stop-opacity:1;stop-color:#febbba"
         offset="0"
         id="stop478" /><stop
         style="stop-opacity:1;stop-color:#ff928e"
         offset="1"
         id="stop480" /></linearGradient><clipPath
       clipPathUnits="userSpaceOnUse"
       id="clipPath492"><path
         d="m 15824.8,14306.6 c 0,0 -387.4,509 -684.9,65.3 l 5,-153.2 c 0,0 -386.9,18 -344.9,374.6 41.9,356.6 357.8,600.1 795.6,478.3 437.9,-121.8 693.7,-260.5 743.1,-564.5 49.5,-304 -198.7,-254.4 -198.7,-254.4 0,0 -94.9,209.8 -209.3,224.1 -114.5,14.3 -73.2,-151.6 -73.2,-151.6 z"
         id="path490" /></clipPath><linearGradient
       x1="0"
       y1="0"
       x2="1"
       y2="0"
       gradientUnits="userSpaceOnUse"
       gradientTransform="matrix(2085.69,-418.475,-418.475,-2085.69,14301.6,14859)"
       spreadMethod="pad"
       id="linearGradient498"><stop
         style="stop-opacity:1;stop-color:#09005d"
         offset="0"
         id="stop494" /><stop
         style="stop-opacity:1;stop-color:#1a0f91"
         offset="1"
         id="stop496" /></linearGradient><clipPath
       clipPathUnits="userSpaceOnUse"
       id="clipPath508"><path
         d="m 15913.8,14320.2 c 0,0 -200.8,260.5 -18.1,314.5 182.8,54.1 175.9,-255.2 164,-370.2 z"
         id="path506" /></clipPath><linearGradient
       x1="0"
       y1="0"
       x2="1"
       y2="0"
       gradientUnits="userSpaceOnUse"
       gradientTransform="matrix(-1489.45,2850.46,2850.46,1489.45,16503.6,13420.6)"
       spreadMethod="pad"
       id="linearGradient514"><stop
         style="stop-opacity:1;stop-color:#febbba"
         offset="0"
         id="stop510" /><stop
         style="stop-opacity:1;stop-color:#ff928e"
         offset="1"
         id="stop512" /></linearGradient><clipPath
       clipPathUnits="userSpaceOnUse"
       id="clipPath524"><path
         d="m 16905.3,10012.2 c -1.7,-0.1 -3.4,-0.1 -5.1,-0.1 l -2222.5,2.4 c -54.9,0.1 -99.4,44.7 -99.4,99.6 0.1,55 44.8,100.4 99.6,99.4 l 2222.5,-2.4 c 55,-0.1 99.5,-44.7 99.4,-99.6 -0.1,-53.2 -41.9,-96.7 -94.5,-99.3 z"
         id="path522" /></clipPath><linearGradient
       x1="0"
       y1="0"
       x2="1"
       y2="0"
       gradientUnits="userSpaceOnUse"
       gradientTransform="matrix(-1764.28,-578.647,-578.647,1764.28,17282.4,10602.7)"
       spreadMethod="pad"
       id="linearGradient530"><stop
         style="stop-opacity:1;stop-color:#09005d"
         offset="0"
         id="stop526" /><stop
         style="stop-opacity:1;stop-color:#1a0f91"
         offset="1"
         id="stop528" /></linearGradient><clipPath
       clipPathUnits="userSpaceOnUse"
       id="clipPath540"><path
         d="m 12679.8,12030.1 h 1850.9 c 136.5,0 260.8,-78.8 319.1,-202.3 l 855.6,-1814.4 h -2300.2 c -87.9,0 -167,53.8 -199.4,135.6 l -663.5,1679 c -38.3,97 33.2,202.1 137.5,202.1 z"
         id="path538" /></clipPath><linearGradient
       x1="0"
       y1="0"
       x2="1"
       y2="0"
       gradientUnits="userSpaceOnUse"
       gradientTransform="matrix(16105.2,1355.01,1355.01,-16105.2,12634.9,10891)"
       spreadMethod="pad"
       id="linearGradient546"><stop
         style="stop-opacity:1;stop-color:#09005d"
         offset="0"
         id="stop542" /><stop
         style="stop-opacity:1;stop-color:#1a0f91"
         offset="1"
         id="stop544" /></linearGradient><clipPath
       clipPathUnits="userSpaceOnUse"
       id="clipPath556"><path
         d="m 13983.8,11099.8 c 40.1,-124.6 10.4,-245.6 -66.2,-270.3 -76.7,-24.7 -171.3,56.3 -211.4,181 -40.2,124.6 -10.5,245.6 66.1,270.3 76.7,24.6 171.4,-56.4 211.5,-181 z"
         id="path554" /></clipPath><linearGradient
       x1="0"
       y1="0"
       x2="1"
       y2="0"
       gradientUnits="userSpaceOnUse"
       gradientTransform="matrix(-1891.2,-4655.27,-4655.27,1891.2,15341.6,14739.2)"
       spreadMethod="pad"
       id="linearGradient562"><stop
         style="stop-opacity:1;stop-color:#4f52ff"
         offset="0"
         id="stop558" /><stop
         style="stop-opacity:1;stop-color:#4042e2"
         offset="1"
         id="stop560" /></linearGradient><clipPath
       clipPathUnits="userSpaceOnUse"
       id="clipPath572"><path
         d="m 25748.1,6799.1 c 1.3,93.6 2.7,190.8 4,291 49.5,-54.2 99.7,-108.3 150.6,-162.4 -51.5,-44 -103,-86.8 -154.6,-128.6 m 937.2,911.7 c 494.3,1440.3 1003.7,4141.1 -511.1,7175.2 -309.5,619.9 -578.5,1188.4 -812.4,1708.2 19.8,533 83.3,1033.6 180.2,1502.1 556.4,2689.8 2214.1,4321.9 3030.1,4983.6 31.4,25.5 68.5,36.7 104.8,36.7 89.9,0 174.4,-68.8 153.2,-159.3 -221.6,-943.4 91.5,-2738.6 255.7,-4901.3 74.3,-978.6 118.1,-2032 68,-3116.1 -8.5,-183.9 -19.7,-369.1 -33.9,-554.6 -8.3,-109.3 -17.7,-218.6 -28.3,-328.3 -2.1,-22.3 -4.3,-44.4 -6.5,-66.7 -31,-310.2 -71,-621.9 -121.3,-933.9 -267.9,-1658.9 -829.6,-3328.6 -1899.8,-4855.9 -121.1,-172.8 -247.9,-336 -378.7,-489.7"
         id="path570" /></clipPath><linearGradient
       x1="0"
       y1="0"
       x2="1"
       y2="0"
       gradientUnits="userSpaceOnUse"
       gradientTransform="matrix(6081.37,0,0,-6081.37,23093.9,14255.3)"
       spreadMethod="pad"
       id="linearGradient578"><stop
         style="stop-opacity:1;stop-color:#4f52ff"
         offset="0"
         id="stop574" /><stop
         style="stop-opacity:1;stop-color:#4042e2"
         offset="1"
         id="stop576" /></linearGradient><clipPath
       clipPathUnits="userSpaceOnUse"
       id="clipPath594"><path
         d="m 23672.3,5277 c -267.3,0 -545,1.6 -824.4,4.4 -1310.8,12.8 -2662.1,51 -3184.3,71 -177.4,6.8 -319.6,173.4 -325.2,380.9 -14.4,537.1 -16.6,1342.6 -11.4,2261.9 1.4,259.9 3.5,529.1 6,803.7 0.7,84.1 1.5,168.3 2.4,253.3 1.2,119.8 2.5,240.9 3.8,362.1 9.8,871.1 23.3,1770.8 37.2,2596.1 3.2,189.7 6.5,375.8 9.7,556.3 17.1,965.5 33.8,1781.4 43.9,2254.9 5.5,262 180.7,476.2 404.3,493.2 176.9,13.4 394.4,19.4 640,19.4 369.2,0 801.9,-13.5 1256,-35.1 50.6,-2.4 101.4,-4.9 152.4,-7.5 27.1,-1.4 54.3,-2.8 81.5,-4.3 61.3,-3.2 123,-6.6 184.7,-10 94.7,-5.4 189.3,-11 284.4,-16.8 1157.5,-71.3 2315.9,-177 2825.9,-236.7 221.6,-26 395.8,-232.7 414.5,-492.4 128.9,-1786.4 106.9,-5314.7 78.4,-7441.3 -1.3,-100.2 -2.7,-197.4 -4,-291 -2.4,-168.9 -4.9,-326.7 -7.2,-471.3 -2.3,-137.8 -4.4,-263.6 -6.4,-375.9 -6.2,-349.9 -243.9,-633.1 -542.8,-647.7 -398.5,-19.6 -934.2,-27.2 -1519.4,-27.2 m -3033.9,9480.4 c -180.3,0 -338,-3.7 -465.4,-11.8 -191.3,-12.2 -343.4,-191.8 -351.6,-415.7 -47.2,-1293.3 -196.2,-5596 -148.9,-7187.1 6.9,-232.5 163.6,-420.6 362.1,-434.2 577.4,-39.5 2138.4,-112.7 3428,-112.7 536.5,0 1025.8,12.7 1378.1,45.7 215.9,20.2 385.4,224.5 397.1,477.6 60.7,1319.5 235.2,5325.9 189.9,6899.1 -7.2,251 -173.4,455.9 -387.2,478.4 -773.9,81.3 -3140,260.7 -4402.1,260.7 m 1169.6,372.4 c -46.7,0 -91.8,-0.8 -134.3,-2.6 -42.4,-1.8 -75.7,-42.8 -75.7,-92.4 0,-49.2 32.8,-89.7 74.7,-92.3 207.3,-12.7 790.9,-48.6 1051.8,-66.3 1.6,-0.1 3.2,-0.2 4.7,-0.2 49.2,0 86.8,52.6 77.4,110 l -1.7,10.1 c -6.7,40.3 -35.3,70.7 -70.3,74.5 -155.1,16.6 -585.3,59.2 -926.6,59.2"
         id="path592" /></clipPath><linearGradient
       x1="0"
       y1="0"
       x2="1"
       y2="0"
       gradientUnits="userSpaceOnUse"
       gradientTransform="matrix(6449.49,0,0,-6449.49,19324.5,10305.6)"
       spreadMethod="pad"
       id="linearGradient600"><stop
         style="stop-opacity:1;stop-color:#09005d"
         offset="0"
         id="stop596" /><stop
         style="stop-opacity:1;stop-color:#1a0f91"
         offset="1"
         id="stop598" /></linearGradient><clipPath
       clipPathUnits="userSpaceOnUse"
       id="clipPath612"><path
         d="m 22729.2,14876 c -1.5,0 -3.1,0.1 -4.7,0.2 -260.9,17.7 -844.5,53.6 -1051.8,66.3 -41.9,2.6 -74.7,43.1 -74.7,92.3 0,49.6 33.3,90.6 75.7,92.4 42.5,1.8 87.6,2.6 134.3,2.6 341.3,0 771.5,-42.6 926.6,-59.2 35,-3.8 63.6,-34.2 70.3,-74.5 l 1.7,-10.1 c 9.4,-57.4 -28.2,-110 -77.4,-110"
         id="path610" /></clipPath><linearGradient
       x1="0"
       y1="0"
       x2="1"
       y2="0"
       gradientUnits="userSpaceOnUse"
       gradientTransform="matrix(6449.49,0,0,-6449.49,19324.5,10305.6)"
       spreadMethod="pad"
       id="linearGradient618"><stop
         style="stop-opacity:1;stop-color:#8480ae"
         offset="0"
         id="stop614" /><stop
         style="stop-opacity:1;stop-color:#8d87c8"
         offset="1"
         id="stop616" /></linearGradient><clipPath
       clipPathUnits="userSpaceOnUse"
       id="clipPath628"><path
         d="m 25434.8,13528.8 -5637.1,127.7 c 11.1,312.9 16.4,471 23.7,671.6 8.2,223.9 160.3,404.9 351.6,417.1 127.2,8.1 284.5,11.8 464.5,11.8 1261.9,0 3628.9,-179.8 4403,-261.1 213.8,-22.5 380,-228.3 387.2,-479.2 4.1,-143.2 6.4,-314.1 7.1,-487.9 m -4143.2,639.7 c -86.4,0 -156.5,-70 -156.5,-156.4 0,-86.4 70.1,-156.5 156.5,-156.5 86.4,0 156.4,70.1 156.4,156.5 0,86.4 -70,156.4 -156.4,156.4 m -486.8,29 c -86.4,0 -156.4,-70 -156.4,-156.4 0,-86.5 70,-156.5 156.4,-156.5 86.4,0 156.5,70 156.5,156.5 0,86.4 -70.1,156.4 -156.5,156.4 m -521.5,15.1 c -86.4,0 -156.5,-70.1 -156.5,-156.5 0,-86.4 70.1,-156.4 156.5,-156.4 86.4,0 156.4,70 156.4,156.4 0,86.4 -70,156.5 -156.4,156.5"
         id="path626" /></clipPath><linearGradient
       x1="0"
       y1="0"
       x2="1"
       y2="0"
       gradientUnits="userSpaceOnUse"
       gradientTransform="matrix(695.389,10291.7,10291.7,-695.389,22068.7,5650.9)"
       spreadMethod="pad"
       id="linearGradient634"><stop
         style="stop-opacity:1;stop-color:#4f52ff"
         offset="0"
         id="stop630" /><stop
         style="stop-opacity:1;stop-color:#4042e2"
         offset="1"
         id="stop632" /></linearGradient><clipPath
       clipPathUnits="userSpaceOnUse"
       id="clipPath652"><path
         d="m 20283.3,13899.7 c -86.4,0 -156.5,70 -156.5,156.4 0,86.4 70.1,156.5 156.5,156.5 86.4,0 156.4,-70.1 156.4,-156.5 0,-86.4 -70,-156.4 -156.4,-156.4"
         id="path650" /></clipPath><linearGradient
       x1="0"
       y1="0"
       x2="1"
       y2="0"
       gradientUnits="userSpaceOnUse"
       gradientTransform="matrix(695.389,10291.7,10291.7,-695.389,22068.7,5650.9)"
       spreadMethod="pad"
       id="linearGradient658"><stop
         style="stop-opacity:1;stop-color:#d1d2ff"
         offset="0"
         id="stop654" /><stop
         style="stop-opacity:1;stop-color:#cecef7"
         offset="1"
         id="stop656" /></linearGradient><clipPath
       clipPathUnits="userSpaceOnUse"
       id="clipPath668"><path
         d="m 20804.8,13884.6 c -86.4,0 -156.4,70 -156.4,156.5 0,86.4 70,156.4 156.4,156.4 86.4,0 156.5,-70 156.5,-156.4 0,-86.5 -70.1,-156.5 -156.5,-156.5"
         id="path666" /></clipPath><linearGradient
       x1="0"
       y1="0"
       x2="1"
       y2="0"
       gradientUnits="userSpaceOnUse"
       gradientTransform="matrix(695.389,10291.7,10291.7,-695.389,22068.7,5650.9)"
       spreadMethod="pad"
       id="linearGradient674"><stop
         style="stop-opacity:1;stop-color:#d1d2ff"
         offset="0"
         id="stop670" /><stop
         style="stop-opacity:1;stop-color:#cecef7"
         offset="1"
         id="stop672" /></linearGradient><clipPath
       clipPathUnits="userSpaceOnUse"
       id="clipPath684"><path
         d="m 21291.6,13855.6 c -86.4,0 -156.5,70.1 -156.5,156.5 0,86.4 70.1,156.4 156.5,156.4 86.4,0 156.4,-70 156.4,-156.4 0,-86.4 -70,-156.5 -156.4,-156.5"
         id="path682" /></clipPath><linearGradient
       x1="0"
       y1="0"
       x2="1"
       y2="0"
       gradientUnits="userSpaceOnUse"
       gradientTransform="matrix(695.389,10291.7,10291.7,-695.389,22068.7,5650.9)"
       spreadMethod="pad"
       id="linearGradient690"><stop
         style="stop-opacity:1;stop-color:#d1d2ff"
         offset="0"
         id="stop686" /><stop
         style="stop-opacity:1;stop-color:#cecef7"
         offset="1"
         id="stop688" /></linearGradient><clipPath
       clipPathUnits="userSpaceOnUse"
       id="clipPath702"><path
         d="m 22703.1,9961 c -88.1,0 -170.1,46.8 -215.7,123.6 l -764.9,1289.6 c -71.6,120.7 -33,277.3 86.1,349.8 119.1,72.5 273.8,33.5 345.4,-87.2 l 531,-895.2 702,1396.4 c 63,125.5 214.6,175.4 338.5,111.5 123.8,-63.8 173.2,-217.3 110.1,-342.8 l -908.1,-1806.4 c -41.5,-82.6 -124.1,-135.9 -215.5,-139.1 -3,-0.1 -5.9,-0.2 -8.9,-0.2 z"
         id="path700" /></clipPath><linearGradient
       x1="0"
       y1="0"
       x2="1"
       y2="0"
       gradientUnits="userSpaceOnUse"
       gradientTransform="matrix(0,-5122.3,-5122.3,0,22774.8,32672.9)"
       spreadMethod="pad"
       id="linearGradient708"><stop
         style="stop-opacity:1;stop-color:#febbba"
         offset="0"
         id="stop704" /><stop
         style="stop-opacity:1;stop-color:#ff928e"
         offset="1"
         id="stop706" /></linearGradient></defs><sodipodi:namedview
     pagecolor="#ffffff"
     bordercolor="#666666"
     borderopacity="1"
     objecttolerance="10"
     gridtolerance="10"
     guidetolerance="10"
     inkscape:pageopacity="0"
     inkscape:pageshadow="2"
     inkscape:window-width="640"
     inkscape:window-height="480"
     id="namedview4" /><g
     id="g10"
     inkscape:groupmode="layer"
     inkscape:label="ink_ext_XXXXXX"
     transform="matrix(1.3333333,0,0,-1.3333333,0,4946.6667)"><g
       id="g12"
       transform="scale(0.1)"><path
         d="M 0,0 H 37100 V 37100 H 0 Z"
         style="fill:#ffffff;fill-opacity:1;fill-rule:nonzero;stroke:none"
         id="path14" /><g
         id="g16"><g
           id="g18"
           clip-path="url(#clipPath22)"><path
             d="m 18903.8,4820 c -1681.9,0 -2966.7,235.1 -3479.1,339.2 -1553.3,315.5 -4317.6,876.8 -6699.96,2836 H 19327 c -5.2,-919.3 -3,-1724.8 11.4,-2261.9 5.6,-207.5 147.8,-374.1 325.2,-380.9 522.2,-20 1873.5,-58.2 3184.3,-71 C 21426.3,4933 20069.8,4820 18903.8,4820 m 6837.1,1507.8 c 2.3,144.6 4.8,302.4 7.2,471.3 51.6,41.8 103.1,84.6 154.6,128.6 3.2,-3.4 6.3,-6.7 9.6,-10.2 60,-63.7 138.7,-93.8 216.8,-93.8 112.7,0 224,62.7 276.1,177.8 81.7,180.3 180.6,419.2 280.1,709.3 130.8,153.7 257.6,316.9 378.7,489.7 1070.2,1527.3 1631.9,3197 1899.8,4855.9 314.5,-1.3 611.1,-1.9 887.7,-1.9 544.1,0 1009.1,2.5 1377.3,7.9 130.9,2 256.8,24.9 374.3,65.7 C 31053.5,11394.7 30218,9870.9 29143,8739.2 28573.6,8139.7 28034.7,7753.1 27609,7447.6 26996.6,7008.2 26370.5,6638.3 25740.9,6327.8 m -19847.34,5264 c -2203.97,4503.6 -1371.09,10358.7 1213.84,14434.4 557.49,879 3502.3,5757.6 9487.5,6540 594.1,77.6 1204.8,116.9 1823.4,116.9 3153,0 6522.6,-1018.5 9078.8,-3160.2 1037.4,-869 1894.9,-1881.1 2585.8,-2986.9 -3932.5,110.2 -14257.5,340.6 -19008.5,340.6 -638.4,0 -1175.47,-4.2 -1583.56,-13.3 -641.71,-14.4 -1154.11,-538.6 -1154.11,-1180.5 v -6678.7 l -1840.52,47.6 c -6.41,0.2 -12.85,0.3 -19.24,0.3 -196.26,0 -384.82,-77.7 -524.12,-216.6 -143.84,-143.4 -222.54,-339.4 -217.74,-542.3 l 158.45,-6701.3"
             style="fill:url(#linearGradient28);fill-opacity:1;fill-rule:nonzero;stroke:none"
             id="path30" /></g></g><g
         id="g32"><g
           id="g34"
           clip-path="url(#clipPath38)"><path
             d="m 18562.8,14165.4 -506.5,-4542.9 h 5876.8 l -765.5,4542.9 h -4604.8"
             style="fill:url(#linearGradient44);fill-opacity:1;fill-rule:nonzero;stroke:none"
             id="path46" /></g></g><g
         id="g48"><g
           id="g50"
           clip-path="url(#clipPath54)"><path
             d="m 29851.5,13054.5 c -276.6,0 -573.2,0.6 -887.7,1.9 50.3,312 90.3,623.7 121.3,933.9 l 2693.4,-45.9 h 0.6 c 18.1,0 33,14.6 33.3,32.8 0.4,18.4 -14.3,33.6 -32.7,34 l -2688.1,45.8 c 10.6,109.7 20,219 28.3,328.3 l 1573.4,-19.4 c 4.6,-0.1 9.4,-0.1 14,-0.1 503.4,-0.1 913.6,407.2 915.5,912.4 l 34.7,10080.8 c 0,0.7 0,1.4 0,2.1 0.3,363.6 -289.7,661.1 -653.4,670 l -21252.22,429.3 c -6.03,0.2 -12.03,0.3 -18.02,0.3 -399.42,0 -725.34,-324.1 -725.34,-725.7 v -6748.3 l -671.79,17.4 v 6678.7 c 0,641.9 512.4,1166.1 1154.11,1180.5 408.09,9.1 945.16,13.3 1583.56,13.3 4751,0 15076,-230.4 19008.5,-340.6 356.7,-10 661,-19 903.5,-26.8 591.5,-18.9 1085.1,-456.2 1175.9,-1040.9 431.5,-2776.7 314.9,-8757.6 243.1,-11244.9 -14.7,-508.7 -345.6,-936.7 -802.3,-1095.3 -117.5,-40.8 -243.4,-63.7 -374.3,-65.7 -368.2,-5.4 -833.2,-7.9 -1377.3,-7.9"
             style="fill:url(#linearGradient60);fill-opacity:1;fill-rule:nonzero;stroke:none"
             id="path62" /></g></g><g
         id="g64"><g
           id="g66"
           clip-path="url(#clipPath70)"><path
             d="M 9008.52,25735 V 15563.2 c 0,-514.2 412.78,-933.2 926.94,-940.9 l 20757.84,-256.4 c 509.8,-7.6 927.6,402.5 929.5,912.3 l 34.7,10080.8 c 1.4,364.5 -289,663.2 -653.4,672.1 l -21252.22,429.3 c -407.59,10 -743.36,-317.7 -743.36,-725.4"
             style="fill:url(#linearGradient76);fill-opacity:1;fill-rule:nonzero;stroke:none"
             id="path78" /></g></g><path
         d="m 31779.1,13944.4 h -0.6 l -22770.53,388 c -18.42,0.3 -33.11,15.5 -32.8,33.9 0.3,18.4 15.33,33 33.93,32.8 l 22770.6,-387.9 c 18.4,-0.4 33.1,-15.6 32.7,-34 -0.3,-18.2 -15.2,-32.8 -33.3,-32.8"
         style="fill:#7d97f4;fill-opacity:1;fill-rule:nonzero;stroke:none"
         id="path80" /><g
         id="g82"><g
           id="g84"
           clip-path="url(#clipPath88)"><path
             d="m 25199,8693 h -8601.1 c -233.7,0 -409.2,166.3 -364,345 l 110.4,436.5 c 33.2,131.3 177.6,227.6 349.1,233 l 8291.7,258.7 c 179.2,5.6 337.9,-89.5 377,-225.9 L 25561,9045 c 51.7,-180.6 -124.6,-352 -362,-352"
             style="fill:url(#linearGradient94);fill-opacity:1;fill-rule:nonzero;stroke:none"
             id="path96" /></g></g><path
         d="M 9008.52,25735 V 15563.2 c 0,-514.2 412.78,-933.2 926.94,-940.9 l 20757.84,-256.4 c 509.8,-7.6 927.6,402.5 929.5,912.3 l 34.7,10080.8 c 1.4,364.5 -289,663.2 -653.4,672.1 l -21252.22,429.3 c -407.59,10 -743.36,-317.7 -743.36,-725.4"
         style="fill:#91b3fa;fill-opacity:1;fill-rule:nonzero;stroke:none"
         id="path98" /><g
         id="g100"><g
           id="g102"
           clip-path="url(#clipPath106)"><path
             d="m 31653.5,24179.9 4,1181.3 c 1.4,364.6 -289,662.1 -653.4,671 L 9757.31,26461 c -407.59,9.9 -737.93,-318.3 -737.93,-726 V 24179.9 H 31653.5"
             style="fill:url(#linearGradient112);fill-opacity:1;fill-rule:nonzero;stroke:none"
             id="path114" /></g></g><path
         d="m 10618.7,25077.2 c 0,-134.4 -109,-243.3 -243.4,-243.3 -134.4,0 -243.3,108.9 -243.3,243.3 0,134.4 108.9,243.4 243.3,243.4 134.4,0 243.4,-109 243.4,-243.4"
         style="fill:#91b3fa;fill-opacity:1;fill-rule:nonzero;stroke:none"
         id="path116" /><path
         d="m 11461.7,25077.2 c 0,-134.4 -108.9,-243.3 -243.3,-243.3 -134.4,0 -243.3,108.9 -243.3,243.3 0,134.4 108.9,243.4 243.3,243.4 134.4,0 243.3,-109 243.3,-243.4"
         style="fill:#91b3fa;fill-opacity:1;fill-rule:nonzero;stroke:none"
         id="path118" /><path
         d="m 12278.8,25077.2 c 0,-134.4 -108.9,-243.3 -243.3,-243.3 -134.4,0 -243.4,108.9 -243.4,243.3 0,134.4 109,243.4 243.4,243.4 134.4,0 243.3,-109 243.3,-243.4"
         style="fill:#91b3fa;fill-opacity:1;fill-rule:nonzero;stroke:none"
         id="path120" /><path
         d="m 30392.4,14922.1 -19953.2,287.6 c -303.3,4.4 -546.83,251.5 -546.83,554.8 v 1997 c 0,282.2 230.53,510.1 512.73,506.9 L 30405.2,18041 c 229.6,-2.6 414.4,-189.5 414.4,-419.2 v -2278.7 c 0,-234.9 -192.3,-424.4 -427.2,-421"
         style="fill:#bdd0fb;fill-opacity:1;fill-rule:nonzero;stroke:none"
         id="path122" /><path
         d="M 23208.9,18518 10454,18701.5 c -311.5,4.5 -561.63,258.2 -561.63,569.7 v 3948.6 c 0,223 180.73,403.8 403.73,403.8 H 23124 c 256.1,0 463.6,-207.6 463.6,-463.6 v -4268.7 c 0,-208.3 -170.4,-376.3 -378.7,-373.3"
         style="fill:#bdd0fb;fill-opacity:1;fill-rule:nonzero;stroke:none"
         id="path124" /><path
         d="m 30398.3,18512.5 h -6076.6 c -214.6,0 -388.6,174 -388.6,388.6 v 4238.4 c 0,267.4 216.7,484.1 484.1,484.1 h 6110.3 c 161.3,0 292.1,-130.8 292.1,-292.1 v -4397.7 c 0,-232.7 -188.6,-421.3 -421.3,-421.3"
         style="fill:#bdd0fb;fill-opacity:1;fill-rule:nonzero;stroke:none"
         id="path126" /><g
         id="g128"><g
           id="g130"
           clip-path="url(#clipPath134)"><path
             d="M 19333,8798.9 H 6093.03 c -83.49,52 -139.34,144.6 -139.34,249.7 l -60.13,2543.2 -158.45,6701.3 c -4.8,202.9 73.9,398.9 217.74,542.3 139.3,138.9 327.86,216.6 524.12,216.6 6.39,0 12.83,-0.1 19.24,-0.3 l 1840.52,-47.6 671.79,-17.4 13043.28,-337.5 c 12.5,0.9 24.8,1.3 37,1.3 325.6,0 502.8,-299.1 502.8,-455 l -1,-65.6 -12.6,-868.4 c -92.9,-618.4 -149.7,-1290.1 -144.7,-2001 -95.1,5.8 -189.7,11.4 -284.4,16.8 l 35.5,2357 c -14.3,485.9 -429,669.1 -696,669.1 -7.6,0 -15.1,-0.1 -22.4,-0.4 l -14908.62,400 c -4.65,0.1 -9.32,0.2 -13.96,0.2 -137.72,0 -270.01,-54.7 -367.78,-152.2 -101.07,-100.8 -156.66,-238.8 -153.08,-381.5 l 221.72,-8838.8 c 0,-153.2 125.31,-278.5 278.46,-278.5 H 19335.4 c -0.9,-85 -1.7,-169.2 -2.4,-253.3"
             style="fill:url(#linearGradient140);fill-opacity:1;fill-rule:nonzero;stroke:none"
             id="path142" /></g></g><path
         d="m 6244.28,9330.7 c 0,-153.2 125.31,-278.5 278.46,-278.5 H 21780.9 c 153.2,0 278.5,125.3 278.5,278.5 l 125,8303.6 c -14.7,499.7 -452.8,679.3 -718.4,668.7 l -14908.62,400 c -142.7,3.8 -280.67,-51.2 -381.74,-152 -101.07,-100.8 -156.66,-238.8 -153.08,-381.5 l 221.72,-8838.8"
         style="fill:#91b3fa;fill-opacity:1;fill-rule:nonzero;stroke:none"
         id="path144" /><g
         id="g146"><g
           id="g148"
           clip-path="url(#clipPath152)"><path
             d="M 19327,7995.2 H 4718.99 c -31.09,0 -56.53,25.4 -56.53,56.5 v 690.6 c 0,31.1 25.44,56.6 56.53,56.6 H 6093.03 19333 c -2.5,-274.6 -4.6,-543.8 -6,-803.7"
             style="fill:url(#linearGradient158);fill-opacity:1;fill-rule:nonzero;stroke:none"
             id="path160" /></g></g><g
         id="g162"><g
           id="g164"
           clip-path="url(#clipPath168)"><path
             d="m 22171.9,16797 12.5,832 c -14.7,499.7 -452.8,681.9 -718.4,671.3 l -14908.62,401.3 c -142.7,3.9 -280.67,-50.4 -381.75,-151.3 -101.06,-100.8 -156.64,-243.8 -153.07,-386.5 L 6056.73,16797 H 22171.9"
             style="fill:url(#linearGradient174);fill-opacity:1;fill-rule:nonzero;stroke:none"
             id="path176" /></g></g><path
         d="m 21894.5,13275.5 h -0.6 c -22.5,0.3 -40.5,18.8 -40.2,41.4 l 9.9,673.4 c 0.3,22.3 18.5,40.2 40.8,40.2 h 0.4 c 22.7,-0.3 40.7,-18.8 40.4,-41.4 l -9.9,-673.4 c -0.3,-22.3 -18.5,-40.2 -40.8,-40.2"
         style="fill:#ffffff;fill-opacity:1;fill-rule:nonzero;stroke:none"
         id="path178" /><path
         d="m 21918.8,14925.7 h -0.7 c -22.5,0.3 -40.5,18.9 -40.2,41.4 l 37.9,2579.2 c -0.7,153.2 -47.2,275.5 -138.2,362.7 -169.9,162.8 -439.7,154.5 -451,154 l -4765.2,127.7 c -22.5,0.6 -40.3,19.4 -39.6,41.9 0.5,22.6 17.8,41.7 41.8,39.7 l 4762.3,-127.8 c 29.7,1.8 316.9,6.7 508.1,-176.5 107.6,-103.1 162.6,-245.2 163.4,-422.1 l -37.9,-2580 c -0.3,-22.3 -18.5,-40.2 -40.7,-40.2"
         style="fill:#bdd0fb;fill-opacity:1;fill-rule:nonzero;stroke:none"
         id="path180" /><path
         d="M 15431.7,12566.7 H 7074.84 c -207.83,0 -376.3,168.5 -376.3,376.3 v 3072 c 0,207.9 168.47,376.3 376.3,376.3 h 8356.86 c 207.8,0 376.3,-168.4 376.3,-376.3 v -3072 c 0,-207.8 -168.5,-376.3 -376.3,-376.3"
         style="fill:#bdd0fb;fill-opacity:1;fill-rule:nonzero;stroke:none"
         id="path182" /><path
         d="m 21460.7,12566.7 h -4907.9 c -148.9,0 -269.6,120.7 -269.6,269.6 v 3285.4 c 0,148.9 120.7,269.6 269.6,269.6 h 4907.9 c 148.9,0 269.6,-120.7 269.6,-269.6 v -3285.4 c 0,-148.9 -120.7,-269.6 -269.6,-269.6"
         style="fill:#bdd0fb;fill-opacity:1;fill-rule:nonzero;stroke:none"
         id="path184" /><path
         d="M 21399,9414.3 H 7029.91 c -183.02,0 -331.38,148.4 -331.38,331.4 v 1933.4 c 0,183 148.36,331.3 331.38,331.3 H 21399 c 183,0 331.3,-148.3 331.3,-331.3 V 9745.7 c 0,-183 -148.3,-331.4 -331.3,-331.4"
         style="fill:#bdd0fb;fill-opacity:1;fill-rule:nonzero;stroke:none"
         id="path186" /><path
         d="m 7007.59,17776.4 c 0,-105.8 -85.72,-191.5 -191.46,-191.5 -105.74,0 -191.46,85.7 -191.46,191.5 0,105.7 85.72,191.4 191.46,191.4 105.74,0 191.46,-85.7 191.46,-191.4"
         style="fill:#91b3fa;fill-opacity:1;fill-rule:nonzero;stroke:none"
         id="path188" /><path
         d="m 7645.78,17757.9 c 0,-105.7 -85.72,-191.5 -191.45,-191.5 -105.75,0 -191.46,85.8 -191.46,191.5 0,105.7 85.71,191.5 191.46,191.5 105.73,0 191.45,-85.8 191.45,-191.5"
         style="fill:#91b3fa;fill-opacity:1;fill-rule:nonzero;stroke:none"
         id="path190" /><path
         d="m 8241.43,17722.4 c 0,-105.7 -85.72,-191.4 -191.46,-191.4 -105.74,0 -191.45,85.7 -191.45,191.4 0,105.8 85.71,191.5 191.45,191.5 105.74,0 191.46,-85.7 191.46,-191.5"
         style="fill:#91b3fa;fill-opacity:1;fill-rule:nonzero;stroke:none"
         id="path192" /><path
         d="m 24223.9,23712.3 c 0,-1469.8 -1176.5,-2661.3 -2627.7,-2661.3 -1451.2,0 -2627.6,1191.5 -2627.6,2661.3 0,1469.8 1176.4,2661.3 2627.6,2661.3 1451.2,0 2627.7,-1191.5 2627.7,-2661.3"
         style="fill:#ffffff;fill-opacity:1;fill-rule:nonzero;stroke:none"
         id="path194" /><g
         id="g196"><g
           id="g198"
           clip-path="url(#clipPath202)"><path
             d="m 21503.7,22278.3 c -113.9,0 -219.9,60.4 -278.8,159.8 l -988.6,1666.5 c -92.5,156 -42.6,358.4 111.4,452.1 153.9,93.6 353.8,43.2 446.3,-112.8 l 686.2,-1156.9 907.2,1804.7 c 81.5,162.1 277.4,226.6 437.4,144.1 160.1,-82.6 223.8,-280.9 142.3,-443.1 l -1173.5,-2334.4 c -53.7,-106.8 -160.3,-175.6 -278.5,-179.8 -3.8,-0.1 -7.6,-0.2 -11.4,-0.2"
             style="fill:url(#linearGradient208);fill-opacity:1;fill-rule:nonzero;stroke:none"
             id="path210" /></g></g><path
         d="m 12424.5,13499.5 c 0,-1469.8 -1176.5,-2661.3 -2627.71,-2661.3 -1451.23,0 -2627.67,1191.5 -2627.67,2661.3 0,1469.8 1176.44,2661.3 2627.67,2661.3 1451.21,0 2627.71,-1191.5 2627.71,-2661.3"
         style="fill:#ffffff;fill-opacity:1;fill-rule:nonzero;stroke:none"
         id="path212" /><g
         id="g214"><g
           id="g216"
           clip-path="url(#clipPath220)"><path
             d="m 9704.24,12065.5 c -113.9,0 -219.85,60.4 -278.78,159.7 l -988.55,1666.6 c -92.53,156 -42.68,358.3 111.32,452 153.93,93.7 353.79,43.3 446.32,-112.7 l 686.22,-1156.9 907.13,1804.6 c 81.5,162.2 277.4,226.7 437.5,144.1 160.1,-82.5 223.8,-280.9 142.3,-443 L 9994.16,12245.4 c -53.66,-106.7 -160.32,-175.6 -278.48,-179.7 -3.81,-0.2 -7.63,-0.2 -11.44,-0.2"
             style="fill:url(#linearGradient226);fill-opacity:1;fill-rule:nonzero;stroke:none"
             id="path228" /></g></g><g
         id="g230"><g
           id="g232"
           clip-path="url(#clipPath236)"><path
             d="m 9245.7,26165 c 338.86,658.2 969.1,1122.3 1701.2,1205.2 l 50.1,3169.4 c 0.4,27 -21.5,49.3 -48.6,49 -2064.87,-22.3 -3886.87,-1307.5 -4737.19,-3211 -12.37,-27.7 1.3,-60.2 29.66,-71 L 9245.7,26165"
             style="fill:url(#linearGradient242);fill-opacity:1;fill-rule:nonzero;stroke:none"
             id="path244" /></g></g><g
         id="g246"><g
           id="g248"
           clip-path="url(#clipPath252)"><path
             d="m 13325.9,24646.5 c -42.4,1.2 -80.4,-25.8 -93,-66.3 -35.5,-113.3 -100.3,-330.7 -110.9,-358.2 -51.6,-133.8 -112.1,-264.2 -182.9,-388.9 -131.4,-231.3 -299.3,-443.2 -506.6,-611 -525.2,-425.3 -1280.2,-504.4 -1910,-293.9 -17.9,6 -35.7,12.5 -53.5,19.1 -32.8,12.3 -69.6,-1.3 -86.4,-32 l -1588.02,-2896 c 771.1,-386.7 1496.72,-487.8 2407.12,-429.5 2645,169.6 4722,2317.2 4952.6,4980.5 l -2828.4,76.2"
             style="fill:url(#linearGradient258);fill-opacity:1;fill-rule:nonzero;stroke:none"
             id="path260" /></g></g><g
         id="g262"><g
           id="g264"
           clip-path="url(#clipPath268)"><path
             d="m 13325.9,24646.5 c -172.2,-1056.8 -953.2,-1882.6 -2014.6,-1918.6 -298.5,-10.1 -654.8,59.2 -916.7,165.3 -27.3,11.1 -58.6,-0.1 -73.4,-25.6 L 8688.96,20059.7 c 771.1,-386.7 1641.84,-576 2552.24,-517.6 2645,169.5 4722,2382.3 4952.6,5045.6 l -2867.9,58.8"
             style="fill:url(#linearGradient274);fill-opacity:1;fill-rule:nonzero;stroke:none"
             id="path276" /></g></g><g
         id="g278"><g
           id="g280"
           clip-path="url(#clipPath284)"><path
             d="m 8348.74,20503 1580.42,2834.7 c 11.19,20 6.43,45.1 -11.15,59.9 -486.55,409.7 -875.52,959.1 -875.52,1671.5 0,175.7 -77.91,431.5 -42.22,596.3 l -2972.14,1062.8 c -164.99,-536.7 -254.06,-1107.9 -254.06,-1699.7 0,-1913.3 1016.59,-3596 2412.43,-4563.3 54.56,-37.8 129.91,-20.2 162.24,37.8"
             style="fill:url(#linearGradient290);fill-opacity:1;fill-rule:nonzero;stroke:none"
             id="path292" /></g></g><g
         id="g294"><g
           id="g296"
           clip-path="url(#clipPath300)"><path
             d="m 8190.71,20583.6 1637.79,2799.6 c 20.8,35.5 13.64,80.9 -17.3,108.1 -469.81,413.2 -768.71,1034.3 -768.71,1735.1 0,175.7 18.97,347 54.66,511.9 l -3024.51,1130.6 c -24.09,9 -50.94,-4.2 -58.29,-28.8 -156.16,-523.5 -240.28,-1079.1 -240.28,-1654.3 0,-1959.8 968.34,-3647.4 2416.64,-4602.2"
             style="fill:url(#linearGradient306);fill-opacity:1;fill-rule:nonzero;stroke:none"
             id="path308" /></g></g><g
         id="g310"><g
           id="g312"
           clip-path="url(#clipPath316)"><path
             d="m 11526.3,27355.1 c 937.5,-156.8 1664.5,-946.2 1787.6,-1932.6 6.6,-52.8 50.2,-93.1 103.3,-94.9 l 4534.2,-151.9 c 14.1,13.6 21.5,20.8 35.6,34.5 -13.9,3793.1 -2733.7,7042.7 -6377,7472.9 l -83.7,-5328"
             style="fill:url(#linearGradient322);fill-opacity:1;fill-rule:nonzero;stroke:none"
             id="path324" /></g></g><g
         id="g326"><g
           id="g328"
           clip-path="url(#clipPath332)"><path
             d="m 11943.3,6235.2 c 4.1,1.6 2183.7,3818.5 2478.2,4177.7 49.5,60.4 126.2,91.2 203.8,81.9 l 608.4,-72.5 714.6,-1546.1 -1190.6,693.4 C 14875.5,8754.8 13346,7543.9 12821.4,7102 c -53.2,-44.8 -57.6,-125.1 -9.5,-175.4 l 209.4,-219.3 C 12677.5,6358.8 12280.7,6135 11833,6031.5 l 110.3,203.7"
             style="fill:url(#linearGradient338);fill-opacity:1;fill-rule:nonzero;stroke:none"
             id="path340" /></g></g><g
         id="g342"><g
           id="g344"
           clip-path="url(#clipPath348)"><path
             d="m 12900.2,6825.6 c 0,0 133.6,-43.1 178.9,-162.2 21.6,-56.9 -1.7,-121.4 -51.2,-156.9 -220.1,-157.7 -946.1,-666.8 -1281.1,-766.5 -27.5,-8.1 -53.6,16.7 -47.4,44.7 17.2,77.8 72.8,233.2 251.9,460.7 l -16,-32.5 c -20.4,-41.1 24.4,-84 64.4,-61.4 224.1,126.5 680.5,403.3 900.5,674.1"
             style="fill:url(#linearGradient354);fill-opacity:1;fill-rule:nonzero;stroke:none"
             id="path356" /></g></g><g
         id="g358"><g
           id="g360"
           clip-path="url(#clipPath364)"><path
             d="m 12792.3,5298.4 c 3.7,2.4 330.7,790.2 334.3,792.5 299.8,1825.5 1031.4,3388.9 1247.1,3800.3 36.3,69.2 105.2,114.8 183,121.5 l 610.5,52.1 1012.8,-1369.5 -1306.4,438.1 c 280.3,-774.1 -972.5,-2269.5 -1396.8,-2808.4 -43.1,-54.7 -31.1,-134.2 26.1,-173.8 l 249.5,-172.3 c -266.2,-410.9 -609.4,-710.3 -1027,-902.3 l 66.9,221.8"
             style="fill:url(#linearGradient370);fill-opacity:1;fill-rule:nonzero;stroke:none"
             id="path372" /></g></g><g
         id="g374"><g
           id="g376"
           clip-path="url(#clipPath380)"><path
             d="m 13609.8,6070.3 c 0,0 139.7,-15.3 208.1,-122.7 32.7,-51.4 22.9,-119.3 -18.4,-164.1 -183.7,-198.9 -791.6,-844.4 -1099.5,-1009.8 -25.2,-13.6 -55.8,5.5 -55.4,34.1 1,79.7 24,243.2 153.5,502.2 l -9.2,-35.1 c -11.6,-44.4 40.9,-77.3 75.5,-47.1 193.9,169.3 584.8,532.7 745.4,842.5"
             style="fill:url(#linearGradient386);fill-opacity:1;fill-rule:nonzero;stroke:none"
             id="path388" /></g></g><g
         id="g390"><g
           id="g392"
           clip-path="url(#clipPath396)"><path
             d="m 18024.5,10353.2 c 0,0 552.2,-821.4 597.6,-1196 45.3,-374.7 -152.7,-504.3 -730.7,-552 -1720,-142.2 -2567.9,373.3 -2567.9,373.3 -117.7,750.2 -201.4,941 -1184.1,1348.9 0,0 1242.9,-98.7 1493.1,-1.6 250.1,97.1 2392,27.4 2392,27.4"
             style="fill:url(#linearGradient402);fill-opacity:1;fill-rule:nonzero;stroke:none"
             id="path404" /></g></g><g
         id="g406"><g
           id="g408"
           clip-path="url(#clipPath412)"><path
             d="m 15822.5,14955 c 0,0 384.6,455 793.5,-103.3 74,-101.1 358.5,-17.7 462.8,-229.4 53.8,-109.3 170.1,-171.3 289.9,-149.2 298.4,55 786.1,59.6 1026.9,-407.9 183.8,-356.9 41.9,-565.8 -141.9,-684.9 -134.9,-87.5 -183.1,-265 -101.5,-403.6 78.3,-132.9 93,-312.9 -109.1,-529.5 -452.9,-485.4 -1349.4,308.1 -1349.4,308.1 l -711.8,1682 -159.4,517.7"
             style="fill:url(#linearGradient418);fill-opacity:1;fill-rule:nonzero;stroke:none"
             id="path420" /></g></g><g
         id="g422"><g
           id="g424"
           clip-path="url(#clipPath428)"><path
             d="m 16531.1,10461.9 c 0,0 -643.1,612.4 -959.6,1017.9 -171.1,219.3 -224.8,507.9 -145.7,774.5 144.5,486.9 401.3,991.1 424.8,1069.6 35.9,120.3 756.9,115.3 756.9,115.3 0,0 1418.9,-920.8 1976.3,-2480.7 l -626,-194.9 c 0,0 -370.5,621.5 -736.5,1016.7 0,0 633.3,-836.7 655.6,-1179.3 l -1345.8,-139.1"
             style="fill:url(#linearGradient434);fill-opacity:1;fill-rule:nonzero;stroke:none"
             id="path436" /></g></g><g
         id="g438"><g
           id="g440"
           clip-path="url(#clipPath444)"><path
             d="m 15305.9,10220.3 483.2,525.7 558,-150.2 c 0,0 650.6,-100.8 1022.9,0 372.4,100.8 372.4,100.8 372.4,100.8 l 841.4,261.9 132.2,-373.5 c 33.6,-94.8 -0.2,-200.1 -82.2,-258.3 -72.7,-51.8 -158.1,-108.6 -212.5,-132.4 -110.8,-48.5 -2552.6,-15.3 -2552.6,-15.3 l -562.8,41.3"
             style="fill:url(#linearGradient450);fill-opacity:1;fill-rule:nonzero;stroke:none"
             id="path452" /></g></g><g
         id="g454"><g
           id="g456"
           clip-path="url(#clipPath460)"><path
             d="m 16112,14306.2 484.6,-901.2 c -32,-196.7 -527.5,-202.2 -604,-84.8 -7.8,12 -12.3,25.8 -15.2,39.8 l -289.9,602.1 c -12.5,58.7 148.5,256.5 201.5,284.7 l 192.6,102.6 c 74.2,39.4 -235.3,42.6 30.4,-43.2"
             style="fill:url(#linearGradient466);fill-opacity:1;fill-rule:nonzero;stroke:none"
             id="path468" /></g></g><g
         id="g470"><g
           id="g472"
           clip-path="url(#clipPath476)"><path
             d="m 15131.2,14517.7 c 0,0 -54.7,-304.5 184.6,-691.6 239.3,-387.1 477.6,-369.6 598.6,-231.6 121.1,138.1 266.1,368 200.1,754.1 -66,386.1 -900.7,557.3 -983.3,169.1"
             style="fill:url(#linearGradient482);fill-opacity:1;fill-rule:nonzero;stroke:none"
             id="path484" /></g></g><g
         id="g486"><g
           id="g488"
           clip-path="url(#clipPath492)"><path
             d="m 15824.8,14306.6 c 0,0 -387.4,509 -684.9,65.3 l 5,-153.2 c 0,0 -386.9,18 -344.9,374.6 41.9,356.6 357.8,600.1 795.6,478.3 437.9,-121.8 693.7,-260.5 743.1,-564.5 49.5,-304 -198.7,-254.4 -198.7,-254.4 0,0 -94.9,209.8 -209.3,224.1 -114.5,14.3 -73.2,-151.6 -73.2,-151.6 l -32.7,-18.6"
             style="fill:url(#linearGradient498);fill-opacity:1;fill-rule:nonzero;stroke:none"
             id="path500" /></g></g><g
         id="g502"><g
           id="g504"
           clip-path="url(#clipPath508)"><path
             d="m 15913.8,14320.2 c 0,0 -200.8,260.5 -18.1,314.5 182.8,54.1 175.9,-255.2 164,-370.2 l -145.9,55.7"
             style="fill:url(#linearGradient514);fill-opacity:1;fill-rule:nonzero;stroke:none"
             id="path516" /></g></g><g
         id="g518"><g
           id="g520"
           clip-path="url(#clipPath524)"><path
             d="m 16905.3,10012.2 c -1.7,-0.1 -3.4,-0.1 -5.1,-0.1 l -2222.5,2.4 c -54.9,0.1 -99.4,44.7 -99.4,99.6 0.1,55 44.8,100.4 99.6,99.4 l 2222.5,-2.4 c 55,-0.1 99.5,-44.7 99.4,-99.6 -0.1,-53.2 -41.9,-96.7 -94.5,-99.3"
             style="fill:url(#linearGradient530);fill-opacity:1;fill-rule:nonzero;stroke:none"
             id="path532" /></g></g><g
         id="g534"><g
           id="g536"
           clip-path="url(#clipPath540)"><path
             d="m 12679.8,12030.1 h 1850.9 c 136.5,0 260.8,-78.8 319.1,-202.3 l 855.6,-1814.4 h -2300.2 c -87.9,0 -167,53.8 -199.4,135.6 l -663.5,1679 c -38.3,97 33.2,202.1 137.5,202.1"
             style="fill:url(#linearGradient546);fill-opacity:1;fill-rule:nonzero;stroke:none"
             id="path548" /></g></g><g
         id="g550"><g
           id="g552"
           clip-path="url(#clipPath556)"><path
             d="m 13983.8,11099.8 c 40.1,-124.6 10.4,-245.6 -66.2,-270.3 -76.7,-24.7 -171.3,56.3 -211.4,181 -40.2,124.6 -10.5,245.6 66.1,270.3 76.7,24.6 171.4,-56.4 211.5,-181"
             style="fill:url(#linearGradient562);fill-opacity:1;fill-rule:nonzero;stroke:none"
             id="path564" /></g></g><g
         id="g566"><g
           id="g568"
           clip-path="url(#clipPath572)"><path
             d="m 25748.1,6799.1 c 1.3,93.6 2.7,190.8 4,291 49.5,-54.2 99.7,-108.3 150.6,-162.4 -51.5,-44 -103,-86.8 -154.6,-128.6 m 937.2,911.7 c 494.3,1440.3 1003.7,4141.1 -511.1,7175.2 -309.5,619.9 -578.5,1188.4 -812.4,1708.2 19.8,533 83.3,1033.6 180.2,1502.1 556.4,2689.8 2214.1,4321.9 3030.1,4983.6 31.4,25.5 68.5,36.7 104.8,36.7 89.9,0 174.4,-68.8 153.2,-159.3 -221.6,-943.4 91.5,-2738.6 255.7,-4901.3 74.3,-978.6 118.1,-2032 68,-3116.1 -8.5,-183.9 -19.7,-369.1 -33.9,-554.6 -8.3,-109.3 -17.7,-218.6 -28.3,-328.3 -2.1,-22.3 -4.3,-44.4 -6.5,-66.7 -31,-310.2 -71,-621.9 -121.3,-933.9 -267.9,-1658.9 -829.6,-3328.6 -1899.8,-4855.9 -121.1,-172.8 -247.9,-336 -378.7,-489.7"
             style="fill:url(#linearGradient578);fill-opacity:1;fill-rule:nonzero;stroke:none"
             id="path580" /></g></g><path
         d="m 27985.4,21111.6 c -138.8,-657.8 -262.6,-1317.7 -358.2,-1980.5 -99.6,-662.3 -176,-1326.9 -228.3,-1992.6 -49.2,-665.8 -84.1,-1332.3 -86,-1999.1 -5.5,-666.7 22.2,-1332.9 52.8,-2001.7 26.2,-668.6 57,-1342 8,-2020.1 -48.1,-676.8 -190.6,-1359.5 -473.3,-1999.4 -70.6,-159.5 -144.9,-318.5 -229.3,-472.2 -81.2,-155 -170.3,-307 -262.6,-457.6 -186.2,-300.3 -395.9,-590.6 -629.6,-866 -468.9,-550 -1034.6,-1037.9 -1657.7,-1450.8 -65.6,-43.5 -159.6,-32.8 -209.9,23.9 -49.4,55.6 -38.4,134.8 24.1,178.8 l 0.5,0.3 c 148.3,104.1 294.9,209.6 435.7,320.4 71.4,54.4 139.9,111.4 209.6,167.3 67.1,58.1 136.9,114 201.9,173.9 264.6,235.5 509.7,486.7 732.1,752.4 447.3,528.9 805.4,1118.2 1076.7,1729.1 131.7,306.9 237,621.7 313.9,942.3 76.6,320.7 124.7,647 151.4,976 53.3,658.2 29.2,1324.9 8.6,1993.6 -19.6,668.8 -34,1341.1 -16.4,2012.8 7.8,335.8 22.6,671.5 44.3,1006.8 9.7,167.6 23.2,335.1 36.3,502.6 15.1,167.4 31.1,334.7 48.8,501.8 72,668.5 167.7,1334.7 287.5,1997.4 123.6,662.2 267.5,1321.3 440.5,1974.6 4.9,18.6 26.5,30.3 48.1,26 21,-4.1 34.3,-21.9 30.5,-40"
         style="fill:#7d97f4;fill-opacity:1;fill-rule:nonzero;stroke:none"
         id="path582" /><path
         d="m 25912.3,6917.5 c 146.7,-155.6 404.7,-110.8 492.9,84 487,1075.1 1589,4239.2 -231,7884.5 -1536.9,3078.3 -2077.7,4893.5 -2266.1,5734.6 -39.8,177.8 -283.6,201.4 -357.1,34.7 -811.7,-1839.7 -2954.8,-8097.4 2361.3,-13737.8"
         style="fill:#7d97f4;fill-opacity:1;fill-rule:nonzero;stroke:none"
         id="path584" /><path
         d="m 26178.7,7031 c 5.3,-0.9 10.6,-1.4 16.1,-1.3 46.1,0.7 83,38.7 82.3,84.8 -0.9,52.3 -102.6,5277.9 -2046.2,9654.5 -18.7,42.2 -68,61.2 -110.2,42.5 -42.1,-18.8 -61.1,-68.1 -42.4,-110.3 1929.4,-4344.8 2030.9,-9537.4 2031.7,-9589.3 0.7,-40.6 30.2,-74 68.7,-80.9"
         style="fill:#91b3fa;fill-opacity:1;fill-rule:nonzero;stroke:none"
         id="path586" /><g
         id="g588"><g
           id="g590"
           clip-path="url(#clipPath594)"><path
             d="m 23672.3,5277 c -267.3,0 -545,1.6 -824.4,4.4 -1310.8,12.8 -2662.1,51 -3184.3,71 -177.4,6.8 -319.6,173.4 -325.2,380.9 -14.4,537.1 -16.6,1342.6 -11.4,2261.9 1.4,259.9 3.5,529.1 6,803.7 0.7,84.1 1.5,168.3 2.4,253.3 1.2,119.8 2.5,240.9 3.8,362.1 9.8,871.1 23.3,1770.8 37.2,2596.1 3.2,189.7 6.5,375.8 9.7,556.3 17.1,965.5 33.8,1781.4 43.9,2254.9 5.5,262 180.7,476.2 404.3,493.2 176.9,13.4 394.4,19.4 640,19.4 369.2,0 801.9,-13.5 1256,-35.1 50.6,-2.4 101.4,-4.9 152.4,-7.5 27.1,-1.4 54.3,-2.8 81.5,-4.3 61.3,-3.2 123,-6.6 184.7,-10 94.7,-5.4 189.3,-11 284.4,-16.8 1157.5,-71.3 2315.9,-177 2825.9,-236.7 221.6,-26 395.8,-232.7 414.5,-492.4 128.9,-1786.4 106.9,-5314.7 78.4,-7441.3 -1.3,-100.2 -2.7,-197.4 -4,-291 -2.4,-168.9 -4.9,-326.7 -7.2,-471.3 -2.3,-137.8 -4.4,-263.6 -6.4,-375.9 -6.2,-349.9 -243.9,-633.1 -542.8,-647.7 -398.5,-19.6 -934.2,-27.2 -1519.4,-27.2 m -3033.9,9480.4 c -180.3,0 -338,-3.7 -465.4,-11.8 -191.3,-12.2 -343.4,-191.8 -351.6,-415.7 -47.2,-1293.3 -196.2,-5596 -148.9,-7187.1 6.9,-232.5 163.6,-420.6 362.1,-434.2 577.4,-39.5 2138.4,-112.7 3428,-112.7 536.5,0 1025.8,12.7 1378.1,45.7 215.9,20.2 385.4,224.5 397.1,477.6 60.7,1319.5 235.2,5325.9 189.9,6899.1 -7.2,251 -173.4,455.9 -387.2,478.4 -773.9,81.3 -3140,260.7 -4402.1,260.7 m 1169.6,372.4 c -46.7,0 -91.8,-0.8 -134.3,-2.6 -42.4,-1.8 -75.7,-42.8 -75.7,-92.4 0,-49.2 32.8,-89.7 74.7,-92.3 207.3,-12.7 790.9,-48.6 1051.8,-66.3 1.6,-0.1 3.2,-0.2 4.7,-0.2 49.2,0 86.8,52.6 77.4,110 l -1.7,10.1 c -6.7,40.3 -35.3,70.7 -70.3,74.5 -155.1,16.6 -585.3,59.2 -926.6,59.2"
             style="fill:url(#linearGradient600);fill-opacity:1;fill-rule:nonzero;stroke:none"
             id="path602" /></g></g><path
         d="m 19821.4,14329.9 c -47.2,-1293.3 -196.2,-5596 -148.9,-7187.1 6.9,-232.5 163.6,-420.6 362.1,-434.2 817.6,-55.9 3607,-179.3 4806.1,-67 215.9,20.2 385.4,224.5 397.1,477.6 60.7,1319.5 235.2,5325.9 189.9,6899.1 -7.2,251 -173.4,455.9 -387.2,478.4 -884.5,92.9 -3848.5,313.9 -4867.5,248.9 -191.3,-12.2 -343.4,-191.8 -351.6,-415.7"
         style="fill:#91b3fa;fill-opacity:1;fill-rule:nonzero;stroke:none"
         id="path604" /><g
         id="g606"><g
           id="g608"
           clip-path="url(#clipPath612)"><path
             d="m 22729.2,14876 c -1.5,0 -3.1,0.1 -4.7,0.2 -260.9,17.7 -844.5,53.6 -1051.8,66.3 -41.9,2.6 -74.7,43.1 -74.7,92.3 0,49.6 33.3,90.6 75.7,92.4 42.5,1.8 87.6,2.6 134.3,2.6 341.3,0 771.5,-42.6 926.6,-59.2 35,-3.8 63.6,-34.2 70.3,-74.5 l 1.7,-10.1 c 9.4,-57.4 -28.2,-110 -77.4,-110"
             style="fill:url(#linearGradient618);fill-opacity:1;fill-rule:nonzero;stroke:none"
             id="path620" /></g></g><g
         id="g622"><g
           id="g624"
           clip-path="url(#clipPath628)"><path
             d="m 25434.8,13528.8 -5637.1,127.7 c 11.1,312.9 16.4,471 23.7,671.6 8.2,223.9 160.3,404.9 351.6,417.1 127.2,8.1 284.5,11.8 464.5,11.8 1261.9,0 3628.9,-179.8 4403,-261.1 213.8,-22.5 380,-228.3 387.2,-479.2 4.1,-143.2 6.4,-314.1 7.1,-487.9 m -4143.2,639.7 c -86.4,0 -156.5,-70 -156.5,-156.4 0,-86.4 70.1,-156.5 156.5,-156.5 86.4,0 156.4,70.1 156.4,156.5 0,86.4 -70,156.4 -156.4,156.4 m -486.8,29 c -86.4,0 -156.4,-70 -156.4,-156.4 0,-86.5 70,-156.5 156.4,-156.5 86.4,0 156.5,70 156.5,156.5 0,86.4 -70.1,156.4 -156.5,156.4 m -521.5,15.1 c -86.4,0 -156.5,-70.1 -156.5,-156.5 0,-86.4 70.1,-156.4 156.5,-156.4 86.4,0 156.4,70 156.4,156.4 0,86.4 -70,156.5 -156.4,156.5"
             style="fill:url(#linearGradient634);fill-opacity:1;fill-rule:nonzero;stroke:none"
             id="path636" /></g></g><path
         d="M 22576.2,10772.2 H 20271 c -136.3,0 -246.8,113.8 -246.8,254.1 v 2024.2 c 0,126.4 99.6,228.4 221.6,228.4 1.8,0 3.6,-0.1 5.5,-0.1 l 2326.6,-57.3 c 128,-3.1 230.1,-110.8 230.1,-242.7 v -1967.9 c 0,-131.8 -103.8,-238.7 -231.8,-238.7"
         style="fill:#bfd3fc;fill-opacity:1;fill-rule:nonzero;stroke:none"
         id="path638" /><path
         d="m 25073.9,10772.2 h -1972.4 c -49.6,0 -89.9,40.3 -89.9,89.9 v 2283.6 c 0,38.8 31.5,70.2 70.2,70.2 h 1996.8 c 39,0 70.6,-31.6 70.6,-70.6 v -2297.7 c 0,-41.6 -33.7,-75.4 -75.3,-75.4"
         style="fill:#bfd3fc;fill-opacity:1;fill-rule:nonzero;stroke:none"
         id="path640" /><path
         d="m 25076.9,8788.6 h -5055.4 c -44.2,0 -80.1,35.9 -80.1,80.1 v 1518.1 c 0,35.8 29.1,64.9 65,64.9 h 5067.3 c 41.7,0 75.5,-33.8 75.5,-75.5 V 8861 c 0,-40 -32.4,-72.4 -72.3,-72.4"
         style="fill:#bfd3fc;fill-opacity:1;fill-rule:nonzero;stroke:none"
         id="path642" /><path
         d="m 24615.9,6911.1 c -2.2,0 -4.3,0 -6.4,0 l -4433,61.8 c -131.4,1.9 -236.8,97.7 -236.8,215.3 v 1073.1 c 0,103.5 93.8,187.4 209.5,187.4 h 4663.4 c 110.6,0 200.4,-80.1 200.7,-179 l 2.9,-999.3 c 0.6,-198.6 -179.2,-359.3 -400.3,-359.3"
         style="fill:#bfd3fc;fill-opacity:1;fill-rule:nonzero;stroke:none"
         id="path644" /><g
         id="g646"><g
           id="g648"
           clip-path="url(#clipPath652)"><path
             d="m 20283.3,13899.7 c -86.4,0 -156.5,70 -156.5,156.4 0,86.4 70.1,156.5 156.5,156.5 86.4,0 156.4,-70.1 156.4,-156.5 0,-86.4 -70,-156.4 -156.4,-156.4"
             style="fill:url(#linearGradient658);fill-opacity:1;fill-rule:nonzero;stroke:none"
             id="path660" /></g></g><g
         id="g662"><g
           id="g664"
           clip-path="url(#clipPath668)"><path
             d="m 20804.8,13884.6 c -86.4,0 -156.4,70 -156.4,156.5 0,86.4 70,156.4 156.4,156.4 86.4,0 156.5,-70 156.5,-156.4 0,-86.5 -70.1,-156.5 -156.5,-156.5"
             style="fill:url(#linearGradient674);fill-opacity:1;fill-rule:nonzero;stroke:none"
             id="path676" /></g></g><g
         id="g678"><g
           id="g680"
           clip-path="url(#clipPath684)"><path
             d="m 21291.6,13855.6 c -86.4,0 -156.5,70.1 -156.5,156.5 0,86.4 70.1,156.4 156.5,156.4 86.4,0 156.4,-70 156.4,-156.4 0,-86.4 -70,-156.5 -156.4,-156.5"
             style="fill:url(#linearGradient690);fill-opacity:1;fill-rule:nonzero;stroke:none"
             id="path692" /></g></g><path
         d="m 24808.1,11070.7 c 0,-1137.4 -910.4,-2059.4 -2033.3,-2059.4 -1123,0 -2033.4,922 -2033.4,2059.4 0,1137.3 910.4,2059.3 2033.4,2059.3 1122.9,0 2033.3,-922 2033.3,-2059.3"
         style="fill:#ffffff;fill-opacity:1;fill-rule:nonzero;stroke:none"
         id="path694" /><g
         id="g696"><g
           id="g698"
           clip-path="url(#clipPath702)"><path
             d="m 22703.1,9961 c -88.1,0 -170.1,46.8 -215.7,123.6 l -764.9,1289.6 c -71.6,120.7 -33,277.3 86.1,349.8 119.1,72.5 273.8,33.5 345.4,-87.2 l 531,-895.2 702,1396.4 c 63,125.5 214.6,175.4 338.5,111.5 123.8,-63.8 173.2,-217.3 110.1,-342.8 l -908.1,-1806.4 c -41.5,-82.6 -124.1,-135.9 -215.5,-139.1 -3,-0.1 -5.9,-0.2 -8.9,-0.2"
             style="fill:url(#linearGradient708);fill-opacity:1;fill-rule:nonzero;stroke:none"
             id="path710" /></g></g></g></g></svg>
