<?xml version="1.0" encoding="utf-8"?>
<!-- Generator: Adobe Illustrator 15.0.0, SVG Export Plug-In . SVG Version: 6.00 Build 0)  -->
<!DOCTYPE svg PUBLIC "-//W3C//DTD SVG 1.1//EN" "http://www.w3.org/Graphics/SVG/1.1/DTD/svg11.dtd">
<svg version="1.1"
	 id="svg2" xmlns:dc="http://purl.org/dc/elements/1.1/" xmlns:cc="http://creativecommons.org/ns#" xmlns:rdf="http://www.w3.org/1999/02/22-rdf-syntax-ns#" xmlns:inkscape="http://www.inkscape.org/namespaces/inkscape" xmlns:svg="http://www.w3.org/2000/svg" xmlns:sodipodi="http://sodipodi.sourceforge.net/DTD/sodipodi-0.dtd" sodipodi:docname="7251.eps"
	 xmlns="http://www.w3.org/2000/svg" xmlns:xlink="http://www.w3.org/1999/xlink" x="0px" y="0px" width="2598.5px"
	 height="1841.833px" viewBox="0 0 2598.5 1841.833" enable-background="new 0 0 2598.5 1841.833" xml:space="preserve">
<sodipodi:namedview  id="namedview4" bordercolor="#666666" pagecolor="#ffffff" guidetolerance="10" gridtolerance="10" objecttolerance="10" borderopacity="1" inkscape:window-height="480" inkscape:window-width="640" inkscape:pageshadow="2" inkscape:pageopacity="0">
	</sodipodi:namedview>
<g id="g10" transform="matrix(1.3333333,0,0,-1.3333333,0,2666.6667)" inkscape:label="ink_ext_XXXXXX" inkscape:groupmode="layer">
	<g id="g12" transform="scale(0.1)">
		<path id="path616" fill="#92B5F9" d="M14896.4,8214.004c-270.498,226.289-409.196,435.601-434.297,475.298l951.401,600.996
			c0,0-1.304,2.3-4.102,6.401c0.799-1.201,80.098-117.803,238.499-243.501c202.303-160.503,437.402-262.998,698.804-304.6
			c332.798-52.998,676.099,57.993,905.501,160.4c255.695,114.097,427.191,242.007,428.797,243.296l843.697-163.096l-158.598-729.8
			c-329.598-252.905-853.602-502.808-1339.197-599.194C16221.104,7500.2,15451.804,7749.399,14896.4,8214.004"/>
		<path id="path618" fill="#DDE8FE" d="M16273.105,16131.797l223.301,115.7l221.895-118.301
			c25.305-13.498,55.004,7.903,50.303,36.102l-41.002,248.202l181.1,174.5c20.604,19.797,9.506,54.801-18.795,58.998
			l-248.701,37.705l-110.002,226.098c-12.502,25.797-49.197,26.002-62,0.402l-112.602-224.904l-249.097-34.701
			c-28.403-4-39.902-38.797-19.497-58.895l179.099-176.602l-44.004-247.604
			C16218.101,16140.3,16247.603,16118.599,16273.105,16131.797"/>
		<path id="path620" fill="#F47257" d="M15804.802,11588.302H4817.974v-1150.006h10986.828V11588.302"/>
		<path id="path622" fill="#4951EC" d="M12882.401,7517.793c-2477.498,1310.01-5168.548,2116.304-7931.31,2376.504
			c102.356,1198.8,204.719,2397.599,307.083,3596.397c3194.378-300.791,6305.824-1233.091,9170.428-2747.799
			C13913.197,9667.905,13397.8,8592.798,12882.401,7517.793"/>
		<path id="path624" fill="#7C9AF2" d="M5194.644,10551.895c69.749,747.599,139.504,1495.211,209.26,2242.911
			c290.339-29.81,550.444,157.588,582.056,426.094c2663.131-334.395,5258.644-1112.197,7688.842-2303.804
			c-108.003-245.699,18.801-548.995,280.298-684.596c-316.399-673.696-632.798-1347.407-949.197-2021.206
			c-240.703,124.805-525.601,21.606-633.501-223.901C10238.204,9033.906,7958.98,9716.802,5620.35,10010.605
			C5651.954,10278.892,5461.802,10524.399,5194.644,10551.895"/>
		<path id="path626" fill="#50BFA5" d="M10911.703,10428.496c-223.301-643.096-912.005-970.693-1550.698-774.39
			c-638.372,197.886-1048.602,864.697-905.032,1532.389c143.138,666.606,851.727,1066.011,1570.027,843.911
			C10744.601,11808.995,11134.799,11070.406,10911.703,10428.496"/>
		<path id="path628" fill="#3C8F7C" d="M9355.6,9880.498c17.9,71.807,35.705,143.599,53.599,215.405
			c-96.299,31.201-187.397,75.293-260.398,121.802c-60.879,38.892-83.027,117.7-50.098,180.498c1.297,2.49,2.601,4.995,3.896,7.603
			c36.307,69.097,125.405,91.289,192.7,46.992c68.504-45.103,149.004-85.503,238.602-110.493
			c130.503-36.504,232.5-13.008,256.201,77.388c22.302,85.811-37.2,162.012-195,266.704
			c-228.296,150.703-373.901,307.999-323.599,529.205c45.402,200.405,230.303,320.303,499.702,296.704
			c17.6,71.895,35.2,143.701,52.8,215.596c79.3-22.002,158.401-44.297,237.4-67.104c-16.904-66.401-33.904-132.803-50.801-199.102
			c86.301-28.901,154.995-61.099,210.798-93.999c68.299-40.195,92.3-124.189,54.998-187.603
			c-38.599-65.391-127.2-84.199-195.996-41.499c-51.6,32.109-117.305,64.805-201.204,88.711
			c-154.6,43.901-220.195-6.299-235.7-69.712c-18.398-75.088,53.203-144.888,233.906-274.688
			c254.494-176.002,330.593-335.406,274.694-537.511c-55.7-200.391-245.596-326.191-516.994-296.396
			c-19.805-76.904-39.705-153.706-59.604-230.596C9502.304,9839.497,9429.003,9860.195,9355.6,9880.498"/>
		<path id="path630" fill="#50BFA5" d="M8077.662,11211.5c-631.479,145.693-1269.031,264.404-1911.079,355.605
			c14.846,115.298,29.7,230.493,44.546,345.791c651.042-92.49,1297.522-212.9,1937.842-360.601
			C8125.204,11438.697,8101.429,11325.099,8077.662,11211.5"/>
		<path id="path632" fill="#50BFA5" d="M13001.501,9463.105c-587.601,287.3-1185.499,548.994-1792.2,784.395
			c38.4,109.102,76.802,218.203,115.202,327.305c615.096-238.711,1221.395-504.009,1817.301-795.41
			C13095.097,9673.896,13048.303,9568.501,13001.501,9463.105"/>
		<path id="path634" fill="#4951EC" d="M14040.104,11632.496c-2556.204-534.097-4990.343-1604.298-7174.19-3154.396
			c-590.061,1018.198-1180.123,2036.396-1770.184,3054.596c2525.01,1792.207,5339.474,3029.601,8294.972,3647.105
			C13607.199,13997.3,13823.601,12814.903,14040.104,11632.496"/>
		<path id="path636" fill="#7C9AF2" d="M6680.589,9155.796c-363.625,638.804-727.259,1277.505-1090.892,1916.31
			c230.845,160.898,318.823,475.298,193.044,708.896c2151.548,1427.593,4499.261,2459.894,6954.859,3057.895
			c56.602-263.994,318.604-424.497,587-365.999c140.5-736.802,281.096-1473.702,421.604-2210.504
			c-247.002-53.892-400.005-317.095-343.403-580.898c-2156.404-525.19-4218.003-1431.695-6107.41-2685.294
			C7169.708,9229.595,6893.028,9303.906,6680.589,9155.796"/>
		<path id="path638" fill="#4951EC" d="M10969.301,12693.395c192.202-653.394-134.297-1351.699-714.8-1601.895
			c-581.097-248.6-1254.119,20.698-1518.896,642.803c-264.441,620.991,36.848,1389.199,690.396,1669.395
			C10079.298,13684.6,10777.501,13345.499,10969.301,12693.395"/>
		<path id="path642" fill="#50BFA5" d="M8442.511,11513.595c-547.053-285.688-1083.582-596.792-1608.171-932.594
			c-53.042,101.104-106.077,202.192-159.111,303.297c531.936,340.503,1075.986,655.898,1630.686,945.601
			C8351.449,11724.503,8396.983,11619.005,8442.511,11513.595"/>
		<path id="path644" fill="#4951EC" d="M13047.899,13254.796c-593.298-145.298-1179.998-317.49-1758.398-516.094
			c-32.3,111.094-64.497,222.305-96.797,333.398c586.597,201.401,1181.499,376.099,1783.096,523.301
			C12999.896,13481.905,13023.898,13368.307,13047.899,13254.796"/>
		<path id="path646" fill="#4951EC" d="M14447.997,9397.905c-2658.398,161.089-5320.693-229.102-7846.692-1150.005
			c-347.776,1141.904-695.552,2283.794-1043.321,3425.597c2920.555,1064.897,5998.814,1515.996,9072.518,1329.697
			C14569.704,11801.495,14508.803,10599.692,14447.997,9397.905"/>
		<path id="path648" fill="#7C9AF2" d="M6575.428,8952.9c-211.677,714.595-423.369,1429.204-635.054,2143.902
			c266.338,94.497,426.775,375.396,356.5,634.893c2465.427,811.011,5033.225,1187.3,7606.832,1114.907
			c-5.405-270.601,216.995-495.41,496.597-509.897c-32.3-750.41-64.6-1500.807-96.899-2251.202
			c-257.402,13.301-470.405-200.801-475.803-471.108c-2259.998,63.604-4514.898-266.895-6679.879-978.999
			C7077.511,8894.6,6820.533,9039.897,6575.428,8952.9"/>
		<path id="path650" fill="#4951EC" d="M11650.899,11239.098c38.401-683.292-447.897-1272.599-1081.699-1360.694
			c-633.896-86.499-1238.4,352.603-1355.998,1024.996c-117.503,671.104,360.103,1334.604,1073.298,1432.397
			C10999.601,12434.396,11612.704,11921.1,11650.899,11239.098"/>
		<path id="path654" fill="#50BFA5" d="M8871.271,10767.402c-608.862-131.396-1213.191-290.098-1811.433-476.001
			c-29.033,111.899-58.066,223.799-87.1,335.698c606.621,188.394,1219.424,349.396,1836.804,482.696
			C8830.108,10995.699,8850.704,10881.603,8871.271,10767.402"/>
		<path id="path656" fill="#50BFA5" d="M13842.299,11231.1c-622.002,16.802-1243.696,5.698-1863.398-33.105
			c-6.101,116.206-12.202,232.31-18.2,348.398c628.403,39.302,1258.703,50.61,1889.502,33.501
			C13847.602,11463.702,13844.899,11347.394,13842.299,11231.1"/>
		<path id="path658" fill="#FA7167" d="M4817.974,11588.302V6752.998h10986.828v4835.304H4817.974"/>
		<path id="path660" fill="#E8605D" d="M15804.802,7987.393h-2718.699c-120.498,0-218.203-102.29-218.203-228.486
			c0-126.211,97.705-228.604,218.203-228.604h-352.5c-120.498,0-218.306-102.305-218.306-228.501s97.808-228.501,218.306-228.501
			h61.099c-120.601,0-218.298-102.407-218.298-228.604c0-32.593,6.599-63.691,18.398-91.699h3210V7987.393"/>
		<path id="path662" fill="#E8605D" d="M15224.401,10974.693H5222.85v375.513h10001.552V10974.693"/>
		<path id="path664" fill="#7C9AF2" d="M9533.102,6812.896H5112.73c-229.578,0-415.686,186.108-415.686,415.708v2171.689
			c0,229.6,186.108,415.708,415.686,415.708h4420.372c229.497,0,415.599-186.196,415.599-415.708V7228.604
			C9948.7,6999.004,9762.599,6812.896,9533.102,6812.896"/>
		<path id="path666" fill="#DDE8FE" d="M6327.958,8466.895H5034.69v751.904h1293.267V8466.895"/>
		<path id="path668" fill="#DDE8FE" d="M9616.298,9268.896H7322.894v140.303h2293.404V9268.896"/>
		<path id="path670" fill="#DDE8FE" d="M9445.805,7631.802H5225.179v173.394h4220.626V7631.802"/>
		<path id="path672" fill="#DDE8FE" d="M9445.805,7223.506H5225.179v173.394h4220.626V7223.506"/>
		<path id="path674" fill="#E8605D" d="M10013.204,10229.102H5349.874v124.702h4663.331V10229.102"/>
		<path id="path676" fill="#DDE8FE" d="M13532.602,12794.103c329.502-469.497,215.999-1117.207-253.498-1446.709
			c-469.505-329.487-1117.2-215.991-1446.702,253.506s-215.999,1117.207,253.499,1446.694
			C12555.404,13377.096,13203.1,13263.6,13532.602,12794.103"/>
		<path id="path678" fill="#92B5F9" d="M13395.902,12698.097c276.401-393.896,181.201-937.5-212.798-1214.004
			c-393.903-276.489-937.404-181.187-1213.901,212.71c-276.504,393.999-181.304,937.5,212.695,1214.004
			C12575.803,13187.296,13119.304,13092.096,13395.902,12698.097"/>
		<path id="path682" fill="#DDE8FE" d="M14512.399,9470.195c329.502-469.497,215.998-1117.192-253.499-1446.694
			s-1117.199-216.006-1446.701,253.491c-329.495,469.512-215.999,1117.207,253.498,1446.709
			C13535.202,10053.203,14182.904,9939.692,14512.399,9470.195"/>
		<path id="path684" fill="#92B5F9" d="M14375.7,9374.204c276.504-393.999,181.201-937.5-212.703-1214.004
			c-393.999-276.504-937.5-181.201-1213.996,212.695c-276.497,393.999-181.297,937.5,212.702,1214.004
			C13555.6,9863.403,14099.203,9768.203,14375.7,9374.204"/>
		<path id="path686" fill="#FFFFFF" d="M13762.904,8260.498l-38.005,140.508c-64.197-14.312-129.697-19.204-185.501-16.304
			c-46.597,2.402-83.298,40.591-83.994,87.29v5.61c-0.703,51.401,42.4,92.9,93.794,89.502
			c52.303-3.398,109.907,0.088,167.806,15.791c84.294,22.808,133.096,70.898,117.1,130.005
			c-15.205,56.206-72.1,78.896-191.507,86.294c-172.5,10.4-300.396,55.107-339.199,198.501
			c-35.2,130.107,28.901,256.904,178.602,330.703l-37.903,140.508l144.902,39.199l35.098-130.107
			c54.404,12.1,100.605,16.904,140.2,17.007c48.406,0.19,87.803-39.009,88.403-87.407c0.703-50.098-40.298-90.791-90.3-89.692
			c-37.5,0.894-82.698-2.607-134.897-16.699c-96.102-26.001-115.906-75.806-104.7-117.202
			c13.198-48.706,73.301-65.801,211.802-79.102c192.7-14.502,285.594-76.699,321.592-209.707
			c35.604-131.602-27.194-269.092-189.199-344.692l40.804-150.806l-144.902-39.199"/>
		<path id="path688" fill="#DDE8FE" d="M12682.399,10173.804c0-573.604-465-1038.604-1038.597-1038.604
			c-573.501,0-1038.501,465-1038.501,1038.604c0,573.589,465,1038.59,1038.501,1038.59
			C12217.399,11212.394,12682.399,10747.393,12682.399,10173.804"/>
		<path id="path690" fill="#92B5F9" d="M12515.297,10173.804c0-481.304-390.095-871.509-871.494-871.509
			c-481.304,0-871.399,390.205-871.399,871.509c0,481.289,390.096,871.495,871.399,871.495
			C12125.202,11045.299,12515.297,10655.093,12515.297,10173.804"/>
		<path id="path694" fill="#FB9390" d="M15224.401,7053.994h-4703.797v2520.908h4703.797V7053.994"/>
		<path id="path696" fill="#E8605D" d="M12867.899,7758.906L12867.899,7758.906c0-126.211,97.705-228.604,218.203-228.604h-352.5
			c-120.498,0-218.298-102.305-218.298-228.501s97.8-228.501,218.298-228.501h61.099c-31.201,0-60.9-7.002-87.7-19.307h2517.4
			v933.398h-2138.299C12965.604,7987.393,12867.899,7885.103,12867.899,7758.906"/>
		<path id="path698" fill="#4951EC" d="M972.642,6826.694L972.642,6826.694c0-40.796,30.619-73.696,68.397-73.696h17053.76
			c37.801,0,68.402,32.9,68.402,73.696c0,40.708-30.602,73.711-68.402,73.711H1041.039
			C1003.261,6900.405,972.642,6867.402,972.642,6826.694"/>
		<path id="path700" fill="#7C9AF2" d="M15832.399,6616.196h-2807.601c-112.595,0-203.898,91.304-203.898,203.906
			c0,112.69,91.296,203.994,203.898,203.994h2807.601c112.603,0,203.899-91.304,203.899-203.994
			C16036.299,6707.5,15945.002,6616.196,15832.399,6616.196"/>
		<path id="path702" fill="#BED1F9" d="M15775.3,7024.097h-2807.498c-112.705,0-204.001,91.304-204.001,204.009
			c0,112.588,91.296,203.892,204.001,203.892H15775.3c112.603,0,203.899-91.304,203.899-203.892
			C15979.199,7115.4,15887.902,7024.097,15775.3,7024.097"/>
		<path id="path704" fill="#7C9AF2" d="M16104.699,7431.997h-2807.498c-112.603,0-204.001,91.406-204.001,204.009
			c0,112.69,91.398,203.994,204.001,203.994h2807.498c112.698,0,204.002-91.304,204.002-203.994
			C16308.701,7523.403,16217.397,7431.997,16104.699,7431.997"/>
		<path id="path706" fill="#4951EC" d="M12533.798,16264.6l35.706-241.699l-382.405-100.4l8.599-359.803l-273.896-121.896
			l61.699-138.699l366.401,163.096l-8.203,340.898l397.903,104.502l-53.797,363.604L12533.798,16264.6"/>
		<path id="path712" fill="#4951EC" d="M7871.009,16898.4l-231.899-23.502l-79.087,368.898l-343.315,7.404l-104.341,266.5
			l-134.868-52.904l139.541-356.293l325.349-7.002l82.28-383.805l348.97,35.406L7871.009,16898.4"/>
		<path id="path714" fill="#FA7167" d="M10551,17174.297l248.101-81.797c0,0,393.398,127.5,432.202,207.598
			c38.701,80.201,49.702,274.703,105.601,280.006c56.001,5.396,164.194-12.803,189.895-146.002
			c18.706-96.6-122.798-375.9-100.7-405.703c13.806-18.596,155.104-69.697,258.903-105.402
			c68.203-23.395,117.503-83.496,127.998-155.998v-0.199c7.104-48.998-20.698-96.701-66.496-114.404l-71.404-27.494l22.801-73.705
			c16.904-54.895-13.096-113.898-67.295-131.996l-55.203-18.502l17.601-44.896c22.8-57.905-9.302-123.501-68.701-140.706
			l-48.201-13.996l2-12.898c8.298-53.701-25.298-105.3-77.402-119.004l-47.9-12.502l-660.799,218.005
			c-61.896,20.501-118.901,53.599-167.497,97.295l-219.404,115.803c-23.599,12.504-34.497,40.6-25.599,66.299l203.504,585.799
			C10492.802,17168.195,10523.102,17183.496,10551,17174.297"/>
		<path id="path716" fill="#FA7167" d="M6626.229,14549.897l52.529,260.405l244.27,104.297c27.832,11.901,29.949,50.5,3.596,65.397
			l-231.401,130.4l-23.745,264.5c-2.71,30.205-38.789,44.099-61.055,23.605l-195.542-179.707l-258.948,59.106
			c-29.495,6.797-53.914-23.203-41.323-50.705l110.537-241.502l-136.29-227.995c-15.52-26.001,5.471-58.499,35.523-54.998
			l263.862,30.498l174.719-200.098C6582.848,14510.303,6620.252,14520.197,6626.229,14549.897"/>
		<path id="path718" fill="#FB9390" d="M3438.663,8154.502c0,0-325.569-234.697-376.839-304.702
			c-73.85-100.898,551.565-289.497,483.318-171.401c-15.703,27.1-60.71,118.506-62.681,127.5
			c-10.481,48.105,122.168,177.598,122.168,177.598L3438.663,8154.502"/>
		<path id="path720" fill="#0B0754" d="M3714.31,7480.996l-221.089,312.407c0,0-138.018,32.095-279.698,191.499
			c0,0-127.332-48.604-205.664-153.999c0,0,148.03-159.507,376.018-339.009c0,0,135.161-119.692,322.002-182.798
			C3892.72,7246.006,3714.31,7480.996,3714.31,7480.996"/>
		<path id="path722" fill="#FB9390" d="M717.88,12432.403c0,0,40.02-35.405,54.192-46.099c16.6-12.7,69.119-46.802,69.119-46.802
			s190.02-108.105,196.461-93.809c6.449,14.209,6.16,55.21-3.23,66.006s-36.76,21.899-46.161,32.695
			c-9.379,10.811-12.601,32.607-0.509,44.604c12.089,12.1,77.029-23.394,77.029-23.394s52.592-29.209,74.59-64.512
			c76.201-122.3,53.101-129.39,63.281-144.8c12.059-18.296,278.577-139.292,278.577-139.292s796.846-331.201,839.78-349.307h0.542
			c5.808-36.899-13.931-70.898-24.067-103.491c-19.065-113.906-52.932-121.406-78.779-231.211
			c-122.227,61.802-968.244,527.9-1054.252,576.504c0,0-128.833,22.002-209.363,38.408
			c-80.519,16.494-150.688,67.397-172.749,75.498c-3.259,1.201-75.311,32.3-154.519,93.691c-68.269,52.91,19.871,32.9,19.871,32.9
			s143.478-75.996,147.198-63.999c2.871,9.302-77.798,46.406-153.929,104.106c-19.57,14.897-38.829,29.59-56.419,43.301
			c-46.183,35.903-38.123,73.594,15.989,43.491c19.109-10.693,50.431-29.092,71.001-45.293
			c22.218-17.505,48.087-26.602,68.939-38.599c41.378-23.701,71.268-41.499,71.268-39.302c0,2.798,11.371,3.794-8.928,20.2
			c-24.412,19.702-85.232,50.493-118.96,82.104c-19.113,17.988-61.289,53.188-61.289,53.188s-54.141,64.702-51.493,69.009
			c14.323,23.203,63.501-11.001,86.382-38.701c23.438-10.503,66.801-48.706,66.801-48.706s104.528-58.403,112.588-44.092
			c3.431,6.094-56.609,49.395-109.069,100.796c-48.71,47.695-90.33,103.506-82.599,114.199
			C658.29,12479.908,717.88,12432.403,717.88,12432.403"/>
		<path id="path724" fill="#E8605D" d="M2940.703,10566.895l51.526-254.59l1294.6-1177.603l-926.675-937.808l250.225-255.688
			c0,0,1368.633,1005,1417.961,1136.689c75.938,202.808-981.079,1545.908-981.079,1545.908L2940.703,10566.895"/>
		<path id="path726" fill="#FB9390" d="M2043.003,7487.002c0,0-261.174-284.604-312.444-354.609
			c-73.85-100.898,477.664-249.8,409.409-131.689c-15.696,27.202-60.718,118.594-62.681,127.603
			c-10.474,47.988,122.175,177.495,122.175,177.495L2043.003,7487.002"/>
		<path id="path728" fill="#0B0754" d="M2430.711,7009.8l-359.458,131.294c0,0-135.85-61.699-343.015-11.089
			c0,0-73.074-102.7-77.659-233.906c0,0,681.336-86.895,870.93-32.593C2711.111,6917.793,2430.711,7009.8,2430.711,7009.8"/>
		<path id="path730" fill="#FA7167" d="M2985.022,10448.901l58.14-1606.802L1894.453,7433.696l310.767-170.2
			c0,0,1270.694,1090.605,1410.227,1394.399c86.543,188.511,377.725,1891.699,377.725,1891.699L2985.022,10448.901"/>
		<path id="path732" fill="#DDE8FE" d="M4029.258,10580.796c-105.286,237.598-93.105,1941.197-502.888,2340.309
			c-144.17-24.404-247.009-37.998-271.069-44.399c-21.379-175.503-44.898-819.404-59.348-1409.707
			c-9.624-393.105,0.308-805.504-48.12-1022.901C3117.803,10309.404,4125.462,10363.691,4029.258,10580.796"/>
		<path id="path734" fill="#4951EC" d="M2920.049,12788.8c-115.027-26.206-199.731-44.604-350.508-267.407
			c-144.353-213.193-464.854-719.194-464.854-719.194l-844.186,375l-39.47-427.603c0,0,955.031-496.392,1089.767-451.699
			c134.744,44.81,513.574,598.506,541.589,635.903c6.584,8.804-31.787-591.401-31.787-687.305
			c0-95.889-183.091-930.895-183.091-930.895s464.561-114.302,555.227,93.398c277.991,636.798,64.615,2468.307,64.615,2468.307
			S3002.82,12807.696,2920.049,12788.8"/>
		<path id="path736" fill="#FB9390" d="M4654.043,14612.102c-35.471,29.7-50.955,100.898-56.799,146.697l-15.791,60.703
			c14.399,5.896,295.92,45.996,380.83,48.098c8.269-26.799,12.378-49.497,9.741-63.999
			c-12.634-69.404-101.243-520.005-101.243-520.005l-242.454-4.797C4628.328,14278.799,4681.07,14546.001,4654.043,14612.102"/>
		<path id="path738" fill="#4951EC" d="M3621.373,12821.305c0,0,166.348-473.306,303.245-405.103s905.984,852.202,913.586,890.098
			c7.61,37.896,60.85,1000.302,60.85,1000.302l-304.211,60.601l-174.917-788.104c0,0-562.793-537.993-676.875-590.991
			C3628.982,12935.006,3621.373,12821.305,3621.373,12821.305"/>
		<path id="path740" fill="#4951EC" d="M4070.428,10466.904c92.102,0,126.086,12.7,187.412,31.201
			c0,0-175.349,988.39-277.31,1968.487c-40.269,387.202-77.659,545.903-237.4,517.91c-46.187-8.101-171.321-55.708-216.738-63.398
			c401.396-1135.708,402.795-2009.897,459.617-2263.404C4014.522,10530.493,4039.373,10466.099,4070.428,10466.904"/>
		<path id="path742" fill="#F7A491" d="M3484.029,13092.696l42.07-171.592c0,0,9.595-149.399-59.758-162.803
			c-83.621-16.201-207.891,108.896-207.891,108.896l-71.968,483.896L3484.029,13092.696"/>
		<path id="path744" fill="#FB9390" d="M3484.029,13092.696l42.07-171.592c0,0,9.595-149.399-59.758-162.803
			c-83.621-16.201-207.891,108.896-207.891,108.896l-71.968,483.896L3484.029,13092.696"/>
		<path id="path746" fill="#EF7F7F" d="M3187.193,13348.897l296.836-256.201l31.436-128.203
			C3401.99,12991.798,3240.228,13116.603,3187.193,13348.897"/>
		<path id="path748" fill="#FB9390" d="M3485.032,13794.097c71.777,0.205,136.399-49.6,161.638-121.194
			c20.933-59.41,47.717-147.403,64.761-248.404c31.421-186.094-74.553-356.499-166.772-370.093
			c-92.197-13.608-311.851,47.49-360.418,311.089c-20.83,112.998-48.223,261.211,44.722,339.107
			C3301.26,13765.195,3402.532,13793.898,3485.032,13794.097"/>
		<path id="path750" fill="#0B0754" d="M3214.197,13164.605c0,0-325.049,289.688-339.236,515.995
			c-14.187,226.296,194.81,347.6,373.528,353.796c80.742,2.9,135.359-0.695,218.723-11.198
			c179.055-22.596,295.1-101.997,254.246-248.701c-54.829-196.894-426.445-30.799-502.427-91.897
			c-62.703-50.504,38.95-171.808-21.973-218.097c-57.246-43.506-28.088-28.711-9.126-111.504
			C3206.88,13270.294,3214.197,13164.605,3214.197,13164.605"/>
		<path id="path752" fill="#FB9390" d="M3088.872,13427.105c8.057-54.302,41.206-94.307,74.041-89.502
			c32.834,4.893,52.939,52.793,44.875,106.992c-8.057,54.199-41.206,94.204-74.041,89.399
			C3100.899,13529.205,3080.808,13481.305,3088.872,13427.105"/>
		<path id="path754" fill="#EF7F7F" d="M4670.53,14820.197c0,0,52.639-29.897,104.978-99.302c0,0,137.08,87.905,132.283,115.804
			c-6.372,36.899-146.492-31.699-146.492-31.699L4670.53,14820.197"/>
		<path id="path756" fill="#92B5F9" d="M1135.921,16640.098l3701.302-1905.696c199.182-102.604,450.981-10.305,562.427,206.199
			l945.206,1835.698c111.438,216.402,40.32,474.998-158.855,577.604L2484.69,19259.699
			c-199.167,102.504-450.981,10.203-562.419-206.301L977.08,17217.701C865.631,17001.299,936.749,16742.703,1135.921,16640.098"/>
		<path id="path758" fill="#0B0754" d="M5420.889,14981.799l-4422.58,2277.203l286.751,556.896l4422.572-2277.195
			L5420.889,14981.799"/>
		<path id="path760" fill="#DDE8FE" d="M3107.512,17953.996l-974.634,502.904l278.95,540.6l974.634-502.902L3107.512,17953.996"/>
		<path id="path762" fill="#FB9390" d="M4669.49,14823.098c-6.438,17.402-19.116,41.704-12.876,51.204
			c39.47,60.3-3.083,125.896-31.794,74.597c-16.67-29.802-45.842-95.397-43.381-129.396c1.794-24.705,26.843-118.901,26.843-118.901
			S4706.009,14724.396,4669.49,14823.098"/>
		<path id="path764" fill="#FB9390" d="M15819.502,8481.396c0,0-22.801-283.696-4.3-375.894
			c9.902-49.409,65.003-151.011,39.697-197.505c-25.298-46.494-54.199-58.096-54.199-58.096l-655.298-10.298
			c-35.698-0.601-12.202,22.002,16.597,42.788c47.102,34.102,85.202,56.602,235.7,128.203c9.8,4.6,45.498,26.997,58.403,34.702
			c32.695,19.702,65.501,50.508,93.699,81.504c47.102,51.504,51.196,301.392,51.196,301.392L15819.502,8481.396"/>
		<path id="path766" fill="#0B0754" d="M15307.201,12252.901c0,0-281.704,138.896-227.497-163.096
			c54.199-302.007,466.896-3698.409,466.896-3698.409l386.603-21.504c0,0,49.401,1132.412,38.599,1295.01
			c-10.898,162.598-74.897,414.199-74.897,414.199l-32.806,1004.605l-364.695,1240.298L15307.201,12252.901"/>
		<path id="path768" fill="#0B0754" d="M15456.205,8045.4c173.299-43.696,301.399-14.004,373.097,14.399
			c18.501-51.504,43-116.104,30-153.398c-15.901-45.601-36.702-65.903-56.697-66.401c-158.306-4.102-581.8,0.293-702.503-1.304
			c-16.904-0.19-26.198,19.204-15.3,31.904C15114.706,7905.801,15443.3,8037.593,15456.205,8045.4"/>
		<path id="path770" fill="#FB9390" d="M15079.704,14294.099c0,0-238.104,458.299-275.105,626.499
			c-36.899,168.201-164.897,1015.4-154.094,1070.003c10.796,54.602,213.098,185.896,188.195,232.199
			c-24.997,46.297-217.697,46.502-261.899,42.503c-44.099-4.007-132.803-29.7-170.698-61.004
			c-37.998-31.296,42.598-1046.602,66.702-1265.2c24.097-218.496,319.995-891.701,319.995-891.701L15079.704,14294.099"/>
		<path id="path772" fill="#FB9390" d="M16935.404,10722.695c0,0,196.4,206.002,240.199,289.205
			c23.4,44.604,44.596,158.306,93.492,178.403c48.904,20.2,78.707,11.001,78.707,11.001l515.492-404.913
			c28.104-21.987-4.496-24.697-39.996-22.69c-58.002,3.193-101.697,9.697-263.695,48.896c-10.605,2.607-52.404,7.705-67.301,9.8
			c-37.699,5.405-82.699,2.095-124.102-4.204c-69.002-10.298-229.6-201.797-229.6-201.797L16935.404,10722.695"/>
		<path id="path774" fill="#0B0754" d="M17492.199,10832.397c-107,143.204-225.301,200.802-298.799,223.902
			c18.098,51.694,37.801,119.194,71.404,139.995c41.096,25.4,69.5,20.098,85.4,7.91c125.492-96.606,453.998-360.807,548.693-435.602
			c13.301-10.503,8.307-31.406-8.195-34.409C17845.301,10725.698,17507.104,10830.303,17492.199,10832.397"/>
		<path id="path776" fill="#0B0754" d="M16940.004,14433.698c-122.299,256.502-393.199,397.698-655.604,329.297
			c-94.095,127.405-239.795,216.606-391.297,238.001c-298.901,42.399-684.5-102.598-645.198-414.595
			c-94.401-218.203-71.301-518.899,117.4-666.299c-34.702-286.908,252.897-541.308,593.299-507.001
			c136.999-189.097,375.103-299.897,597.803-256.802c53.393,10.4,134.598,29.897,148.498,27.495
			c-17.402,1.904,388.301-263.789,668.102,209.312C17658.504,13875.9,17377.406,14415.601,16940.004,14433.698"/>
		<path id="path778" fill="#4951EC" d="M15193.801,12143.492c0,0,631.802,280.913,641.697,248.906
			c79.204-255.103,325.605-172.793,471.899-622.192c61.304-188.101,124.204-1439.708,124.204-1439.708
			s249.096,206.704,605.098,567.906c27.305,27.7,294.902-226.803,294.902-226.803
			c-706.598-954.697-1011.401-1004.502-1129.3-951.006c-246.101,111.504-765.506,1672.311-764.604,1672.208
			C15375.302,11514.298,15193.801,12143.492,15193.801,12143.492"/>
		<path id="path780" fill="#FB9390" d="M16241.201,13906.699c0,0,913.104,1.099,1108.602,12.399
			c176.9,10.203,878.701-7.603,906.195-4.497c27.4,3.201,208.807,310.4,239.004,277.5c30.096-33.003-101-152.402-60.402-183.303
			c40.502-30.996,476.104,38.298,470.303,6.101c-10.898-60.197-265.006-52.5-264.697-81.599c0.301-29.1,266,16.296,283.996-32
			c18.004-48.303-255.6-19.702-266.498-41.198c-10.898-21.6,253.695-61.004,226.699-105.901
			c-14.803-24.404-234.5,40.701-233.504,7.397c1.098-33.2,161.498-108.801,141.805-135.304
			c-19.703-26.499-125.904,81.207-218.9,82.606c-93.105,1.296-159.697,49.899-308.203,9.097
			c-73.395-20.098-633.295-88.495-1106.396-128.998c-485.002-41.396-882.502-54.595-882.502-54.595L16241.201,13906.699"/>
		<path id="path782" fill="#92B5F9" d="M14887.201,13261.095c-12.1,146.602,16.699,259.512,23.299,308.203
			c-44.297,152.304-138.699,477.198-172.596,541c0,0,158.994,305.5,321.694,303.501c0,0,166.201-374.7,294.705-441.702
			c1.896,0.506,45.498-19.395,64.694-19.299c124.007,0.9,557.608,14.004,638.504,15.505l-45.498-615.099
			c-314.202-615.908-229.102-939.097-109.6-1058.599c56.199-56.206-783.999-284.399-822.7-204.8
			C15034.104,12183.702,14911.605,12964.698,14887.201,13261.095"/>
		<path id="path784" fill="#92B5F9" d="M15837.204,13944.997c79.995,38.203,658.696,19.102,658.696,19.102
			s80.904-403.004,15.602-499.903c0,0-517.501-76.992-502.801-119.399l-171.504,600.201"/>
		<path id="path786" fill="#FB9390" d="M15685.505,14203.996c0,0-10.101-219.8,0.197-311.294
			c10.298-91.604-93.999-306.207-288.003-309.898c-193.996-3.809-28.498,205.895-11.499,295.997
			c17,90.096,37.397,442.698,37.397,442.698L15685.505,14203.996"/>
		<path id="path788" fill="#EF7F7F" d="M15423.598,14321.499c0,0-4.694-81.797-11.499-176.697
			c61.201-73.103,155.2-110.303,269.604-65.903c1.201,68.101,3.802,125.098,3.802,125.098L15423.598,14321.499"/>
		<path id="path790" fill="#FB9390" d="M15701.604,14859.001c0,0,109.9-32.9,171.497-142.8
			c61.699-109.9,87.598-422.703-149.297-551.602c-236.902-128.899-399.303,87.7-388.507,287.3
			C15346.101,14651.396,15407.199,14914.6,15701.604,14859.001"/>
		<path id="path792" fill="#FB9390" d="M15287.602,14517.803c16.099-49.402,52.5-81.907,81.299-72.503
			c28.799,9.302,39.097,56.997,22.998,106.399c-15.996,49.401-52.397,81.899-81.196,72.598
			C15281.903,14614.899,15271.605,14567.3,15287.602,14517.803"/>
		<path id="path794" fill="#0B0754" d="M15668.505,14867.798c0,0,120.301-328.901,243.399-366.102
			c123.003-37.097,110.098-197.497,110.098-197.497s22.8,371.001-88.499,464.099
			C15822.204,14861.499,15668.505,14867.798,15668.505,14867.798"/>
		<path id="path796" fill="#FB9390" d="M15857.603,14438.796c-20.003-50.596-8.401-102.7,25.803-116.294
			c34.3-13.506,78.296,16.597,98.299,67.295c20.002,50.706,8.496,102.803-25.804,116.302
			C15921.704,14519.699,15877.7,14489.502,15857.603,14438.796"/>
		<path id="path798" fill="#EF7F7F" d="M14371.701,16126.099c0,0,267.502-11.697,298.901-11.697c31.398,0,122.798,94.6,122.798,94.6
			L14371.701,16126.099"/>
		<path id="path800" fill="#DDE8FE" d="M15247.304,17749.703c329.495-469.506,215.999-1117.201-253.506-1446.703
			c-469.497-329.502-1117.199-215.998-1446.694,253.498c-329.502,469.498-216.006,1117.201,253.396,1446.703
			C14270.004,18332.703,14917.802,18219.199,15247.304,17749.703"/>
		<path id="path802" fill="#92B5F9" d="M15110.502,17653.697c276.497-393.896,181.297-937.398-212.702-1213.895
			c-393.999-276.505-937.5-181.305-1213.997,212.695c-276.504,393.904-181.304,937.404,212.695,1213.9
			C14290.497,18142.902,14833.998,18047.703,15110.502,17653.697"/>
		<path id="path806" fill="#FB9390" d="M14670.603,16114.401l110.5,99.295c0,0-52.199,62.3-30.498,74.304
			c35.2,19.402,95.493-55.803,90.198-74.099c-5.398-18.304-70.203-77.3-70.203-77.3L14670.603,16114.401"/>
	</g>
</g>
<path fill="#454545" d="M1968.396,330.202c1.609,4.719,1.609,15.547,0,20.266c-5.979,2.119-15.725,0.5-23.313,1.013
	c5.36,20.788-5.218,40.319-22.808,44.577c4.696,7.234,12.796,13.792,20.261,21.266c2.07,2.069,6.015,5.704,6.059,7.605
	c0.105,2.48-9.95,14.044-13.682,14.182c-3.855,0.137-12.585-10.56-15.698-13.695c-9.613-9.595-19.129-19.115-29.371-29.365
	c-4.333-4.329-13.23-11.758-12.664-15.694c1.327-9.383,28.689-2.087,38.993-5.063c3.617-1.07,7.923-4.753,8.623-9.636
	c3.36-24.192-39.639-9.79-54.204-15.198c-1.583-4.519-1.725-15.26,0-19.744C1901.023,328.689,1937.141,329.703,1968.396,330.202z"/>
<path fill="#454545" d="M1742.905,989.053c1.609,4.719,1.609,15.547,0,20.266c-5.979,2.119-15.725,0.5-23.313,1.013
	c5.36,20.788-5.218,40.319-22.808,44.577c4.696,7.234,12.796,13.792,20.261,21.266c2.07,2.069,6.015,5.704,6.059,7.605
	c0.105,2.48-9.95,14.044-13.682,14.182c-3.855,0.137-12.585-10.56-15.698-13.695c-9.613-9.595-19.129-19.115-29.371-29.365
	c-4.333-4.329-13.23-11.758-12.664-15.694c1.327-9.383,28.689-2.087,38.993-5.063c3.617-1.07,7.923-4.753,8.623-9.636
	c3.36-24.192-39.639-9.79-54.204-15.198c-1.583-4.519-1.725-15.26,0-19.744C1675.532,987.54,1711.65,988.554,1742.905,989.053z"/>
<path fill="#454545" d="M1604.656,1255.056c1.609,4.719,1.609,15.547,0,20.266c-5.979,2.119-15.725,0.5-23.313,1.013
	c5.36,20.788-5.218,40.319-22.808,44.577c4.696,7.234,12.796,13.792,20.261,21.266c2.07,2.068,6.015,5.703,6.059,7.605
	c0.105,2.48-9.95,14.043-13.682,14.182c-3.855,0.137-12.585-10.561-15.698-13.695c-9.613-9.596-19.129-19.116-29.371-29.366
	c-4.333-4.329-13.23-11.758-12.664-15.694c1.327-9.383,28.689-2.087,38.993-5.063c3.617-1.07,7.923-4.753,8.623-9.636
	c3.36-24.192-39.639-9.79-54.204-15.198c-1.583-4.519-1.725-15.26,0-19.744C1537.282,1253.543,1573.401,1254.557,1604.656,1255.056z
	"/>
<path fill="#454545" d="M1200.915,526.474c1.609,4.719,1.609,15.547,0,20.266c-5.979,2.119-15.725,0.5-23.313,1.013
	c5.36,20.788-5.218,40.319-22.808,44.577c4.696,7.234,12.796,13.792,20.261,21.266c2.07,2.069,6.015,5.704,6.059,7.605
	c0.105,2.48-9.95,14.044-13.682,14.182c-3.855,0.137-12.585-10.56-15.698-13.695c-9.613-9.595-19.129-19.115-29.371-29.365
	c-4.333-4.329-13.23-11.758-12.664-15.694c1.327-9.383,28.689-2.087,38.993-5.063c3.617-1.07,7.923-4.753,8.623-9.636
	c3.36-24.192-39.639-9.79-54.204-15.198c-1.583-4.519-1.725-15.26,0-19.744C1133.542,524.961,1169.66,525.975,1200.915,526.474z"/>
</svg>
